<svg width="900" height="420" viewBox="0 0 900 420" fill="none" xmlns="http://www.w3.org/2000/svg">
<mask id="mask0" mask-type="alpha" maskUnits="userSpaceOnUse" x="0" y="0" width="900" height="420">
<rect width="900" height="420" fill="#405A82"/>
</mask>
<g mask="url(#mask0)">
<g opacity="0.1">
<mask id="path-2-outside-1" maskUnits="userSpaceOnUse" x="-62.365" y="-337.654" width="1351.23" height="1249.04" fill="black">
<rect fill="white" x="-62.365" y="-337.654" width="1351.23" height="1249.04"/>
<path d="M1163.35 -24.9838C1156.86 -28.4163 1148.91 -25.9576 1145.47 -19.4715C1144.44 -17.5079 1144.03 -15.3854 1143.97 -13.2232L944.261 0.617759C943.686 -1.52464 942.277 -3.48864 940.234 -4.61956C936.307 -6.68303 931.447 -5.23554 929.384 -1.30819C928.234 0.913336 928.234 3.35322 929.087 5.43614L810.251 75.4438C809.775 74.8487 809.101 74.4122 808.427 73.9757C805.273 72.2694 801.345 73.4591 799.719 76.7121C798.667 78.8543 798.767 81.2149 799.996 83.159L727.022 156.009C726.942 155.91 726.764 155.89 726.684 155.791C724.125 154.422 721.031 155.433 719.762 157.912C718.968 159.36 718.968 160.987 719.623 162.415L612.292 242.739C612.213 242.64 612.134 242.541 612.035 242.62C609.734 241.37 606.738 242.302 605.489 244.603C604.477 246.388 604.874 248.511 606.143 250.098L555.92 348.341C553.957 348.123 551.953 349.075 550.942 350.86C550.704 351.375 550.565 351.812 550.426 352.248L460.749 355.014C460.411 353.169 459.241 351.503 457.535 350.59C454.461 348.983 450.712 350.193 449.026 353.168C448.55 354.199 448.331 355.35 448.312 356.342L327.929 381.717C327.353 380.388 326.401 379.198 325.032 378.504C324.18 378.047 323.386 377.869 322.573 377.869L320.985 261.211C322.829 260.874 324.575 259.803 325.507 257.918C327.213 254.765 325.924 250.916 322.77 249.21C319.616 247.504 315.768 248.792 314.062 251.946C313.844 252.283 313.705 252.72 313.665 253.077L207.425 244.693C207.345 242.154 205.977 239.833 203.596 238.484C200.006 236.638 195.702 237.967 193.857 241.557C192.469 244.294 192.925 247.508 194.77 249.611L79.0096 388.729C78.9303 388.629 78.7518 388.61 78.6724 388.51C74.7449 386.447 69.8852 387.894 67.8223 391.822C66.6718 394.043 66.652 396.662 67.5843 398.844L-25.3852 456.457C-26.02 455.663 -26.8531 455.029 -27.7853 454.473C-31.7129 452.41 -36.5726 453.857 -38.6355 457.784C-40.6983 461.712 -39.2503 466.572 -35.3228 468.635C-32.1689 470.342 -28.3009 469.687 -25.8611 467.248L94.7215 552.321C94.6223 552.4 94.6223 552.4 94.6025 552.579C93.095 555.574 94.2257 559.224 97.1217 560.811C98.3119 561.486 99.5615 561.625 100.851 561.407L134.117 672.733C132.589 673.466 131.379 674.597 130.566 676.223C128.503 680.151 129.951 685.011 133.879 687.074C137.806 689.138 142.666 687.69 144.729 683.763C144.828 683.684 144.749 683.585 144.848 683.505L246.11 717.18L299.587 727.918C299.627 730.814 301.135 733.512 303.951 735C307.026 736.607 310.517 736.092 313.016 733.93L392.856 796.94L392.757 797.02C390.694 800.947 392.142 805.807 396.069 807.871C399.997 809.934 404.857 808.487 406.92 804.559C407.971 802.417 408.05 800.076 407.376 798.013L501.496 741.432C501.833 741.65 502.17 741.868 502.507 742.086C505.324 743.574 508.696 742.504 510.184 739.687C511.671 736.871 510.6 733.498 507.784 732.01C507.188 731.673 506.574 731.514 505.859 731.435L485.724 574.308C486.855 573.892 488.025 573.118 488.62 571.829C488.977 571.056 489.255 570.183 489.255 569.37L577.603 531.394C577.98 532.068 578.635 532.683 579.488 533.14C581.788 534.39 584.605 533.438 585.855 531.137C586.787 529.253 586.489 527.051 585.022 525.622L670.612 418.933C673.984 420.302 677.931 418.934 679.657 415.602C680.807 413.38 680.728 410.841 679.597 408.818L717.999 368.991C718.257 369.11 718.495 369.408 718.753 369.527C721.569 371.015 725.04 369.865 726.429 367.127C726.647 366.79 726.687 366.433 726.806 366.175L805.713 373.326C806.208 374.556 807.081 375.647 808.351 376.421C811.088 377.81 814.539 376.838 815.928 374.101C816.067 373.665 816.305 373.149 816.344 372.792L1040.25 316.008C1040.81 317.516 1041.94 318.726 1043.46 319.619C1046.88 321.444 1051.18 320.115 1053 316.704C1054.83 313.292 1053.5 308.988 1050.09 307.162C1050.01 307.063 1049.83 307.043 1049.75 306.944L1154.2 -0.427501C1159.94 0.842733 1166 -1.73529 1168.78 -7.20978C1172.37 -13.4975 1169.83 -21.5513 1163.35 -24.9838ZM678.506 407.25C677.931 406.735 677.435 406.318 676.761 405.881C675.908 405.425 675.035 405.147 674.142 405.048L661.148 248.716L717.721 360.104C717.225 360.501 716.808 360.997 716.471 361.592C715.44 363.555 715.658 365.658 716.729 367.404L678.506 407.25ZM583.494 524.729C582.205 524.134 580.836 524.253 579.686 524.848L506.967 424.586C507.562 424.11 507.978 423.614 508.335 422.841C508.772 422.166 508.851 421.452 508.93 420.738L666.664 414.608C667.16 415.838 667.934 417.009 669.104 417.862L583.494 524.729ZM577.563 526.871C577.107 527.724 576.988 528.795 577.067 529.708L488.997 567.624C488.481 566.572 487.767 565.68 486.656 565.104C486.399 564.985 486.22 564.965 486.141 564.866L502.722 426.192C503.714 426.212 504.547 426.034 505.4 425.677L578.198 526.038C577.901 526.276 577.682 526.613 577.563 526.871ZM500.186 734.509C499.175 736.294 499.393 738.396 500.385 740.043L406.562 796.387C405.868 795.315 404.876 794.482 403.766 793.907L483.959 574.745L504.035 731.593C502.368 731.95 501 732.882 500.186 734.509ZM550.585 354.073C550.704 354.629 551.001 355.204 551.219 355.68L505.459 414.569C503.495 413.537 501.294 413.834 499.568 414.726L458.963 360.509C459.459 360.112 459.975 359.537 460.233 358.843C460.669 358.168 460.749 357.454 460.828 356.74L550.585 354.073ZM607.75 251.09C610.071 252.161 612.788 251.289 614.038 248.988C614.375 248.393 614.554 247.599 614.534 246.965L655.475 245.284C655.515 245.74 655.733 246.216 655.951 246.692L558.34 347.707L607.75 251.09ZM719.127 165.252L661.445 240.345C659.363 239.571 656.923 240.384 655.892 242.348C655.673 242.685 655.634 243.042 655.515 243.3L614.217 244.941C614.078 244.564 613.939 244.187 613.701 243.89L719.127 165.252ZM801.087 84.7261C801.504 85.0436 801.92 85.3611 802.258 85.5793C804.995 86.9682 808.228 86.3338 810.093 84.1917L849.269 104.906C849.209 105.441 849.229 106.076 849.447 106.552L728.212 157.497L801.087 84.7261ZM1040.73 310.097C1040.59 310.533 1040.27 310.95 1040.13 311.386L768.757 265.927C768.956 263.329 767.706 260.75 765.226 259.48C765.226 259.48 765.226 259.48 765.147 259.381L852.284 109.488C853.335 109.786 854.248 109.707 855.2 109.27L1041.38 309.085C1041.16 309.422 1040.94 309.76 1040.73 310.097ZM850.439 108.199C850.518 108.298 850.677 108.496 850.756 108.595L763.402 258.825C762.073 258.587 760.704 258.706 759.553 259.301L726.843 164.935C727.617 164.479 728.331 163.745 728.787 162.892C729.461 161.702 729.521 160.353 729.204 159.143L850.439 108.199ZM721.666 165.173C722.697 165.649 723.848 165.867 724.959 165.629L757.887 260.471C757.292 260.947 756.856 261.621 756.419 262.296C756.201 262.633 755.963 263.149 755.923 263.506L664.282 244.094C664.123 243.083 663.865 242.15 663.132 241.436L721.666 165.173ZM719.268 359.192L662.695 247.804C663.092 247.486 663.508 246.991 663.747 246.475C663.766 246.296 663.866 246.217 663.985 245.959L755.705 265.47C755.785 267.195 756.499 268.901 757.808 270.131L722.382 358.815C721.232 358.597 720.22 358.756 719.268 359.192ZM657.756 248.339C658.272 248.577 658.708 248.716 659.244 248.775L672.218 405.286C670.096 405.682 668.152 406.912 667.021 408.955L559.828 354.65C560.463 353.003 559.947 351.139 558.916 349.849L657.34 248.021C657.419 248.12 657.677 248.239 657.756 248.339ZM484.177 564.648C482.63 564.747 481.103 565.481 480.15 566.73L400.35 513.936C401.263 512.23 401.025 510.306 400.013 508.838L498.556 424.645C498.973 424.962 499.389 425.279 499.806 425.597C500.064 425.716 500.322 425.835 500.679 425.875L484.177 564.648ZM142.111 673.17L255.926 464.525C257.394 465.141 258.842 465.121 260.151 464.724L320.79 552.528C320.393 552.845 320.175 553.182 319.937 553.698C319.243 555.066 319.342 556.614 320.016 557.863L143.638 674.876C143.182 674.103 142.686 673.686 142.111 673.17ZM457.297 361.679L498.06 416.095C497.743 416.512 497.525 416.849 497.207 417.265C496.176 419.229 496.295 421.411 497.366 423.157L398.724 507.429C398.466 507.31 398.307 507.112 398.129 507.092L398.049 506.993L453.092 362.115C454.5 362.452 455.968 362.254 457.297 361.679ZM104.262 551.033C104.183 550.934 104.183 550.934 104.104 550.835L178.09 452.614C178.169 452.713 178.249 452.812 178.427 452.832C181.502 454.439 185.251 453.23 186.857 450.155C186.976 449.897 186.996 449.719 187.115 449.461L252.613 459.368C252.633 460.002 252.752 460.558 252.97 461.034L104.262 551.033ZM319.498 389.274C320.014 389.512 320.451 389.651 320.887 389.79L323.388 551.1C323.11 551.159 322.833 551.219 322.555 551.278L261.995 463.574C262.591 463.098 263.106 462.523 263.463 461.749C264.614 459.528 264.177 456.949 262.571 455.144L319.022 388.679C318.983 389.036 319.241 389.155 319.498 389.274ZM391.98 507.944C391.583 508.261 391.365 508.599 391.127 509.114C390.433 510.483 390.373 511.832 390.849 513.24L327.256 552.885C326.859 552.389 326.364 551.973 325.768 551.635C325.59 551.616 325.431 551.417 325.253 551.397L322.771 389.909C323.228 389.87 323.505 389.81 323.882 389.671L391.98 507.944ZM327.653 557.448C328.109 556.595 328.228 555.524 328.05 554.691L391.841 514.887C392.238 515.383 392.734 515.799 393.329 516.137C393.666 516.355 394.023 516.395 394.281 516.514L398.826 792.815C398.648 792.795 398.549 792.875 398.271 792.934L326.304 559.015C326.899 558.539 327.316 558.043 327.653 557.448ZM400.81 792.855L396.245 516.732C397.336 516.673 398.387 516.157 399.101 515.423L479.317 568.535C478.802 570.737 479.714 573.098 481.936 574.248L482.114 574.268L402.04 793.172C401.524 792.934 401.167 792.895 400.81 792.855ZM507.046 415.739L552.608 357.009C552.687 357.108 552.945 357.227 553.025 357.327C554.988 358.358 557.388 357.902 558.836 356.256L666.367 410.78C666.208 411.395 666.208 412.208 666.228 412.843L508.772 418.913C508.553 417.624 507.958 416.473 507.046 415.739ZM258.504 453.517C256.342 453.457 254.24 454.488 253.109 456.531C252.891 456.868 252.851 457.225 252.633 457.562L187.314 447.676C187.433 445.791 186.738 443.907 185.251 442.657L316.641 260.456L316.72 260.556L316.898 260.575L258.504 453.517ZM1144.68 -9.07736L857.481 103.379C857.322 103.181 857.243 103.082 857.084 102.883L932.161 9.48316C932.419 9.60221 932.499 9.70137 932.756 9.82042C936.684 11.8839 941.544 10.4364 943.606 6.50909C944.281 5.31899 944.519 3.98999 944.479 2.72046L1144.19 -11.1205C1144.3 -10.5651 1144.4 -9.83117 1144.68 -9.07736ZM930.693 8.05468L855.715 101.376C853.672 100.245 851.232 101.058 850.022 103.001L811.263 82.6049C812.096 80.7999 812.037 78.8956 811.323 77.1896L930.059 7.26116C930.118 7.53888 930.356 7.83644 930.693 8.05468ZM451.287 361.281L396.125 506.417C395.233 506.318 394.3 506.576 393.547 506.853L325.687 388.878C326.56 388.343 327.175 387.688 327.651 386.657C328.127 385.625 328.424 384.574 328.365 383.483L448.748 358.107C449.323 359.436 450.117 360.428 451.287 361.281ZM316.801 381.022C315.65 383.243 316.007 385.723 317.336 387.588L260.785 454.132C260.607 454.112 260.448 453.913 260.27 453.894L318.823 261.151L319.001 261.171L320.669 377.928C319.082 378.384 317.693 379.494 316.801 381.022ZM315.232 259.306L183.723 441.764C183.208 441.526 182.672 441.466 182.156 441.228L200.086 252.19C202.704 252.21 205.302 250.782 206.651 248.402C206.889 247.886 207.127 247.371 207.286 246.756L313.546 254.961C313.467 256.489 314.102 258.095 315.232 259.306ZM196.832 251.376C197.348 251.614 197.685 251.833 198.122 251.972L180.173 441.188C178.328 441.525 176.682 442.517 175.769 444.223L82.3422 398.588C83.4926 395.553 82.6991 392.121 80.418 389.879L196.158 250.94C196.416 251.059 196.575 251.257 196.832 251.376ZM71.1152 402.851C74.7848 404.796 79.1685 403.566 81.4297 400.294L175.115 446.048C175.075 446.405 175.035 446.762 174.996 447.119L-23.719 460.167C-23.8181 459.433 -24.0958 458.679 -24.4727 458.004L68.3976 400.47C69.1911 401.462 70.1035 402.196 71.1152 402.851ZM-24.4726 465.324C-23.8974 464.213 -23.5999 463.162 -23.5602 461.992L175.154 448.944C175.412 449.876 175.868 450.65 176.503 451.443L102.418 549.743C100.176 548.771 97.5976 549.207 95.8918 550.734L-24.79 465.74C-24.5917 465.582 -24.4925 465.502 -24.4726 465.324ZM105.373 558.115C106.385 556.33 106.246 554.326 105.353 552.6L253.764 462.839C253.922 463.037 254.16 463.335 254.418 463.454L140.385 672.436C138.996 671.92 137.469 671.84 135.902 672.118L102.557 560.693C103.787 560.197 104.699 559.305 105.373 558.115ZM144.848 676.186L321.425 559.014C321.504 559.113 321.762 559.232 321.841 559.332C322.178 559.55 322.714 559.609 323.15 559.748L307.621 719.865C304.725 719.905 302.027 721.412 300.639 724.149C300.42 724.486 300.282 724.923 300.143 725.359L145.721 681.343C145.919 679.558 145.582 677.713 144.848 676.186ZM314.722 731.59C316.785 727.662 315.337 722.802 311.409 720.739C310.814 720.401 310.12 720.144 309.406 720.064L324.856 560.661L396.486 793.549C395.534 793.985 394.641 794.699 393.927 795.433L314.167 732.522C314.385 732.185 314.682 731.947 314.722 731.59ZM724.128 359.371L759.315 271.203C760.347 271.679 761.497 271.897 762.588 271.838L807.875 366.879C807.18 367.435 806.565 368.089 806.129 368.764C805.673 369.617 805.574 370.509 805.475 371.402L727.202 364.231C727.143 362.327 726.092 360.403 724.128 359.371ZM813.786 366.543C812.417 365.849 810.989 365.69 809.68 366.086L764.612 271.521C766.119 270.965 767.408 269.934 768.123 268.387C768.242 268.129 768.261 267.951 768.38 267.693L1040.01 313.271C1040.07 313.548 1040.03 313.905 1040.09 314.183L816.84 370.768C816.404 369.003 815.412 367.356 813.786 366.543ZM1042.79 307.796L856.945 108.199C857.243 107.961 857.461 107.624 857.58 107.366C857.937 106.593 858.115 105.799 858.096 105.165L1145.4 -7.37133C1146.57 -4.89164 1148.51 -2.8681 1151.07 -1.49908C1151.58 -1.26098 1152.1 -1.02288 1152.54 -0.883967L1048.08 306.487C1046.22 306.19 1044.28 306.606 1042.79 307.796ZM284.512 722.898L246.586 715.335L179.144 692.833L284.512 722.898Z"/>
</mask>
<path d="M1163.35 -24.9838C1156.86 -28.4163 1148.91 -25.9576 1145.47 -19.4715C1144.44 -17.5079 1144.03 -15.3854 1143.97 -13.2232L944.261 0.617759C943.686 -1.52464 942.277 -3.48864 940.234 -4.61956C936.307 -6.68303 931.447 -5.23554 929.384 -1.30819C928.234 0.913336 928.234 3.35322 929.087 5.43614L810.251 75.4438C809.775 74.8487 809.101 74.4122 808.427 73.9757C805.273 72.2694 801.345 73.4591 799.719 76.7121C798.667 78.8543 798.767 81.2149 799.996 83.159L727.022 156.009C726.942 155.91 726.764 155.89 726.684 155.791C724.125 154.422 721.031 155.433 719.762 157.912C718.968 159.36 718.968 160.987 719.623 162.415L612.292 242.739C612.213 242.64 612.134 242.541 612.035 242.62C609.734 241.37 606.738 242.302 605.489 244.603C604.477 246.388 604.874 248.511 606.143 250.098L555.92 348.341C553.957 348.123 551.953 349.075 550.942 350.86C550.704 351.375 550.565 351.812 550.426 352.248L460.749 355.014C460.411 353.169 459.241 351.503 457.535 350.59C454.461 348.983 450.712 350.193 449.026 353.168C448.55 354.199 448.331 355.35 448.312 356.342L327.929 381.717C327.353 380.388 326.401 379.198 325.032 378.504C324.18 378.047 323.386 377.869 322.573 377.869L320.985 261.211C322.829 260.874 324.575 259.803 325.507 257.918C327.213 254.765 325.924 250.916 322.77 249.21C319.616 247.504 315.768 248.792 314.062 251.946C313.844 252.283 313.705 252.72 313.665 253.077L207.425 244.693C207.345 242.154 205.977 239.833 203.596 238.484C200.006 236.638 195.702 237.967 193.857 241.557C192.469 244.294 192.925 247.508 194.77 249.611L79.0096 388.729C78.9303 388.629 78.7518 388.61 78.6724 388.51C74.7449 386.447 69.8852 387.894 67.8223 391.822C66.6718 394.043 66.652 396.662 67.5843 398.844L-25.3852 456.457C-26.02 455.663 -26.8531 455.029 -27.7853 454.473C-31.7129 452.41 -36.5726 453.857 -38.6355 457.784C-40.6983 461.712 -39.2503 466.572 -35.3228 468.635C-32.1689 470.342 -28.3009 469.687 -25.8611 467.248L94.7215 552.321C94.6223 552.4 94.6223 552.4 94.6025 552.579C93.095 555.574 94.2257 559.224 97.1217 560.811C98.3119 561.486 99.5615 561.625 100.851 561.407L134.117 672.733C132.589 673.466 131.379 674.597 130.566 676.223C128.503 680.151 129.951 685.011 133.879 687.074C137.806 689.138 142.666 687.69 144.729 683.763C144.828 683.684 144.749 683.585 144.848 683.505L246.11 717.18L299.587 727.918C299.627 730.814 301.135 733.512 303.951 735C307.026 736.607 310.517 736.092 313.016 733.93L392.856 796.94L392.757 797.02C390.694 800.947 392.142 805.807 396.069 807.871C399.997 809.934 404.857 808.487 406.92 804.559C407.971 802.417 408.05 800.076 407.376 798.013L501.496 741.432C501.833 741.65 502.17 741.868 502.507 742.086C505.324 743.574 508.696 742.504 510.184 739.687C511.671 736.871 510.6 733.498 507.784 732.01C507.188 731.673 506.574 731.514 505.859 731.435L485.724 574.308C486.855 573.892 488.025 573.118 488.62 571.829C488.977 571.056 489.255 570.183 489.255 569.37L577.603 531.394C577.98 532.068 578.635 532.683 579.488 533.14C581.788 534.39 584.605 533.438 585.855 531.137C586.787 529.253 586.489 527.051 585.022 525.622L670.612 418.933C673.984 420.302 677.931 418.934 679.657 415.602C680.807 413.38 680.728 410.841 679.597 408.818L717.999 368.991C718.257 369.11 718.495 369.408 718.753 369.527C721.569 371.015 725.04 369.865 726.429 367.127C726.647 366.79 726.687 366.433 726.806 366.175L805.713 373.326C806.208 374.556 807.081 375.647 808.351 376.421C811.088 377.81 814.539 376.838 815.928 374.101C816.067 373.665 816.305 373.149 816.344 372.792L1040.25 316.008C1040.81 317.516 1041.94 318.726 1043.46 319.619C1046.88 321.444 1051.18 320.115 1053 316.704C1054.83 313.292 1053.5 308.988 1050.09 307.162C1050.01 307.063 1049.83 307.043 1049.75 306.944L1154.2 -0.427501C1159.94 0.842733 1166 -1.73529 1168.78 -7.20978C1172.37 -13.4975 1169.83 -21.5513 1163.35 -24.9838ZM678.506 407.25C677.931 406.735 677.435 406.318 676.761 405.881C675.908 405.425 675.035 405.147 674.142 405.048L661.148 248.716L717.721 360.104C717.225 360.501 716.808 360.997 716.471 361.592C715.44 363.555 715.658 365.658 716.729 367.404L678.506 407.25ZM583.494 524.729C582.205 524.134 580.836 524.253 579.686 524.848L506.967 424.586C507.562 424.11 507.978 423.614 508.335 422.841C508.772 422.166 508.851 421.452 508.93 420.738L666.664 414.608C667.16 415.838 667.934 417.009 669.104 417.862L583.494 524.729ZM577.563 526.871C577.107 527.724 576.988 528.795 577.067 529.708L488.997 567.624C488.481 566.572 487.767 565.68 486.656 565.104C486.399 564.985 486.22 564.965 486.141 564.866L502.722 426.192C503.714 426.212 504.547 426.034 505.4 425.677L578.198 526.038C577.901 526.276 577.682 526.613 577.563 526.871ZM500.186 734.509C499.175 736.294 499.393 738.396 500.385 740.043L406.562 796.387C405.868 795.315 404.876 794.482 403.766 793.907L483.959 574.745L504.035 731.593C502.368 731.95 501 732.882 500.186 734.509ZM550.585 354.073C550.704 354.629 551.001 355.204 551.219 355.68L505.459 414.569C503.495 413.537 501.294 413.834 499.568 414.726L458.963 360.509C459.459 360.112 459.975 359.537 460.233 358.843C460.669 358.168 460.749 357.454 460.828 356.74L550.585 354.073ZM607.75 251.09C610.071 252.161 612.788 251.289 614.038 248.988C614.375 248.393 614.554 247.599 614.534 246.965L655.475 245.284C655.515 245.74 655.733 246.216 655.951 246.692L558.34 347.707L607.75 251.09ZM719.127 165.252L661.445 240.345C659.363 239.571 656.923 240.384 655.892 242.348C655.673 242.685 655.634 243.042 655.515 243.3L614.217 244.941C614.078 244.564 613.939 244.187 613.701 243.89L719.127 165.252ZM801.087 84.7261C801.504 85.0436 801.92 85.3611 802.258 85.5793C804.995 86.9682 808.228 86.3338 810.093 84.1917L849.269 104.906C849.209 105.441 849.229 106.076 849.447 106.552L728.212 157.497L801.087 84.7261ZM1040.73 310.097C1040.59 310.533 1040.27 310.95 1040.13 311.386L768.757 265.927C768.956 263.329 767.706 260.75 765.226 259.48C765.226 259.48 765.226 259.48 765.147 259.381L852.284 109.488C853.335 109.786 854.248 109.707 855.2 109.27L1041.38 309.085C1041.16 309.422 1040.94 309.76 1040.73 310.097ZM850.439 108.199C850.518 108.298 850.677 108.496 850.756 108.595L763.402 258.825C762.073 258.587 760.704 258.706 759.553 259.301L726.843 164.935C727.617 164.479 728.331 163.745 728.787 162.892C729.461 161.702 729.521 160.353 729.204 159.143L850.439 108.199ZM721.666 165.173C722.697 165.649 723.848 165.867 724.959 165.629L757.887 260.471C757.292 260.947 756.856 261.621 756.419 262.296C756.201 262.633 755.963 263.149 755.923 263.506L664.282 244.094C664.123 243.083 663.865 242.15 663.132 241.436L721.666 165.173ZM719.268 359.192L662.695 247.804C663.092 247.486 663.508 246.991 663.747 246.475C663.766 246.296 663.866 246.217 663.985 245.959L755.705 265.47C755.785 267.195 756.499 268.901 757.808 270.131L722.382 358.815C721.232 358.597 720.22 358.756 719.268 359.192ZM657.756 248.339C658.272 248.577 658.708 248.716 659.244 248.775L672.218 405.286C670.096 405.682 668.152 406.912 667.021 408.955L559.828 354.65C560.463 353.003 559.947 351.139 558.916 349.849L657.34 248.021C657.419 248.12 657.677 248.239 657.756 248.339ZM484.177 564.648C482.63 564.747 481.103 565.481 480.15 566.73L400.35 513.936C401.263 512.23 401.025 510.306 400.013 508.838L498.556 424.645C498.973 424.962 499.389 425.279 499.806 425.597C500.064 425.716 500.322 425.835 500.679 425.875L484.177 564.648ZM142.111 673.17L255.926 464.525C257.394 465.141 258.842 465.121 260.151 464.724L320.79 552.528C320.393 552.845 320.175 553.182 319.937 553.698C319.243 555.066 319.342 556.614 320.016 557.863L143.638 674.876C143.182 674.103 142.686 673.686 142.111 673.17ZM457.297 361.679L498.06 416.095C497.743 416.512 497.525 416.849 497.207 417.265C496.176 419.229 496.295 421.411 497.366 423.157L398.724 507.429C398.466 507.31 398.307 507.112 398.129 507.092L398.049 506.993L453.092 362.115C454.5 362.452 455.968 362.254 457.297 361.679ZM104.262 551.033C104.183 550.934 104.183 550.934 104.104 550.835L178.09 452.614C178.169 452.713 178.249 452.812 178.427 452.832C181.502 454.439 185.251 453.23 186.857 450.155C186.976 449.897 186.996 449.719 187.115 449.461L252.613 459.368C252.633 460.002 252.752 460.558 252.97 461.034L104.262 551.033ZM319.498 389.274C320.014 389.512 320.451 389.651 320.887 389.79L323.388 551.1C323.11 551.159 322.833 551.219 322.555 551.278L261.995 463.574C262.591 463.098 263.106 462.523 263.463 461.749C264.614 459.528 264.177 456.949 262.571 455.144L319.022 388.679C318.983 389.036 319.241 389.155 319.498 389.274ZM391.98 507.944C391.583 508.261 391.365 508.599 391.127 509.114C390.433 510.483 390.373 511.832 390.849 513.24L327.256 552.885C326.859 552.389 326.364 551.973 325.768 551.635C325.59 551.616 325.431 551.417 325.253 551.397L322.771 389.909C323.228 389.87 323.505 389.81 323.882 389.671L391.98 507.944ZM327.653 557.448C328.109 556.595 328.228 555.524 328.05 554.691L391.841 514.887C392.238 515.383 392.734 515.799 393.329 516.137C393.666 516.355 394.023 516.395 394.281 516.514L398.826 792.815C398.648 792.795 398.549 792.875 398.271 792.934L326.304 559.015C326.899 558.539 327.316 558.043 327.653 557.448ZM400.81 792.855L396.245 516.732C397.336 516.673 398.387 516.157 399.101 515.423L479.317 568.535C478.802 570.737 479.714 573.098 481.936 574.248L482.114 574.268L402.04 793.172C401.524 792.934 401.167 792.895 400.81 792.855ZM507.046 415.739L552.608 357.009C552.687 357.108 552.945 357.227 553.025 357.327C554.988 358.358 557.388 357.902 558.836 356.256L666.367 410.78C666.208 411.395 666.208 412.208 666.228 412.843L508.772 418.913C508.553 417.624 507.958 416.473 507.046 415.739ZM258.504 453.517C256.342 453.457 254.24 454.488 253.109 456.531C252.891 456.868 252.851 457.225 252.633 457.562L187.314 447.676C187.433 445.791 186.738 443.907 185.251 442.657L316.641 260.456L316.72 260.556L316.898 260.575L258.504 453.517ZM1144.68 -9.07736L857.481 103.379C857.322 103.181 857.243 103.082 857.084 102.883L932.161 9.48316C932.419 9.60221 932.499 9.70137 932.756 9.82042C936.684 11.8839 941.544 10.4364 943.606 6.50909C944.281 5.31899 944.519 3.98999 944.479 2.72046L1144.19 -11.1205C1144.3 -10.5651 1144.4 -9.83117 1144.68 -9.07736ZM930.693 8.05468L855.715 101.376C853.672 100.245 851.232 101.058 850.022 103.001L811.263 82.6049C812.096 80.7999 812.037 78.8956 811.323 77.1896L930.059 7.26116C930.118 7.53888 930.356 7.83644 930.693 8.05468ZM451.287 361.281L396.125 506.417C395.233 506.318 394.3 506.576 393.547 506.853L325.687 388.878C326.56 388.343 327.175 387.688 327.651 386.657C328.127 385.625 328.424 384.574 328.365 383.483L448.748 358.107C449.323 359.436 450.117 360.428 451.287 361.281ZM316.801 381.022C315.65 383.243 316.007 385.723 317.336 387.588L260.785 454.132C260.607 454.112 260.448 453.913 260.27 453.894L318.823 261.151L319.001 261.171L320.669 377.928C319.082 378.384 317.693 379.494 316.801 381.022ZM315.232 259.306L183.723 441.764C183.208 441.526 182.672 441.466 182.156 441.228L200.086 252.19C202.704 252.21 205.302 250.782 206.651 248.402C206.889 247.886 207.127 247.371 207.286 246.756L313.546 254.961C313.467 256.489 314.102 258.095 315.232 259.306ZM196.832 251.376C197.348 251.614 197.685 251.833 198.122 251.972L180.173 441.188C178.328 441.525 176.682 442.517 175.769 444.223L82.3422 398.588C83.4926 395.553 82.6991 392.121 80.418 389.879L196.158 250.94C196.416 251.059 196.575 251.257 196.832 251.376ZM71.1152 402.851C74.7848 404.796 79.1685 403.566 81.4297 400.294L175.115 446.048C175.075 446.405 175.035 446.762 174.996 447.119L-23.719 460.167C-23.8181 459.433 -24.0958 458.679 -24.4727 458.004L68.3976 400.47C69.1911 401.462 70.1035 402.196 71.1152 402.851ZM-24.4726 465.324C-23.8974 464.213 -23.5999 463.162 -23.5602 461.992L175.154 448.944C175.412 449.876 175.868 450.65 176.503 451.443L102.418 549.743C100.176 548.771 97.5976 549.207 95.8918 550.734L-24.79 465.74C-24.5917 465.582 -24.4925 465.502 -24.4726 465.324ZM105.373 558.115C106.385 556.33 106.246 554.326 105.353 552.6L253.764 462.839C253.922 463.037 254.16 463.335 254.418 463.454L140.385 672.436C138.996 671.92 137.469 671.84 135.902 672.118L102.557 560.693C103.787 560.197 104.699 559.305 105.373 558.115ZM144.848 676.186L321.425 559.014C321.504 559.113 321.762 559.232 321.841 559.332C322.178 559.55 322.714 559.609 323.15 559.748L307.621 719.865C304.725 719.905 302.027 721.412 300.639 724.149C300.42 724.486 300.282 724.923 300.143 725.359L145.721 681.343C145.919 679.558 145.582 677.713 144.848 676.186ZM314.722 731.59C316.785 727.662 315.337 722.802 311.409 720.739C310.814 720.401 310.12 720.144 309.406 720.064L324.856 560.661L396.486 793.549C395.534 793.985 394.641 794.699 393.927 795.433L314.167 732.522C314.385 732.185 314.682 731.947 314.722 731.59ZM724.128 359.371L759.315 271.203C760.347 271.679 761.497 271.897 762.588 271.838L807.875 366.879C807.18 367.435 806.565 368.089 806.129 368.764C805.673 369.617 805.574 370.509 805.475 371.402L727.202 364.231C727.143 362.327 726.092 360.403 724.128 359.371ZM813.786 366.543C812.417 365.849 810.989 365.69 809.68 366.086L764.612 271.521C766.119 270.965 767.408 269.934 768.123 268.387C768.242 268.129 768.261 267.951 768.38 267.693L1040.01 313.271C1040.07 313.548 1040.03 313.905 1040.09 314.183L816.84 370.768C816.404 369.003 815.412 367.356 813.786 366.543ZM1042.79 307.796L856.945 108.199C857.243 107.961 857.461 107.624 857.58 107.366C857.937 106.593 858.115 105.799 858.096 105.165L1145.4 -7.37133C1146.57 -4.89164 1148.51 -2.8681 1151.07 -1.49908C1151.58 -1.26098 1152.1 -1.02288 1152.54 -0.883967L1048.08 306.487C1046.22 306.19 1044.28 306.606 1042.79 307.796ZM284.512 722.898L246.586 715.335L179.144 692.833L284.512 722.898Z" fill="white"/>
<path d="M1163.35 -24.9838C1156.86 -28.4163 1148.91 -25.9576 1145.47 -19.4715C1144.44 -17.5079 1144.03 -15.3854 1143.97 -13.2232L944.261 0.617759C943.686 -1.52464 942.277 -3.48864 940.234 -4.61956C936.307 -6.68303 931.447 -5.23554 929.384 -1.30819C928.234 0.913336 928.234 3.35322 929.087 5.43614L810.251 75.4438C809.775 74.8487 809.101 74.4122 808.427 73.9757C805.273 72.2694 801.345 73.4591 799.719 76.7121C798.667 78.8543 798.767 81.2149 799.996 83.159L727.022 156.009C726.942 155.91 726.764 155.89 726.684 155.791C724.125 154.422 721.031 155.433 719.762 157.912C718.968 159.36 718.968 160.987 719.623 162.415L612.292 242.739C612.213 242.64 612.134 242.541 612.035 242.62C609.734 241.37 606.738 242.302 605.489 244.603C604.477 246.388 604.874 248.511 606.143 250.098L555.92 348.341C553.957 348.123 551.953 349.075 550.942 350.86C550.704 351.375 550.565 351.812 550.426 352.248L460.749 355.014C460.411 353.169 459.241 351.503 457.535 350.59C454.461 348.983 450.712 350.193 449.026 353.168C448.55 354.199 448.331 355.35 448.312 356.342L327.929 381.717C327.353 380.388 326.401 379.198 325.032 378.504C324.18 378.047 323.386 377.869 322.573 377.869L320.985 261.211C322.829 260.874 324.575 259.803 325.507 257.918C327.213 254.765 325.924 250.916 322.77 249.21C319.616 247.504 315.768 248.792 314.062 251.946C313.844 252.283 313.705 252.72 313.665 253.077L207.425 244.693C207.345 242.154 205.977 239.833 203.596 238.484C200.006 236.638 195.702 237.967 193.857 241.557C192.469 244.294 192.925 247.508 194.77 249.611L79.0096 388.729C78.9303 388.629 78.7518 388.61 78.6724 388.51C74.7449 386.447 69.8852 387.894 67.8223 391.822C66.6718 394.043 66.652 396.662 67.5843 398.844L-25.3852 456.457C-26.02 455.663 -26.8531 455.029 -27.7853 454.473C-31.7129 452.41 -36.5726 453.857 -38.6355 457.784C-40.6983 461.712 -39.2503 466.572 -35.3228 468.635C-32.1689 470.342 -28.3009 469.687 -25.8611 467.248L94.7215 552.321C94.6223 552.4 94.6223 552.4 94.6025 552.579C93.095 555.574 94.2257 559.224 97.1217 560.811C98.3119 561.486 99.5615 561.625 100.851 561.407L134.117 672.733C132.589 673.466 131.379 674.597 130.566 676.223C128.503 680.151 129.951 685.011 133.879 687.074C137.806 689.138 142.666 687.69 144.729 683.763C144.828 683.684 144.749 683.585 144.848 683.505L246.11 717.18L299.587 727.918C299.627 730.814 301.135 733.512 303.951 735C307.026 736.607 310.517 736.092 313.016 733.93L392.856 796.94L392.757 797.02C390.694 800.947 392.142 805.807 396.069 807.871C399.997 809.934 404.857 808.487 406.92 804.559C407.971 802.417 408.05 800.076 407.376 798.013L501.496 741.432C501.833 741.65 502.17 741.868 502.507 742.086C505.324 743.574 508.696 742.504 510.184 739.687C511.671 736.871 510.6 733.498 507.784 732.01C507.188 731.673 506.574 731.514 505.859 731.435L485.724 574.308C486.855 573.892 488.025 573.118 488.62 571.829C488.977 571.056 489.255 570.183 489.255 569.37L577.603 531.394C577.98 532.068 578.635 532.683 579.488 533.14C581.788 534.39 584.605 533.438 585.855 531.137C586.787 529.253 586.489 527.051 585.022 525.622L670.612 418.933C673.984 420.302 677.931 418.934 679.657 415.602C680.807 413.38 680.728 410.841 679.597 408.818L717.999 368.991C718.257 369.11 718.495 369.408 718.753 369.527C721.569 371.015 725.04 369.865 726.429 367.127C726.647 366.79 726.687 366.433 726.806 366.175L805.713 373.326C806.208 374.556 807.081 375.647 808.351 376.421C811.088 377.81 814.539 376.838 815.928 374.101C816.067 373.665 816.305 373.149 816.344 372.792L1040.25 316.008C1040.81 317.516 1041.94 318.726 1043.46 319.619C1046.88 321.444 1051.18 320.115 1053 316.704C1054.83 313.292 1053.5 308.988 1050.09 307.162C1050.01 307.063 1049.83 307.043 1049.75 306.944L1154.2 -0.427501C1159.94 0.842733 1166 -1.73529 1168.78 -7.20978C1172.37 -13.4975 1169.83 -21.5513 1163.35 -24.9838ZM678.506 407.25C677.931 406.735 677.435 406.318 676.761 405.881C675.908 405.425 675.035 405.147 674.142 405.048L661.148 248.716L717.721 360.104C717.225 360.501 716.808 360.997 716.471 361.592C715.44 363.555 715.658 365.658 716.729 367.404L678.506 407.25ZM583.494 524.729C582.205 524.134 580.836 524.253 579.686 524.848L506.967 424.586C507.562 424.11 507.978 423.614 508.335 422.841C508.772 422.166 508.851 421.452 508.93 420.738L666.664 414.608C667.16 415.838 667.934 417.009 669.104 417.862L583.494 524.729ZM577.563 526.871C577.107 527.724 576.988 528.795 577.067 529.708L488.997 567.624C488.481 566.572 487.767 565.68 486.656 565.104C486.399 564.985 486.22 564.965 486.141 564.866L502.722 426.192C503.714 426.212 504.547 426.034 505.4 425.677L578.198 526.038C577.901 526.276 577.682 526.613 577.563 526.871ZM500.186 734.509C499.175 736.294 499.393 738.396 500.385 740.043L406.562 796.387C405.868 795.315 404.876 794.482 403.766 793.907L483.959 574.745L504.035 731.593C502.368 731.95 501 732.882 500.186 734.509ZM550.585 354.073C550.704 354.629 551.001 355.204 551.219 355.68L505.459 414.569C503.495 413.537 501.294 413.834 499.568 414.726L458.963 360.509C459.459 360.112 459.975 359.537 460.233 358.843C460.669 358.168 460.749 357.454 460.828 356.74L550.585 354.073ZM607.75 251.09C610.071 252.161 612.788 251.289 614.038 248.988C614.375 248.393 614.554 247.599 614.534 246.965L655.475 245.284C655.515 245.74 655.733 246.216 655.951 246.692L558.34 347.707L607.75 251.09ZM719.127 165.252L661.445 240.345C659.363 239.571 656.923 240.384 655.892 242.348C655.673 242.685 655.634 243.042 655.515 243.3L614.217 244.941C614.078 244.564 613.939 244.187 613.701 243.89L719.127 165.252ZM801.087 84.7261C801.504 85.0436 801.92 85.3611 802.258 85.5793C804.995 86.9682 808.228 86.3338 810.093 84.1917L849.269 104.906C849.209 105.441 849.229 106.076 849.447 106.552L728.212 157.497L801.087 84.7261ZM1040.73 310.097C1040.59 310.533 1040.27 310.95 1040.13 311.386L768.757 265.927C768.956 263.329 767.706 260.75 765.226 259.48C765.226 259.48 765.226 259.48 765.147 259.381L852.284 109.488C853.335 109.786 854.248 109.707 855.2 109.27L1041.38 309.085C1041.16 309.422 1040.94 309.76 1040.73 310.097ZM850.439 108.199C850.518 108.298 850.677 108.496 850.756 108.595L763.402 258.825C762.073 258.587 760.704 258.706 759.553 259.301L726.843 164.935C727.617 164.479 728.331 163.745 728.787 162.892C729.461 161.702 729.521 160.353 729.204 159.143L850.439 108.199ZM721.666 165.173C722.697 165.649 723.848 165.867 724.959 165.629L757.887 260.471C757.292 260.947 756.856 261.621 756.419 262.296C756.201 262.633 755.963 263.149 755.923 263.506L664.282 244.094C664.123 243.083 663.865 242.15 663.132 241.436L721.666 165.173ZM719.268 359.192L662.695 247.804C663.092 247.486 663.508 246.991 663.747 246.475C663.766 246.296 663.866 246.217 663.985 245.959L755.705 265.47C755.785 267.195 756.499 268.901 757.808 270.131L722.382 358.815C721.232 358.597 720.22 358.756 719.268 359.192ZM657.756 248.339C658.272 248.577 658.708 248.716 659.244 248.775L672.218 405.286C670.096 405.682 668.152 406.912 667.021 408.955L559.828 354.65C560.463 353.003 559.947 351.139 558.916 349.849L657.34 248.021C657.419 248.12 657.677 248.239 657.756 248.339ZM484.177 564.648C482.63 564.747 481.103 565.481 480.15 566.73L400.35 513.936C401.263 512.23 401.025 510.306 400.013 508.838L498.556 424.645C498.973 424.962 499.389 425.279 499.806 425.597C500.064 425.716 500.322 425.835 500.679 425.875L484.177 564.648ZM142.111 673.17L255.926 464.525C257.394 465.141 258.842 465.121 260.151 464.724L320.79 552.528C320.393 552.845 320.175 553.182 319.937 553.698C319.243 555.066 319.342 556.614 320.016 557.863L143.638 674.876C143.182 674.103 142.686 673.686 142.111 673.17ZM457.297 361.679L498.06 416.095C497.743 416.512 497.525 416.849 497.207 417.265C496.176 419.229 496.295 421.411 497.366 423.157L398.724 507.429C398.466 507.31 398.307 507.112 398.129 507.092L398.049 506.993L453.092 362.115C454.5 362.452 455.968 362.254 457.297 361.679ZM104.262 551.033C104.183 550.934 104.183 550.934 104.104 550.835L178.09 452.614C178.169 452.713 178.249 452.812 178.427 452.832C181.502 454.439 185.251 453.23 186.857 450.155C186.976 449.897 186.996 449.719 187.115 449.461L252.613 459.368C252.633 460.002 252.752 460.558 252.97 461.034L104.262 551.033ZM319.498 389.274C320.014 389.512 320.451 389.651 320.887 389.79L323.388 551.1C323.11 551.159 322.833 551.219 322.555 551.278L261.995 463.574C262.591 463.098 263.106 462.523 263.463 461.749C264.614 459.528 264.177 456.949 262.571 455.144L319.022 388.679C318.983 389.036 319.241 389.155 319.498 389.274ZM391.98 507.944C391.583 508.261 391.365 508.599 391.127 509.114C390.433 510.483 390.373 511.832 390.849 513.24L327.256 552.885C326.859 552.389 326.364 551.973 325.768 551.635C325.59 551.616 325.431 551.417 325.253 551.397L322.771 389.909C323.228 389.87 323.505 389.81 323.882 389.671L391.98 507.944ZM327.653 557.448C328.109 556.595 328.228 555.524 328.05 554.691L391.841 514.887C392.238 515.383 392.734 515.799 393.329 516.137C393.666 516.355 394.023 516.395 394.281 516.514L398.826 792.815C398.648 792.795 398.549 792.875 398.271 792.934L326.304 559.015C326.899 558.539 327.316 558.043 327.653 557.448ZM400.81 792.855L396.245 516.732C397.336 516.673 398.387 516.157 399.101 515.423L479.317 568.535C478.802 570.737 479.714 573.098 481.936 574.248L482.114 574.268L402.04 793.172C401.524 792.934 401.167 792.895 400.81 792.855ZM507.046 415.739L552.608 357.009C552.687 357.108 552.945 357.227 553.025 357.327C554.988 358.358 557.388 357.902 558.836 356.256L666.367 410.78C666.208 411.395 666.208 412.208 666.228 412.843L508.772 418.913C508.553 417.624 507.958 416.473 507.046 415.739ZM258.504 453.517C256.342 453.457 254.24 454.488 253.109 456.531C252.891 456.868 252.851 457.225 252.633 457.562L187.314 447.676C187.433 445.791 186.738 443.907 185.251 442.657L316.641 260.456L316.72 260.556L316.898 260.575L258.504 453.517ZM1144.68 -9.07736L857.481 103.379C857.322 103.181 857.243 103.082 857.084 102.883L932.161 9.48316C932.419 9.60221 932.499 9.70137 932.756 9.82042C936.684 11.8839 941.544 10.4364 943.606 6.50909C944.281 5.31899 944.519 3.98999 944.479 2.72046L1144.19 -11.1205C1144.3 -10.5651 1144.4 -9.83117 1144.68 -9.07736ZM930.693 8.05468L855.715 101.376C853.672 100.245 851.232 101.058 850.022 103.001L811.263 82.6049C812.096 80.7999 812.037 78.8956 811.323 77.1896L930.059 7.26116C930.118 7.53888 930.356 7.83644 930.693 8.05468ZM451.287 361.281L396.125 506.417C395.233 506.318 394.3 506.576 393.547 506.853L325.687 388.878C326.56 388.343 327.175 387.688 327.651 386.657C328.127 385.625 328.424 384.574 328.365 383.483L448.748 358.107C449.323 359.436 450.117 360.428 451.287 361.281ZM316.801 381.022C315.65 383.243 316.007 385.723 317.336 387.588L260.785 454.132C260.607 454.112 260.448 453.913 260.27 453.894L318.823 261.151L319.001 261.171L320.669 377.928C319.082 378.384 317.693 379.494 316.801 381.022ZM315.232 259.306L183.723 441.764C183.208 441.526 182.672 441.466 182.156 441.228L200.086 252.19C202.704 252.21 205.302 250.782 206.651 248.402C206.889 247.886 207.127 247.371 207.286 246.756L313.546 254.961C313.467 256.489 314.102 258.095 315.232 259.306ZM196.832 251.376C197.348 251.614 197.685 251.833 198.122 251.972L180.173 441.188C178.328 441.525 176.682 442.517 175.769 444.223L82.3422 398.588C83.4926 395.553 82.6991 392.121 80.418 389.879L196.158 250.94C196.416 251.059 196.575 251.257 196.832 251.376ZM71.1152 402.851C74.7848 404.796 79.1685 403.566 81.4297 400.294L175.115 446.048C175.075 446.405 175.035 446.762 174.996 447.119L-23.719 460.167C-23.8181 459.433 -24.0958 458.679 -24.4727 458.004L68.3976 400.47C69.1911 401.462 70.1035 402.196 71.1152 402.851ZM-24.4726 465.324C-23.8974 464.213 -23.5999 463.162 -23.5602 461.992L175.154 448.944C175.412 449.876 175.868 450.65 176.503 451.443L102.418 549.743C100.176 548.771 97.5976 549.207 95.8918 550.734L-24.79 465.74C-24.5917 465.582 -24.4925 465.502 -24.4726 465.324ZM105.373 558.115C106.385 556.33 106.246 554.326 105.353 552.6L253.764 462.839C253.922 463.037 254.16 463.335 254.418 463.454L140.385 672.436C138.996 671.92 137.469 671.84 135.902 672.118L102.557 560.693C103.787 560.197 104.699 559.305 105.373 558.115ZM144.848 676.186L321.425 559.014C321.504 559.113 321.762 559.232 321.841 559.332C322.178 559.55 322.714 559.609 323.15 559.748L307.621 719.865C304.725 719.905 302.027 721.412 300.639 724.149C300.42 724.486 300.282 724.923 300.143 725.359L145.721 681.343C145.919 679.558 145.582 677.713 144.848 676.186ZM314.722 731.59C316.785 727.662 315.337 722.802 311.409 720.739C310.814 720.401 310.12 720.144 309.406 720.064L324.856 560.661L396.486 793.549C395.534 793.985 394.641 794.699 393.927 795.433L314.167 732.522C314.385 732.185 314.682 731.947 314.722 731.59ZM724.128 359.371L759.315 271.203C760.347 271.679 761.497 271.897 762.588 271.838L807.875 366.879C807.18 367.435 806.565 368.089 806.129 368.764C805.673 369.617 805.574 370.509 805.475 371.402L727.202 364.231C727.143 362.327 726.092 360.403 724.128 359.371ZM813.786 366.543C812.417 365.849 810.989 365.69 809.68 366.086L764.612 271.521C766.119 270.965 767.408 269.934 768.123 268.387C768.242 268.129 768.261 267.951 768.38 267.693L1040.01 313.271C1040.07 313.548 1040.03 313.905 1040.09 314.183L816.84 370.768C816.404 369.003 815.412 367.356 813.786 366.543ZM1042.79 307.796L856.945 108.199C857.243 107.961 857.461 107.624 857.58 107.366C857.937 106.593 858.115 105.799 858.096 105.165L1145.4 -7.37133C1146.57 -4.89164 1148.51 -2.8681 1151.07 -1.49908C1151.58 -1.26098 1152.1 -1.02288 1152.54 -0.883967L1048.08 306.487C1046.22 306.19 1044.28 306.606 1042.79 307.796ZM284.512 722.898L246.586 715.335L179.144 692.833L284.512 722.898Z" stroke="white" stroke-width="0.574993" mask="url(#path-2-outside-1)"/>
</g>
</g>
</svg>
