<svg width="360" height="150" viewBox="0 0 360 150" fill="none" xmlns="http://www.w3.org/2000/svg">
<mask id="mask0" mask-type="alpha" maskUnits="userSpaceOnUse" x="0" y="0" width="360" height="150">
<rect width="360" height="150" fill="#C4C4C4"/>
</mask>
<g mask="url(#mask0)">
<g opacity="0.1">
<mask id="path-2-outside-1" maskUnits="userSpaceOnUse" x="10.5944" y="-198.238" width="587.221" height="542.845" fill="black">
<rect fill="white" x="10.5944" y="-198.238" width="587.221" height="542.845"/>
<path d="M542.919 -61.8909C540.106 -63.3794 536.657 -62.3131 535.169 -59.5005C534.721 -58.6489 534.541 -57.7285 534.515 -56.7909L447.913 -50.7888C447.663 -51.7178 447.052 -52.5695 446.166 -53.0599C444.463 -53.9548 442.356 -53.327 441.461 -51.624C440.962 -50.6606 440.962 -49.6025 441.332 -48.6993L389.8 -18.3405C389.593 -18.5986 389.301 -18.7879 389.008 -18.9772C387.641 -19.7171 385.937 -19.2012 385.232 -17.7906C384.776 -16.8616 384.819 -15.8379 385.352 -14.9949L353.707 16.5964C353.673 16.5534 353.595 16.5448 353.561 16.5018C352.451 15.9081 351.109 16.3466 350.559 17.4218C350.215 18.0497 350.215 18.7551 350.499 19.3745L303.955 54.2069C303.921 54.1639 303.886 54.1209 303.843 54.1553C302.845 53.6132 301.546 54.0174 301.004 55.0151C300.566 55.7893 300.738 56.7097 301.288 57.3979L279.509 100.001C278.658 99.9063 277.789 100.319 277.35 101.093C277.247 101.317 277.187 101.506 277.127 101.695L238.238 102.895C238.092 102.095 237.584 101.372 236.845 100.976C235.511 100.279 233.886 100.804 233.154 102.094C232.948 102.541 232.853 103.04 232.845 103.47L180.641 114.475C180.391 113.898 179.978 113.382 179.385 113.081C179.015 112.883 178.671 112.806 178.318 112.806L177.63 62.217C178.43 62.0709 179.186 61.6065 179.591 60.7893C180.331 59.4217 179.771 57.7528 178.404 57.0129C177.036 56.2729 175.367 56.8319 174.628 58.1995C174.533 58.3457 174.473 58.535 174.456 58.6898L128.384 55.0541C128.35 53.953 127.757 52.9465 126.724 52.3614C125.167 51.5612 123.301 52.1373 122.501 53.6942C121.899 54.8812 122.097 56.2748 122.897 57.1867L72.6974 117.515C72.663 117.472 72.5856 117.463 72.5512 117.42C70.848 116.526 68.7406 117.153 67.8461 118.856C67.3472 119.82 67.3386 120.955 67.7429 121.901L27.4267 146.885C27.1515 146.541 26.7902 146.266 26.3859 146.025C24.6828 145.13 22.5753 145.758 21.6808 147.461C20.7862 149.164 21.4142 151.272 23.1173 152.166C24.485 152.906 26.1624 152.623 27.2204 151.565L79.5109 188.457C79.4679 188.491 79.4679 188.491 79.4593 188.569C78.8055 189.867 79.2959 191.45 80.5517 192.139C81.0678 192.431 81.6097 192.491 82.1689 192.397L96.5946 240.673C95.9322 240.991 95.4075 241.482 95.0549 242.187C94.1603 243.89 94.7883 245.997 96.4914 246.892C98.1946 247.787 100.302 247.159 101.197 245.456C101.24 245.422 101.205 245.379 101.248 245.345L145.16 259.948L168.351 264.604C168.368 265.86 169.022 267.03 170.243 267.675C171.576 268.372 173.09 268.149 174.174 267.211L208.796 294.536L208.753 294.57C207.859 296.273 208.487 298.381 210.19 299.275C211.893 300.17 214.001 299.543 214.895 297.839C215.351 296.91 215.385 295.895 215.093 295.001L255.908 270.464C256.054 270.559 256.2 270.654 256.347 270.748C257.568 271.394 259.03 270.929 259.676 269.708C260.321 268.486 259.856 267.024 258.635 266.379C258.377 266.232 258.11 266.164 257.8 266.129L249.069 197.991C249.559 197.811 250.067 197.475 250.325 196.916C250.479 196.581 250.6 196.202 250.6 195.85L288.912 179.382C289.075 179.674 289.359 179.941 289.729 180.139C290.727 180.681 291.948 180.268 292.49 179.27C292.894 178.453 292.765 177.498 292.129 176.879L329.245 130.613C330.707 131.207 332.419 130.614 333.167 129.168C333.666 128.205 333.632 127.104 333.141 126.227L349.794 108.956C349.906 109.007 350.009 109.136 350.121 109.188C351.343 109.833 352.848 109.335 353.45 108.148C353.545 108.001 353.562 107.847 353.613 107.735L387.831 110.836C388.046 111.369 388.425 111.842 388.975 112.178C390.162 112.78 391.659 112.359 392.261 111.172C392.321 110.983 392.425 110.759 392.442 110.604L489.538 85.9798C489.779 86.6336 490.269 87.1584 490.932 87.5456C492.411 88.3371 494.278 87.761 495.069 86.2816C495.86 84.8021 495.284 82.9354 493.805 82.1438C493.77 82.1008 493.693 82.0922 493.658 82.0492L538.954 -51.242C541.44 -50.6912 544.072 -51.8092 545.276 -54.1832C546.833 -56.9098 545.732 -60.4024 542.919 -61.8909ZM332.668 125.547C332.419 125.323 332.204 125.143 331.911 124.953C331.542 124.755 331.163 124.635 330.776 124.592L325.141 56.7987L349.674 105.102C349.459 105.274 349.278 105.489 349.132 105.747C348.685 106.599 348.779 107.511 349.244 108.268L332.668 125.547ZM291.467 176.492C290.907 176.234 290.314 176.285 289.815 176.543L258.28 133.065C258.539 132.858 258.719 132.643 258.874 132.308C259.063 132.015 259.098 131.706 259.132 131.396L327.533 128.738C327.748 129.271 328.084 129.779 328.591 130.149L291.467 176.492ZM288.895 177.42C288.697 177.79 288.645 178.255 288.68 178.65L250.488 195.093C250.264 194.637 249.955 194.25 249.473 194C249.361 193.949 249.284 193.94 249.249 193.897L256.44 133.761C256.87 133.77 257.231 133.692 257.601 133.538L289.17 177.059C289.041 177.162 288.946 177.309 288.895 177.42ZM255.34 267.462C254.902 268.236 254.996 269.148 255.426 269.862L214.74 294.295C214.439 293.831 214.009 293.47 213.527 293.22L248.303 198.181L257.009 266.198C256.286 266.353 255.693 266.757 255.34 267.462ZM277.195 102.487C277.247 102.728 277.376 102.977 277.471 103.184L257.627 128.72C256.775 128.273 255.82 128.402 255.072 128.789L237.464 105.277C237.679 105.105 237.903 104.856 238.014 104.555C238.204 104.263 238.238 103.953 238.272 103.643L277.195 102.487ZM301.985 57.8281C302.992 58.2928 304.17 57.9144 304.712 56.9166C304.858 56.6586 304.936 56.3145 304.927 56.0392L322.681 55.3103C322.698 55.5081 322.793 55.7146 322.887 55.921L280.559 99.7259L301.985 57.8281ZM350.284 20.6045L325.27 53.1687C324.367 52.8331 323.309 53.1856 322.862 54.0372C322.767 54.1834 322.75 54.3383 322.698 54.4501L304.789 55.1618C304.729 54.9984 304.669 54.8349 304.566 54.7059L350.284 20.6045ZM385.826 -14.3153C386.006 -14.1776 386.187 -14.0399 386.333 -13.9453C387.52 -13.343 388.922 -13.6181 389.731 -14.5471L406.719 -5.56445C406.694 -5.3322 406.702 -5.05693 406.797 -4.85047L354.223 17.2416L385.826 -14.3153ZM489.745 83.4165C489.684 83.6057 489.547 83.7863 489.487 83.9756L371.806 64.2624C371.892 63.1356 371.35 62.0172 370.275 61.4666C370.275 61.4666 370.275 61.4666 370.24 61.4236L408.027 -3.57721C408.483 -3.44813 408.878 -3.4825 409.291 -3.6717L490.028 82.9778C489.934 83.124 489.839 83.2702 489.745 83.4165ZM407.227 -4.13645C407.261 -4.09344 407.33 -4.0074 407.365 -3.96439L369.483 61.1826C368.907 61.0793 368.313 61.1309 367.814 61.3889L353.63 20.4673C353.965 20.2695 354.275 19.9513 354.473 19.5814C354.765 19.0653 354.791 18.4804 354.653 17.9556L407.227 -4.13645ZM351.385 20.5703C351.832 20.7768 352.331 20.8714 352.812 20.7683L367.092 61.8963C366.834 62.1027 366.645 62.3951 366.455 62.6876C366.361 62.8338 366.258 63.0575 366.24 63.2123L326.5 54.7946C326.431 54.3559 326.319 53.9516 326.001 53.6419L351.385 20.5703ZM350.345 104.706L325.812 56.4031C325.984 56.2655 326.165 56.0505 326.268 55.8268C326.276 55.7494 326.319 55.715 326.371 55.6032L366.146 64.0639C366.18 64.8123 366.49 65.5521 367.058 66.0855L351.695 104.543C351.196 104.449 350.758 104.517 350.345 104.706ZM323.67 56.6351C323.894 56.7384 324.083 56.7986 324.315 56.8244L329.942 124.695C329.021 124.867 328.178 125.4 327.688 126.286L281.204 102.737C281.479 102.023 281.255 101.214 280.808 100.655L323.49 56.4975C323.524 56.5405 323.636 56.5921 323.67 56.6351ZM248.398 193.802C247.727 193.845 247.065 194.163 246.652 194.705L212.047 171.811C212.442 171.071 212.339 170.237 211.9 169.6L254.633 133.09C254.814 133.228 254.995 133.365 255.175 133.503C255.287 133.555 255.399 133.606 255.554 133.623L248.398 193.802ZM100.061 240.863L149.417 150.384C150.053 150.651 150.681 150.642 151.249 150.47L177.545 188.546C177.373 188.684 177.278 188.83 177.175 189.054C176.874 189.647 176.917 190.318 177.21 190.86L100.723 241.603C100.526 241.267 100.311 241.086 100.061 240.863ZM236.741 105.785L254.418 129.382C254.281 129.563 254.186 129.709 254.048 129.89C253.601 130.741 253.653 131.688 254.117 132.445L211.341 168.989C211.229 168.938 211.161 168.852 211.083 168.843L211.049 168.8L234.918 105.974C235.529 106.12 236.165 106.034 236.741 105.785ZM83.6483 187.898C83.6139 187.855 83.6139 187.855 83.5795 187.812L115.664 145.219C115.698 145.262 115.732 145.305 115.81 145.313C117.143 146.01 118.769 145.486 119.465 144.153C119.517 144.041 119.526 143.963 119.577 143.852L147.98 148.148C147.989 148.423 148.041 148.664 148.135 148.87L83.6483 187.898ZM176.985 117.752C177.209 117.855 177.398 117.915 177.587 117.975L178.672 187.927C178.551 187.953 178.431 187.979 178.311 188.004L152.049 149.972C152.307 149.765 152.531 149.516 152.686 149.18C153.184 148.217 152.995 147.099 152.298 146.316L176.779 117.493C176.761 117.648 176.873 117.7 176.985 117.752ZM208.417 169.213C208.245 169.35 208.15 169.497 208.047 169.72C207.746 170.314 207.72 170.899 207.926 171.509L180.349 188.701C180.177 188.486 179.962 188.306 179.704 188.159C179.627 188.151 179.558 188.065 179.48 188.056L178.404 118.027C178.602 118.01 178.723 117.984 178.886 117.924L208.417 169.213ZM180.521 190.68C180.719 190.31 180.771 189.846 180.693 189.484L208.356 172.223C208.528 172.438 208.743 172.619 209.002 172.765C209.148 172.86 209.303 172.877 209.414 172.929L211.386 292.747C211.308 292.738 211.265 292.772 211.145 292.798L179.936 191.359C180.194 191.153 180.375 190.938 180.521 190.68ZM212.246 292.764L210.266 173.024C210.739 172.998 211.195 172.774 211.505 172.456L246.29 195.488C246.067 196.443 246.462 197.466 247.426 197.965L247.503 197.974L212.779 292.902C212.555 292.798 212.401 292.781 212.246 292.764ZM258.315 129.228L278.073 103.76C278.107 103.803 278.219 103.855 278.253 103.898C279.105 104.345 280.146 104.147 280.774 103.433L327.404 127.077C327.335 127.344 327.335 127.697 327.344 127.972L259.063 130.604C258.969 130.045 258.711 129.546 258.315 129.228ZM150.535 145.61C149.597 145.584 148.686 146.031 148.195 146.917C148.101 147.064 148.084 147.218 147.989 147.365L119.663 143.077C119.715 142.26 119.414 141.443 118.769 140.901L175.746 61.8899L175.78 61.9329L175.858 61.9415L150.535 145.61ZM534.825 -54.993L410.281 -6.22637C410.212 -6.3124 410.177 -6.35541 410.108 -6.44144L442.666 -46.9443C442.777 -46.8927 442.812 -46.8497 442.924 -46.798C444.627 -45.9032 446.734 -46.5309 447.629 -48.234C447.921 -48.7501 448.024 -49.3264 448.007 -49.8769L534.61 -55.8791C534.661 -55.6382 534.704 -55.3199 534.825 -54.993ZM442.029 -47.5638L409.515 -7.09526C408.629 -7.58568 407.571 -7.23314 407.046 -6.3902L390.238 -15.2351C390.6 -16.0179 390.574 -16.8437 390.264 -17.5835L441.754 -47.9079C441.78 -47.7874 441.883 -47.6584 442.029 -47.5638ZM234.135 105.613L210.214 168.551C209.827 168.507 209.423 168.619 209.096 168.74L179.669 117.58C180.047 117.348 180.314 117.064 180.52 116.617C180.727 116.169 180.856 115.713 180.83 115.24L233.034 104.236C233.283 104.812 233.628 105.243 234.135 105.613ZM175.815 114.173C175.316 115.136 175.471 116.212 176.048 117.02L151.524 145.877C151.447 145.868 151.378 145.782 151.301 145.774L176.692 62.1911L176.769 62.1997L177.493 112.831C176.804 113.029 176.202 113.511 175.815 114.173ZM175.135 61.3909L118.106 140.514C117.883 140.411 117.65 140.385 117.427 140.281L125.202 58.3052C126.337 58.314 127.464 57.6948 128.049 56.6626C128.152 56.4389 128.255 56.2153 128.324 55.9486L174.404 59.507C174.37 60.1693 174.645 60.8661 175.135 61.3909ZM123.791 57.9524C124.015 58.0556 124.161 58.1503 124.35 58.2105L116.567 140.264C115.767 140.41 115.053 140.84 114.657 141.58L74.1426 121.79C74.6415 120.474 74.2974 118.986 73.3082 118.014L123.499 57.7631C123.611 57.8147 123.679 57.9007 123.791 57.9524ZM69.274 123.639C70.8653 124.482 72.7663 123.949 73.7469 122.53L114.373 142.371C114.356 142.526 114.339 142.681 114.322 142.836L28.1493 148.494C28.1063 148.176 27.9859 147.849 27.8224 147.556L68.0956 122.607C68.4396 123.037 68.8353 123.355 69.274 123.639ZM27.8225 150.73C28.0719 150.249 28.2009 149.793 28.2181 149.285L114.39 143.627C114.502 144.032 114.7 144.367 114.975 144.711L82.8483 187.339C81.8763 186.917 80.7581 187.106 80.0184 187.769L27.6848 150.911C27.7709 150.842 27.8139 150.808 27.8225 150.73ZM84.13 190.969C84.5687 190.195 84.5085 189.326 84.1214 188.578L148.479 149.653C148.548 149.739 148.651 149.868 148.763 149.92L99.3127 240.544C98.7106 240.321 98.0483 240.286 97.3687 240.406L82.9086 192.087C83.4419 191.872 83.8376 191.485 84.13 190.969ZM101.248 242.17L177.82 191.359C177.855 191.402 177.967 191.454 178.001 191.497C178.147 191.591 178.379 191.617 178.569 191.677L171.834 261.112C170.579 261.129 169.409 261.783 168.807 262.97C168.712 263.116 168.652 263.305 168.592 263.494L101.627 244.407C101.713 243.633 101.566 242.833 101.248 242.17ZM174.914 266.196C175.808 264.493 175.18 262.386 173.477 261.491C173.219 261.345 172.918 261.233 172.609 261.198L179.308 192.073L210.371 293.065C209.958 293.254 209.571 293.564 209.261 293.882L174.673 266.601C174.768 266.454 174.897 266.351 174.914 266.196ZM352.452 104.784L367.711 66.5501C368.159 66.7566 368.657 66.8512 369.131 66.8255L388.769 108.04C388.468 108.281 388.201 108.565 388.012 108.857C387.814 109.227 387.771 109.614 387.728 110.001L353.785 106.892C353.76 106.066 353.304 105.232 352.452 104.784ZM391.332 107.894C390.739 107.593 390.119 107.524 389.552 107.696L370.008 66.688C370.662 66.4472 371.221 65.9999 371.53 65.329C371.582 65.2172 371.591 65.1398 371.642 65.028L489.435 84.7927C489.461 84.9132 489.444 85.068 489.469 85.1884L392.657 109.727C392.468 108.961 392.038 108.247 391.332 107.894ZM490.639 82.4187L410.048 -4.13609C410.177 -4.2393 410.272 -4.38552 410.324 -4.49734C410.478 -4.8328 410.556 -5.17686 410.547 -5.45213L535.134 -54.2532C535.642 -53.1779 536.485 -52.3004 537.595 -51.7067C537.818 -51.6035 538.042 -51.5002 538.231 -51.44L492.936 81.8513C492.127 81.7221 491.284 81.9027 490.639 82.4187ZM161.813 262.427L145.367 259.148L116.121 249.389L161.813 262.427Z"/>
</mask>
<path d="M542.919 -61.8909C540.106 -63.3794 536.657 -62.3131 535.169 -59.5005C534.721 -58.6489 534.541 -57.7285 534.515 -56.7909L447.913 -50.7888C447.663 -51.7178 447.052 -52.5695 446.166 -53.0599C444.463 -53.9548 442.356 -53.327 441.461 -51.624C440.962 -50.6606 440.962 -49.6025 441.332 -48.6993L389.8 -18.3405C389.593 -18.5986 389.301 -18.7879 389.008 -18.9772C387.641 -19.7171 385.937 -19.2012 385.232 -17.7906C384.776 -16.8616 384.819 -15.8379 385.352 -14.9949L353.707 16.5964C353.673 16.5534 353.595 16.5448 353.561 16.5018C352.451 15.9081 351.109 16.3466 350.559 17.4218C350.215 18.0497 350.215 18.7551 350.499 19.3745L303.955 54.2069C303.921 54.1639 303.886 54.1209 303.843 54.1553C302.845 53.6132 301.546 54.0174 301.004 55.0151C300.566 55.7893 300.738 56.7097 301.288 57.3979L279.509 100.001C278.658 99.9063 277.789 100.319 277.35 101.093C277.247 101.317 277.187 101.506 277.127 101.695L238.238 102.895C238.092 102.095 237.584 101.372 236.845 100.976C235.511 100.279 233.886 100.804 233.154 102.094C232.948 102.541 232.853 103.04 232.845 103.47L180.641 114.475C180.391 113.898 179.978 113.382 179.385 113.081C179.015 112.883 178.671 112.806 178.318 112.806L177.63 62.217C178.43 62.0709 179.186 61.6065 179.591 60.7893C180.331 59.4217 179.771 57.7528 178.404 57.0129C177.036 56.2729 175.367 56.8319 174.628 58.1995C174.533 58.3457 174.473 58.535 174.456 58.6898L128.384 55.0541C128.35 53.953 127.757 52.9465 126.724 52.3614C125.167 51.5612 123.301 52.1373 122.501 53.6942C121.899 54.8812 122.097 56.2748 122.897 57.1867L72.6974 117.515C72.663 117.472 72.5856 117.463 72.5512 117.42C70.848 116.526 68.7406 117.153 67.8461 118.856C67.3472 119.82 67.3386 120.955 67.7429 121.901L27.4267 146.885C27.1515 146.541 26.7902 146.266 26.3859 146.025C24.6828 145.13 22.5753 145.758 21.6808 147.461C20.7862 149.164 21.4142 151.272 23.1173 152.166C24.485 152.906 26.1624 152.623 27.2204 151.565L79.5109 188.457C79.4679 188.491 79.4679 188.491 79.4593 188.569C78.8055 189.867 79.2959 191.45 80.5517 192.139C81.0678 192.431 81.6097 192.491 82.1689 192.397L96.5946 240.673C95.9322 240.991 95.4075 241.482 95.0549 242.187C94.1603 243.89 94.7883 245.997 96.4914 246.892C98.1946 247.787 100.302 247.159 101.197 245.456C101.24 245.422 101.205 245.379 101.248 245.345L145.16 259.948L168.351 264.604C168.368 265.86 169.022 267.03 170.243 267.675C171.576 268.372 173.09 268.149 174.174 267.211L208.796 294.536L208.753 294.57C207.859 296.273 208.487 298.381 210.19 299.275C211.893 300.17 214.001 299.543 214.895 297.839C215.351 296.91 215.385 295.895 215.093 295.001L255.908 270.464C256.054 270.559 256.2 270.654 256.347 270.748C257.568 271.394 259.03 270.929 259.676 269.708C260.321 268.486 259.856 267.024 258.635 266.379C258.377 266.232 258.11 266.164 257.8 266.129L249.069 197.991C249.559 197.811 250.067 197.475 250.325 196.916C250.479 196.581 250.6 196.202 250.6 195.85L288.912 179.382C289.075 179.674 289.359 179.941 289.729 180.139C290.727 180.681 291.948 180.268 292.49 179.27C292.894 178.453 292.765 177.498 292.129 176.879L329.245 130.613C330.707 131.207 332.419 130.614 333.167 129.168C333.666 128.205 333.632 127.104 333.141 126.227L349.794 108.956C349.906 109.007 350.009 109.136 350.121 109.188C351.343 109.833 352.848 109.335 353.45 108.148C353.545 108.001 353.562 107.847 353.613 107.735L387.831 110.836C388.046 111.369 388.425 111.842 388.975 112.178C390.162 112.78 391.659 112.359 392.261 111.172C392.321 110.983 392.425 110.759 392.442 110.604L489.538 85.9798C489.779 86.6336 490.269 87.1584 490.932 87.5456C492.411 88.3371 494.278 87.761 495.069 86.2816C495.86 84.8021 495.284 82.9354 493.805 82.1438C493.77 82.1008 493.693 82.0922 493.658 82.0492L538.954 -51.242C541.44 -50.6912 544.072 -51.8092 545.276 -54.1832C546.833 -56.9098 545.732 -60.4024 542.919 -61.8909ZM332.668 125.547C332.419 125.323 332.204 125.143 331.911 124.953C331.542 124.755 331.163 124.635 330.776 124.592L325.141 56.7987L349.674 105.102C349.459 105.274 349.278 105.489 349.132 105.747C348.685 106.599 348.779 107.511 349.244 108.268L332.668 125.547ZM291.467 176.492C290.907 176.234 290.314 176.285 289.815 176.543L258.28 133.065C258.539 132.858 258.719 132.643 258.874 132.308C259.063 132.015 259.098 131.706 259.132 131.396L327.533 128.738C327.748 129.271 328.084 129.779 328.591 130.149L291.467 176.492ZM288.895 177.42C288.697 177.79 288.645 178.255 288.68 178.65L250.488 195.093C250.264 194.637 249.955 194.25 249.473 194C249.361 193.949 249.284 193.94 249.249 193.897L256.44 133.761C256.87 133.77 257.231 133.692 257.601 133.538L289.17 177.059C289.041 177.162 288.946 177.309 288.895 177.42ZM255.34 267.462C254.902 268.236 254.996 269.148 255.426 269.862L214.74 294.295C214.439 293.831 214.009 293.47 213.527 293.22L248.303 198.181L257.009 266.198C256.286 266.353 255.693 266.757 255.34 267.462ZM277.195 102.487C277.247 102.728 277.376 102.977 277.471 103.184L257.627 128.72C256.775 128.273 255.82 128.402 255.072 128.789L237.464 105.277C237.679 105.105 237.903 104.856 238.014 104.555C238.204 104.263 238.238 103.953 238.272 103.643L277.195 102.487ZM301.985 57.8281C302.992 58.2928 304.17 57.9144 304.712 56.9166C304.858 56.6586 304.936 56.3145 304.927 56.0392L322.681 55.3103C322.698 55.5081 322.793 55.7146 322.887 55.921L280.559 99.7259L301.985 57.8281ZM350.284 20.6045L325.27 53.1687C324.367 52.8331 323.309 53.1856 322.862 54.0372C322.767 54.1834 322.75 54.3383 322.698 54.4501L304.789 55.1618C304.729 54.9984 304.669 54.8349 304.566 54.7059L350.284 20.6045ZM385.826 -14.3153C386.006 -14.1776 386.187 -14.0399 386.333 -13.9453C387.52 -13.343 388.922 -13.6181 389.731 -14.5471L406.719 -5.56445C406.694 -5.3322 406.702 -5.05693 406.797 -4.85047L354.223 17.2416L385.826 -14.3153ZM489.745 83.4165C489.684 83.6057 489.547 83.7863 489.487 83.9756L371.806 64.2624C371.892 63.1356 371.35 62.0172 370.275 61.4666C370.275 61.4666 370.275 61.4666 370.24 61.4236L408.027 -3.57721C408.483 -3.44813 408.878 -3.4825 409.291 -3.6717L490.028 82.9778C489.934 83.124 489.839 83.2702 489.745 83.4165ZM407.227 -4.13645C407.261 -4.09344 407.33 -4.0074 407.365 -3.96439L369.483 61.1826C368.907 61.0793 368.313 61.1309 367.814 61.3889L353.63 20.4673C353.965 20.2695 354.275 19.9513 354.473 19.5814C354.765 19.0653 354.791 18.4804 354.653 17.9556L407.227 -4.13645ZM351.385 20.5703C351.832 20.7768 352.331 20.8714 352.812 20.7683L367.092 61.8963C366.834 62.1027 366.645 62.3951 366.455 62.6876C366.361 62.8338 366.258 63.0575 366.24 63.2123L326.5 54.7946C326.431 54.3559 326.319 53.9516 326.001 53.6419L351.385 20.5703ZM350.345 104.706L325.812 56.4031C325.984 56.2655 326.165 56.0505 326.268 55.8268C326.276 55.7494 326.319 55.715 326.371 55.6032L366.146 64.0639C366.18 64.8123 366.49 65.5521 367.058 66.0855L351.695 104.543C351.196 104.449 350.758 104.517 350.345 104.706ZM323.67 56.6351C323.894 56.7384 324.083 56.7986 324.315 56.8244L329.942 124.695C329.021 124.867 328.178 125.4 327.688 126.286L281.204 102.737C281.479 102.023 281.255 101.214 280.808 100.655L323.49 56.4975C323.524 56.5405 323.636 56.5921 323.67 56.6351ZM248.398 193.802C247.727 193.845 247.065 194.163 246.652 194.705L212.047 171.811C212.442 171.071 212.339 170.237 211.9 169.6L254.633 133.09C254.814 133.228 254.995 133.365 255.175 133.503C255.287 133.555 255.399 133.606 255.554 133.623L248.398 193.802ZM100.061 240.863L149.417 150.384C150.053 150.651 150.681 150.642 151.249 150.47L177.545 188.546C177.373 188.684 177.278 188.83 177.175 189.054C176.874 189.647 176.917 190.318 177.21 190.86L100.723 241.603C100.526 241.267 100.311 241.086 100.061 240.863ZM236.741 105.785L254.418 129.382C254.281 129.563 254.186 129.709 254.048 129.89C253.601 130.741 253.653 131.688 254.117 132.445L211.341 168.989C211.229 168.938 211.161 168.852 211.083 168.843L211.049 168.8L234.918 105.974C235.529 106.12 236.165 106.034 236.741 105.785ZM83.6483 187.898C83.6139 187.855 83.6139 187.855 83.5795 187.812L115.664 145.219C115.698 145.262 115.732 145.305 115.81 145.313C117.143 146.01 118.769 145.486 119.465 144.153C119.517 144.041 119.526 143.963 119.577 143.852L147.98 148.148C147.989 148.423 148.041 148.664 148.135 148.87L83.6483 187.898ZM176.985 117.752C177.209 117.855 177.398 117.915 177.587 117.975L178.672 187.927C178.551 187.953 178.431 187.979 178.311 188.004L152.049 149.972C152.307 149.765 152.531 149.516 152.686 149.18C153.184 148.217 152.995 147.099 152.298 146.316L176.779 117.493C176.761 117.648 176.873 117.7 176.985 117.752ZM208.417 169.213C208.245 169.35 208.15 169.497 208.047 169.72C207.746 170.314 207.72 170.899 207.926 171.509L180.349 188.701C180.177 188.486 179.962 188.306 179.704 188.159C179.627 188.151 179.558 188.065 179.48 188.056L178.404 118.027C178.602 118.01 178.723 117.984 178.886 117.924L208.417 169.213ZM180.521 190.68C180.719 190.31 180.771 189.846 180.693 189.484L208.356 172.223C208.528 172.438 208.743 172.619 209.002 172.765C209.148 172.86 209.303 172.877 209.414 172.929L211.386 292.747C211.308 292.738 211.265 292.772 211.145 292.798L179.936 191.359C180.194 191.153 180.375 190.938 180.521 190.68ZM212.246 292.764L210.266 173.024C210.739 172.998 211.195 172.774 211.505 172.456L246.29 195.488C246.067 196.443 246.462 197.466 247.426 197.965L247.503 197.974L212.779 292.902C212.555 292.798 212.401 292.781 212.246 292.764ZM258.315 129.228L278.073 103.76C278.107 103.803 278.219 103.855 278.253 103.898C279.105 104.345 280.146 104.147 280.774 103.433L327.404 127.077C327.335 127.344 327.335 127.697 327.344 127.972L259.063 130.604C258.969 130.045 258.711 129.546 258.315 129.228ZM150.535 145.61C149.597 145.584 148.686 146.031 148.195 146.917C148.101 147.064 148.084 147.218 147.989 147.365L119.663 143.077C119.715 142.26 119.414 141.443 118.769 140.901L175.746 61.8899L175.78 61.9329L175.858 61.9415L150.535 145.61ZM534.825 -54.993L410.281 -6.22637C410.212 -6.3124 410.177 -6.35541 410.108 -6.44144L442.666 -46.9443C442.777 -46.8927 442.812 -46.8497 442.924 -46.798C444.627 -45.9032 446.734 -46.5309 447.629 -48.234C447.921 -48.7501 448.024 -49.3264 448.007 -49.8769L534.61 -55.8791C534.661 -55.6382 534.704 -55.3199 534.825 -54.993ZM442.029 -47.5638L409.515 -7.09526C408.629 -7.58568 407.571 -7.23314 407.046 -6.3902L390.238 -15.2351C390.6 -16.0179 390.574 -16.8437 390.264 -17.5835L441.754 -47.9079C441.78 -47.7874 441.883 -47.6584 442.029 -47.5638ZM234.135 105.613L210.214 168.551C209.827 168.507 209.423 168.619 209.096 168.74L179.669 117.58C180.047 117.348 180.314 117.064 180.52 116.617C180.727 116.169 180.856 115.713 180.83 115.24L233.034 104.236C233.283 104.812 233.628 105.243 234.135 105.613ZM175.815 114.173C175.316 115.136 175.471 116.212 176.048 117.02L151.524 145.877C151.447 145.868 151.378 145.782 151.301 145.774L176.692 62.1911L176.769 62.1997L177.493 112.831C176.804 113.029 176.202 113.511 175.815 114.173ZM175.135 61.3909L118.106 140.514C117.883 140.411 117.65 140.385 117.427 140.281L125.202 58.3052C126.337 58.314 127.464 57.6948 128.049 56.6626C128.152 56.4389 128.255 56.2153 128.324 55.9486L174.404 59.507C174.37 60.1693 174.645 60.8661 175.135 61.3909ZM123.791 57.9524C124.015 58.0556 124.161 58.1503 124.35 58.2105L116.567 140.264C115.767 140.41 115.053 140.84 114.657 141.58L74.1426 121.79C74.6415 120.474 74.2974 118.986 73.3082 118.014L123.499 57.7631C123.611 57.8147 123.679 57.9007 123.791 57.9524ZM69.274 123.639C70.8653 124.482 72.7663 123.949 73.7469 122.53L114.373 142.371C114.356 142.526 114.339 142.681 114.322 142.836L28.1493 148.494C28.1063 148.176 27.9859 147.849 27.8224 147.556L68.0956 122.607C68.4396 123.037 68.8353 123.355 69.274 123.639ZM27.8225 150.73C28.0719 150.249 28.2009 149.793 28.2181 149.285L114.39 143.627C114.502 144.032 114.7 144.367 114.975 144.711L82.8483 187.339C81.8763 186.917 80.7581 187.106 80.0184 187.769L27.6848 150.911C27.7709 150.842 27.8139 150.808 27.8225 150.73ZM84.13 190.969C84.5687 190.195 84.5085 189.326 84.1214 188.578L148.479 149.653C148.548 149.739 148.651 149.868 148.763 149.92L99.3127 240.544C98.7106 240.321 98.0483 240.286 97.3687 240.406L82.9086 192.087C83.4419 191.872 83.8376 191.485 84.13 190.969ZM101.248 242.17L177.82 191.359C177.855 191.402 177.967 191.454 178.001 191.497C178.147 191.591 178.379 191.617 178.569 191.677L171.834 261.112C170.579 261.129 169.409 261.783 168.807 262.97C168.712 263.116 168.652 263.305 168.592 263.494L101.627 244.407C101.713 243.633 101.566 242.833 101.248 242.17ZM174.914 266.196C175.808 264.493 175.18 262.386 173.477 261.491C173.219 261.345 172.918 261.233 172.609 261.198L179.308 192.073L210.371 293.065C209.958 293.254 209.571 293.564 209.261 293.882L174.673 266.601C174.768 266.454 174.897 266.351 174.914 266.196ZM352.452 104.784L367.711 66.5501C368.159 66.7566 368.657 66.8512 369.131 66.8255L388.769 108.04C388.468 108.281 388.201 108.565 388.012 108.857C387.814 109.227 387.771 109.614 387.728 110.001L353.785 106.892C353.76 106.066 353.304 105.232 352.452 104.784ZM391.332 107.894C390.739 107.593 390.119 107.524 389.552 107.696L370.008 66.688C370.662 66.4472 371.221 65.9999 371.53 65.329C371.582 65.2172 371.591 65.1398 371.642 65.028L489.435 84.7927C489.461 84.9132 489.444 85.068 489.469 85.1884L392.657 109.727C392.468 108.961 392.038 108.247 391.332 107.894ZM490.639 82.4187L410.048 -4.13609C410.177 -4.2393 410.272 -4.38552 410.324 -4.49734C410.478 -4.8328 410.556 -5.17686 410.547 -5.45213L535.134 -54.2532C535.642 -53.1779 536.485 -52.3004 537.595 -51.7067C537.818 -51.6035 538.042 -51.5002 538.231 -51.44L492.936 81.8513C492.127 81.7221 491.284 81.9027 490.639 82.4187ZM161.813 262.427L145.367 259.148L116.121 249.389L161.813 262.427Z" fill="white"/>
<path d="M542.919 -61.8909C540.106 -63.3794 536.657 -62.3131 535.169 -59.5005C534.721 -58.6489 534.541 -57.7285 534.515 -56.7909L447.913 -50.7888C447.663 -51.7178 447.052 -52.5695 446.166 -53.0599C444.463 -53.9548 442.356 -53.327 441.461 -51.624C440.962 -50.6606 440.962 -49.6025 441.332 -48.6993L389.8 -18.3405C389.593 -18.5986 389.301 -18.7879 389.008 -18.9772C387.641 -19.7171 385.937 -19.2012 385.232 -17.7906C384.776 -16.8616 384.819 -15.8379 385.352 -14.9949L353.707 16.5964C353.673 16.5534 353.595 16.5448 353.561 16.5018C352.451 15.9081 351.109 16.3466 350.559 17.4218C350.215 18.0497 350.215 18.7551 350.499 19.3745L303.955 54.2069C303.921 54.1639 303.886 54.1209 303.843 54.1553C302.845 53.6132 301.546 54.0174 301.004 55.0151C300.566 55.7893 300.738 56.7097 301.288 57.3979L279.509 100.001C278.658 99.9063 277.789 100.319 277.35 101.093C277.247 101.317 277.187 101.506 277.127 101.695L238.238 102.895C238.092 102.095 237.584 101.372 236.845 100.976C235.511 100.279 233.886 100.804 233.154 102.094C232.948 102.541 232.853 103.04 232.845 103.47L180.641 114.475C180.391 113.898 179.978 113.382 179.385 113.081C179.015 112.883 178.671 112.806 178.318 112.806L177.63 62.217C178.43 62.0709 179.186 61.6065 179.591 60.7893C180.331 59.4217 179.771 57.7528 178.404 57.0129C177.036 56.2729 175.367 56.8319 174.628 58.1995C174.533 58.3457 174.473 58.535 174.456 58.6898L128.384 55.0541C128.35 53.953 127.757 52.9465 126.724 52.3614C125.167 51.5612 123.301 52.1373 122.501 53.6942C121.899 54.8812 122.097 56.2748 122.897 57.1867L72.6974 117.515C72.663 117.472 72.5856 117.463 72.5512 117.42C70.848 116.526 68.7406 117.153 67.8461 118.856C67.3472 119.82 67.3386 120.955 67.7429 121.901L27.4267 146.885C27.1515 146.541 26.7902 146.266 26.3859 146.025C24.6828 145.13 22.5753 145.758 21.6808 147.461C20.7862 149.164 21.4142 151.272 23.1173 152.166C24.485 152.906 26.1624 152.623 27.2204 151.565L79.5109 188.457C79.4679 188.491 79.4679 188.491 79.4593 188.569C78.8055 189.867 79.2959 191.45 80.5517 192.139C81.0678 192.431 81.6097 192.491 82.1689 192.397L96.5946 240.673C95.9322 240.991 95.4075 241.482 95.0549 242.187C94.1603 243.89 94.7883 245.997 96.4914 246.892C98.1946 247.787 100.302 247.159 101.197 245.456C101.24 245.422 101.205 245.379 101.248 245.345L145.16 259.948L168.351 264.604C168.368 265.86 169.022 267.03 170.243 267.675C171.576 268.372 173.09 268.149 174.174 267.211L208.796 294.536L208.753 294.57C207.859 296.273 208.487 298.381 210.19 299.275C211.893 300.17 214.001 299.543 214.895 297.839C215.351 296.91 215.385 295.895 215.093 295.001L255.908 270.464C256.054 270.559 256.2 270.654 256.347 270.748C257.568 271.394 259.03 270.929 259.676 269.708C260.321 268.486 259.856 267.024 258.635 266.379C258.377 266.232 258.11 266.164 257.8 266.129L249.069 197.991C249.559 197.811 250.067 197.475 250.325 196.916C250.479 196.581 250.6 196.202 250.6 195.85L288.912 179.382C289.075 179.674 289.359 179.941 289.729 180.139C290.727 180.681 291.948 180.268 292.49 179.27C292.894 178.453 292.765 177.498 292.129 176.879L329.245 130.613C330.707 131.207 332.419 130.614 333.167 129.168C333.666 128.205 333.632 127.104 333.141 126.227L349.794 108.956C349.906 109.007 350.009 109.136 350.121 109.188C351.343 109.833 352.848 109.335 353.45 108.148C353.545 108.001 353.562 107.847 353.613 107.735L387.831 110.836C388.046 111.369 388.425 111.842 388.975 112.178C390.162 112.78 391.659 112.359 392.261 111.172C392.321 110.983 392.425 110.759 392.442 110.604L489.538 85.9798C489.779 86.6336 490.269 87.1584 490.932 87.5456C492.411 88.3371 494.278 87.761 495.069 86.2816C495.86 84.8021 495.284 82.9354 493.805 82.1438C493.77 82.1008 493.693 82.0922 493.658 82.0492L538.954 -51.242C541.44 -50.6912 544.072 -51.8092 545.276 -54.1832C546.833 -56.9098 545.732 -60.4024 542.919 -61.8909ZM332.668 125.547C332.419 125.323 332.204 125.143 331.911 124.953C331.542 124.755 331.163 124.635 330.776 124.592L325.141 56.7987L349.674 105.102C349.459 105.274 349.278 105.489 349.132 105.747C348.685 106.599 348.779 107.511 349.244 108.268L332.668 125.547ZM291.467 176.492C290.907 176.234 290.314 176.285 289.815 176.543L258.28 133.065C258.539 132.858 258.719 132.643 258.874 132.308C259.063 132.015 259.098 131.706 259.132 131.396L327.533 128.738C327.748 129.271 328.084 129.779 328.591 130.149L291.467 176.492ZM288.895 177.42C288.697 177.79 288.645 178.255 288.68 178.65L250.488 195.093C250.264 194.637 249.955 194.25 249.473 194C249.361 193.949 249.284 193.94 249.249 193.897L256.44 133.761C256.87 133.77 257.231 133.692 257.601 133.538L289.17 177.059C289.041 177.162 288.946 177.309 288.895 177.42ZM255.34 267.462C254.902 268.236 254.996 269.148 255.426 269.862L214.74 294.295C214.439 293.831 214.009 293.47 213.527 293.22L248.303 198.181L257.009 266.198C256.286 266.353 255.693 266.757 255.34 267.462ZM277.195 102.487C277.247 102.728 277.376 102.977 277.471 103.184L257.627 128.72C256.775 128.273 255.82 128.402 255.072 128.789L237.464 105.277C237.679 105.105 237.903 104.856 238.014 104.555C238.204 104.263 238.238 103.953 238.272 103.643L277.195 102.487ZM301.985 57.8281C302.992 58.2928 304.17 57.9144 304.712 56.9166C304.858 56.6586 304.936 56.3145 304.927 56.0392L322.681 55.3103C322.698 55.5081 322.793 55.7146 322.887 55.921L280.559 99.7259L301.985 57.8281ZM350.284 20.6045L325.27 53.1687C324.367 52.8331 323.309 53.1856 322.862 54.0372C322.767 54.1834 322.75 54.3383 322.698 54.4501L304.789 55.1618C304.729 54.9984 304.669 54.8349 304.566 54.7059L350.284 20.6045ZM385.826 -14.3153C386.006 -14.1776 386.187 -14.0399 386.333 -13.9453C387.52 -13.343 388.922 -13.6181 389.731 -14.5471L406.719 -5.56445C406.694 -5.3322 406.702 -5.05693 406.797 -4.85047L354.223 17.2416L385.826 -14.3153ZM489.745 83.4165C489.684 83.6057 489.547 83.7863 489.487 83.9756L371.806 64.2624C371.892 63.1356 371.35 62.0172 370.275 61.4666C370.275 61.4666 370.275 61.4666 370.24 61.4236L408.027 -3.57721C408.483 -3.44813 408.878 -3.4825 409.291 -3.6717L490.028 82.9778C489.934 83.124 489.839 83.2702 489.745 83.4165ZM407.227 -4.13645C407.261 -4.09344 407.33 -4.0074 407.365 -3.96439L369.483 61.1826C368.907 61.0793 368.313 61.1309 367.814 61.3889L353.63 20.4673C353.965 20.2695 354.275 19.9513 354.473 19.5814C354.765 19.0653 354.791 18.4804 354.653 17.9556L407.227 -4.13645ZM351.385 20.5703C351.832 20.7768 352.331 20.8714 352.812 20.7683L367.092 61.8963C366.834 62.1027 366.645 62.3951 366.455 62.6876C366.361 62.8338 366.258 63.0575 366.24 63.2123L326.5 54.7946C326.431 54.3559 326.319 53.9516 326.001 53.6419L351.385 20.5703ZM350.345 104.706L325.812 56.4031C325.984 56.2655 326.165 56.0505 326.268 55.8268C326.276 55.7494 326.319 55.715 326.371 55.6032L366.146 64.0639C366.18 64.8123 366.49 65.5521 367.058 66.0855L351.695 104.543C351.196 104.449 350.758 104.517 350.345 104.706ZM323.67 56.6351C323.894 56.7384 324.083 56.7986 324.315 56.8244L329.942 124.695C329.021 124.867 328.178 125.4 327.688 126.286L281.204 102.737C281.479 102.023 281.255 101.214 280.808 100.655L323.49 56.4975C323.524 56.5405 323.636 56.5921 323.67 56.6351ZM248.398 193.802C247.727 193.845 247.065 194.163 246.652 194.705L212.047 171.811C212.442 171.071 212.339 170.237 211.9 169.6L254.633 133.09C254.814 133.228 254.995 133.365 255.175 133.503C255.287 133.555 255.399 133.606 255.554 133.623L248.398 193.802ZM100.061 240.863L149.417 150.384C150.053 150.651 150.681 150.642 151.249 150.47L177.545 188.546C177.373 188.684 177.278 188.83 177.175 189.054C176.874 189.647 176.917 190.318 177.21 190.86L100.723 241.603C100.526 241.267 100.311 241.086 100.061 240.863ZM236.741 105.785L254.418 129.382C254.281 129.563 254.186 129.709 254.048 129.89C253.601 130.741 253.653 131.688 254.117 132.445L211.341 168.989C211.229 168.938 211.161 168.852 211.083 168.843L211.049 168.8L234.918 105.974C235.529 106.12 236.165 106.034 236.741 105.785ZM83.6483 187.898C83.6139 187.855 83.6139 187.855 83.5795 187.812L115.664 145.219C115.698 145.262 115.732 145.305 115.81 145.313C117.143 146.01 118.769 145.486 119.465 144.153C119.517 144.041 119.526 143.963 119.577 143.852L147.98 148.148C147.989 148.423 148.041 148.664 148.135 148.87L83.6483 187.898ZM176.985 117.752C177.209 117.855 177.398 117.915 177.587 117.975L178.672 187.927C178.551 187.953 178.431 187.979 178.311 188.004L152.049 149.972C152.307 149.765 152.531 149.516 152.686 149.18C153.184 148.217 152.995 147.099 152.298 146.316L176.779 117.493C176.761 117.648 176.873 117.7 176.985 117.752ZM208.417 169.213C208.245 169.35 208.15 169.497 208.047 169.72C207.746 170.314 207.72 170.899 207.926 171.509L180.349 188.701C180.177 188.486 179.962 188.306 179.704 188.159C179.627 188.151 179.558 188.065 179.48 188.056L178.404 118.027C178.602 118.01 178.723 117.984 178.886 117.924L208.417 169.213ZM180.521 190.68C180.719 190.31 180.771 189.846 180.693 189.484L208.356 172.223C208.528 172.438 208.743 172.619 209.002 172.765C209.148 172.86 209.303 172.877 209.414 172.929L211.386 292.747C211.308 292.738 211.265 292.772 211.145 292.798L179.936 191.359C180.194 191.153 180.375 190.938 180.521 190.68ZM212.246 292.764L210.266 173.024C210.739 172.998 211.195 172.774 211.505 172.456L246.29 195.488C246.067 196.443 246.462 197.466 247.426 197.965L247.503 197.974L212.779 292.902C212.555 292.798 212.401 292.781 212.246 292.764ZM258.315 129.228L278.073 103.76C278.107 103.803 278.219 103.855 278.253 103.898C279.105 104.345 280.146 104.147 280.774 103.433L327.404 127.077C327.335 127.344 327.335 127.697 327.344 127.972L259.063 130.604C258.969 130.045 258.711 129.546 258.315 129.228ZM150.535 145.61C149.597 145.584 148.686 146.031 148.195 146.917C148.101 147.064 148.084 147.218 147.989 147.365L119.663 143.077C119.715 142.26 119.414 141.443 118.769 140.901L175.746 61.8899L175.78 61.9329L175.858 61.9415L150.535 145.61ZM534.825 -54.993L410.281 -6.22637C410.212 -6.3124 410.177 -6.35541 410.108 -6.44144L442.666 -46.9443C442.777 -46.8927 442.812 -46.8497 442.924 -46.798C444.627 -45.9032 446.734 -46.5309 447.629 -48.234C447.921 -48.7501 448.024 -49.3264 448.007 -49.8769L534.61 -55.8791C534.661 -55.6382 534.704 -55.3199 534.825 -54.993ZM442.029 -47.5638L409.515 -7.09526C408.629 -7.58568 407.571 -7.23314 407.046 -6.3902L390.238 -15.2351C390.6 -16.0179 390.574 -16.8437 390.264 -17.5835L441.754 -47.9079C441.78 -47.7874 441.883 -47.6584 442.029 -47.5638ZM234.135 105.613L210.214 168.551C209.827 168.507 209.423 168.619 209.096 168.74L179.669 117.58C180.047 117.348 180.314 117.064 180.52 116.617C180.727 116.169 180.856 115.713 180.83 115.24L233.034 104.236C233.283 104.812 233.628 105.243 234.135 105.613ZM175.815 114.173C175.316 115.136 175.471 116.212 176.048 117.02L151.524 145.877C151.447 145.868 151.378 145.782 151.301 145.774L176.692 62.1911L176.769 62.1997L177.493 112.831C176.804 113.029 176.202 113.511 175.815 114.173ZM175.135 61.3909L118.106 140.514C117.883 140.411 117.65 140.385 117.427 140.281L125.202 58.3052C126.337 58.314 127.464 57.6948 128.049 56.6626C128.152 56.4389 128.255 56.2153 128.324 55.9486L174.404 59.507C174.37 60.1693 174.645 60.8661 175.135 61.3909ZM123.791 57.9524C124.015 58.0556 124.161 58.1503 124.35 58.2105L116.567 140.264C115.767 140.41 115.053 140.84 114.657 141.58L74.1426 121.79C74.6415 120.474 74.2974 118.986 73.3082 118.014L123.499 57.7631C123.611 57.8147 123.679 57.9007 123.791 57.9524ZM69.274 123.639C70.8653 124.482 72.7663 123.949 73.7469 122.53L114.373 142.371C114.356 142.526 114.339 142.681 114.322 142.836L28.1493 148.494C28.1063 148.176 27.9859 147.849 27.8224 147.556L68.0956 122.607C68.4396 123.037 68.8353 123.355 69.274 123.639ZM27.8225 150.73C28.0719 150.249 28.2009 149.793 28.2181 149.285L114.39 143.627C114.502 144.032 114.7 144.367 114.975 144.711L82.8483 187.339C81.8763 186.917 80.7581 187.106 80.0184 187.769L27.6848 150.911C27.7709 150.842 27.8139 150.808 27.8225 150.73ZM84.13 190.969C84.5687 190.195 84.5085 189.326 84.1214 188.578L148.479 149.653C148.548 149.739 148.651 149.868 148.763 149.92L99.3127 240.544C98.7106 240.321 98.0483 240.286 97.3687 240.406L82.9086 192.087C83.4419 191.872 83.8376 191.485 84.13 190.969ZM101.248 242.17L177.82 191.359C177.855 191.402 177.967 191.454 178.001 191.497C178.147 191.591 178.379 191.617 178.569 191.677L171.834 261.112C170.579 261.129 169.409 261.783 168.807 262.97C168.712 263.116 168.652 263.305 168.592 263.494L101.627 244.407C101.713 243.633 101.566 242.833 101.248 242.17ZM174.914 266.196C175.808 264.493 175.18 262.386 173.477 261.491C173.219 261.345 172.918 261.233 172.609 261.198L179.308 192.073L210.371 293.065C209.958 293.254 209.571 293.564 209.261 293.882L174.673 266.601C174.768 266.454 174.897 266.351 174.914 266.196ZM352.452 104.784L367.711 66.5501C368.159 66.7566 368.657 66.8512 369.131 66.8255L388.769 108.04C388.468 108.281 388.201 108.565 388.012 108.857C387.814 109.227 387.771 109.614 387.728 110.001L353.785 106.892C353.76 106.066 353.304 105.232 352.452 104.784ZM391.332 107.894C390.739 107.593 390.119 107.524 389.552 107.696L370.008 66.688C370.662 66.4472 371.221 65.9999 371.53 65.329C371.582 65.2172 371.591 65.1398 371.642 65.028L489.435 84.7927C489.461 84.9132 489.444 85.068 489.469 85.1884L392.657 109.727C392.468 108.961 392.038 108.247 391.332 107.894ZM490.639 82.4187L410.048 -4.13609C410.177 -4.2393 410.272 -4.38552 410.324 -4.49734C410.478 -4.8328 410.556 -5.17686 410.547 -5.45213L535.134 -54.2532C535.642 -53.1779 536.485 -52.3004 537.595 -51.7067C537.818 -51.6035 538.042 -51.5002 538.231 -51.44L492.936 81.8513C492.127 81.7221 491.284 81.9027 490.639 82.4187ZM161.813 262.427L145.367 259.148L116.121 249.389L161.813 262.427Z" stroke="white" stroke-width="0.574993" mask="url(#path-2-outside-1)"/>
</g>
</g>
</svg>
