<svg width="860" height="675" viewBox="0 0 860 675" fill="none" xmlns="http://www.w3.org/2000/svg">
<mask id="mask0" mask-type="alpha" maskUnits="userSpaceOnUse" x="0" y="0" width="860" height="675">
<rect width="860" height="675" fill="#405A82"/>
</mask>
<g mask="url(#mask0)">
<g opacity="0.1">
<mask id="path-2-outside-1" maskUnits="userSpaceOnUse" x="-389.366" y="-491.127" width="1383.26" height="1143.88" fill="black">
<rect fill="white" x="-389.366" y="-491.127" width="1383.26" height="1143.88"/>
<path d="M893.032 -144.689C887.136 -149.059 878.903 -147.825 874.534 -141.929C873.219 -140.143 872.488 -138.108 872.103 -135.979L672.589 -152.354C672.343 -154.559 671.246 -156.712 669.396 -158.138C665.824 -160.769 660.802 -160.069 658.171 -156.497C656.7 -154.474 656.332 -152.062 656.862 -149.874L528.844 -98.5504C528.463 -99.2104 527.862 -99.7434 527.261 -100.276C524.399 -102.438 520.338 -101.853 518.24 -98.8819C516.878 -96.9224 516.621 -94.5738 517.544 -92.4667L434.436 -31.4303C434.372 -31.5403 434.199 -31.5867 434.135 -31.6967C431.812 -33.4353 428.6 -32.9013 426.972 -30.6412C425.97 -29.3292 425.725 -27.7212 426.157 -26.2106L307.96 37.0439C307.896 36.9339 307.833 36.8239 307.723 36.8874C305.636 35.3054 302.535 35.7759 300.953 37.8625C299.684 39.475 299.757 41.6331 300.773 43.3931L236.336 132.958C234.427 132.447 232.303 133.086 231.035 134.699C230.722 135.173 230.519 135.583 230.316 135.994L141.243 125.231C141.188 123.356 140.282 121.533 138.733 120.373C135.935 118.322 132.047 118.953 129.932 121.641C129.306 122.589 128.917 123.694 128.748 124.671L5.91742 131.639C5.54877 130.238 4.78661 128.918 3.53805 128.026C2.76351 127.446 2.00604 127.15 1.20205 127.027L17.1903 11.4595C19.0648 11.404 20.9516 10.608 22.1568 8.88544C24.3179 6.02435 23.6225 2.02571 20.7613 -0.135873C17.9002 -2.29745 13.9019 -1.60244 11.7408 1.25866C11.4743 1.55917 11.2714 1.96968 11.1784 2.31669L-92.5898 -21.9623C-92.2861 -24.4844 -93.2899 -26.985 -95.44 -28.6771C-98.7117 -31.0417 -103.167 -30.3761 -105.531 -27.1045C-107.316 -24.6075 -107.348 -21.3618 -105.841 -19.0053L-241.221 101.105C-241.285 100.995 -241.458 100.948 -241.522 100.838C-245.094 98.2071 -250.116 98.9066 -252.747 102.479C-254.218 104.502 -254.632 107.087 -254.039 109.385L-354.621 152.349C-355.129 151.469 -355.857 150.716 -356.695 150.026C-360.267 147.395 -365.289 148.095 -367.92 151.667C-370.55 155.239 -369.85 160.261 -366.278 162.893C-363.417 165.054 -359.494 164.99 -356.715 162.945L-250.311 265.198C-250.421 265.262 -250.421 265.262 -250.467 265.435C-252.409 268.169 -251.84 271.948 -249.216 273.953C-248.141 274.799 -246.926 275.125 -245.619 275.103L-229.488 390.168C-231.108 390.663 -232.475 391.599 -233.523 393.084C-236.154 396.656 -235.454 401.679 -231.882 404.31C-228.309 406.941 -223.287 406.242 -220.657 402.67C-220.547 402.606 -220.61 402.496 -220.5 402.433L-125.46 450.965L-74.2084 469.63C-74.605 472.499 -73.5207 475.393 -70.9601 477.288C-68.1624 479.34 -64.6336 479.356 -61.8374 477.594L7.60897 551.904L7.49899 551.967C4.8685 555.539 5.56861 560.562 9.14079 563.193C12.713 565.824 17.7352 565.125 20.3657 561.553C21.7274 559.593 22.1581 557.291 21.8019 555.15L123.366 513.379C123.666 513.646 123.967 513.912 124.268 514.179C126.828 516.074 130.323 515.523 132.218 512.962C134.112 510.401 133.561 506.906 131 505.011C130.463 504.588 129.879 504.339 129.185 504.153L132.928 345.786C134.109 345.544 135.382 344.956 136.164 343.771C136.634 343.06 137.04 342.239 137.162 341.435L230.22 317.189C230.491 317.912 231.045 318.619 231.82 319.199C233.906 320.781 236.834 320.264 238.416 318.177C239.621 316.454 239.658 314.233 238.422 312.6L339.095 220.008C342.223 221.869 346.331 221.111 348.539 218.076C350.01 216.053 350.314 213.531 349.501 211.361L393.459 177.767C393.696 177.924 393.887 178.254 394.124 178.41C396.685 180.306 400.289 179.691 402.074 177.194C402.341 176.893 402.434 176.546 402.59 176.309L479.522 195.255C479.827 196.546 480.525 197.756 481.664 198.712C484.161 200.497 487.719 200.056 489.504 197.559C489.707 197.148 490.02 196.674 490.113 196.327L720.014 173.891C720.336 175.465 721.272 176.831 722.648 177.944C725.746 180.262 730.201 179.597 732.519 176.498C734.836 173.4 734.17 168.945 731.072 166.627C731.008 166.517 730.835 166.47 730.771 166.36L880.296 -121.789C885.772 -119.67 892.161 -121.305 895.73 -126.299C900.226 -131.975 898.928 -140.319 893.032 -144.689ZM348.658 209.647C348.167 209.05 347.74 208.564 347.139 208.031C346.364 207.451 345.543 207.045 344.676 206.813L355.359 50.306L394.522 168.94C393.972 169.258 393.486 169.685 393.063 170.223C391.748 172.009 391.647 174.12 392.443 176.007L348.658 209.647ZM237.047 311.487C235.862 310.705 234.491 310.616 233.264 311.031L176.464 200.966C177.124 200.585 177.61 200.158 178.079 199.447C178.612 198.846 178.798 198.152 178.984 197.458L335.844 215.139C336.149 216.429 336.738 217.703 337.766 218.722L237.047 311.487ZM230.861 312.712C230.282 313.486 230.003 314.527 229.944 315.441L137.17 339.67C136.818 338.553 136.247 337.563 135.235 336.827C134.998 336.67 134.825 336.624 134.761 336.514L172.025 201.915C173.003 202.084 173.853 202.033 174.75 201.809L231.614 311.984C231.284 312.174 231.017 312.475 230.861 312.712ZM123.114 506.338C121.845 507.95 121.744 510.062 122.477 511.839L21.2427 553.419C20.7176 552.256 19.8625 551.283 18.8509 550.547L131.117 345.951L127.357 504.035C125.656 504.137 124.162 504.852 123.114 506.338ZM230.198 137.822C230.232 138.389 230.44 139.002 230.584 139.506L176.481 190.836C174.695 189.52 172.473 189.483 170.633 190.105L138.652 130.394C139.202 130.076 139.798 129.585 140.157 128.938C140.69 128.337 140.876 127.643 141.062 126.949L230.198 137.822ZM302.212 44.6157C304.345 46.0243 307.163 45.5707 308.745 43.4842C309.168 42.9466 309.464 42.1891 309.54 41.5585L350.267 46.0588C350.238 46.5158 350.382 47.0193 350.526 47.5229L238.823 132.695L302.212 44.6157ZM425.24 -23.481L356.913 42.0752C354.971 40.9967 352.436 41.4331 351.121 43.2192C350.855 43.5197 350.762 43.8667 350.605 44.1037L309.531 39.5105C309.45 39.117 309.369 38.7235 309.179 38.3934L425.24 -23.481ZM518.387 -90.7532C518.751 -90.3766 519.115 -90.0001 519.415 -89.7336C521.913 -87.9485 525.205 -88.0891 527.37 -89.9261L562.982 -63.5516C562.843 -63.0311 562.767 -62.4006 562.911 -61.8971L435.389 -29.7802L518.387 -90.7532ZM721.375 168.119C721.172 168.529 720.795 168.893 720.592 169.304L459.152 83.5178C459.739 80.9787 458.892 78.2411 456.632 76.6125C456.632 76.6125 456.632 76.6125 456.568 76.5025L565.273 -58.5674C566.268 -58.1149 567.182 -58.056 568.189 -58.344L722.174 167.217C721.907 167.518 721.641 167.818 721.375 168.119ZM563.644 -60.12C563.707 -60.01 563.834 -59.79 563.898 -59.68L454.926 75.6905C453.648 75.255 452.277 75.1665 451.05 75.5815L432.916 -22.6325C433.749 -22.967 434.566 -23.5849 435.145 -24.3595C435.991 -25.4345 436.253 -26.7591 436.121 -28.0031L563.644 -60.12ZM427.762 -23.1769C428.71 -22.5509 429.815 -22.1619 430.949 -22.2299L449.227 76.4875C448.567 76.8685 448.034 77.4695 447.501 78.0705C447.235 78.3711 446.922 78.8451 446.829 79.1921L359.153 46.2088C359.149 45.1848 359.034 44.2242 358.416 43.4077L427.762 -23.1769ZM396.189 168.271L357.026 49.6369C357.466 49.3829 357.953 48.9554 358.265 48.4814C358.312 48.3079 358.422 48.2444 358.578 48.0074L446.318 81.1007C446.136 82.8187 446.586 84.6128 447.695 86.0258L399.325 168.368C398.22 167.979 397.196 167.983 396.189 168.271ZM352.063 49.4224C352.537 49.7354 352.947 49.9385 353.468 50.078L342.738 206.758C340.58 206.831 338.473 207.754 337.048 209.603L239.249 139.783C240.125 138.251 239.895 136.33 239.07 134.9L351.699 49.0459C351.762 49.1559 351.999 49.3124 352.063 49.4224ZM132.853 336.002C131.308 335.867 129.688 336.363 128.558 337.455L57.6138 273.251C58.7726 271.702 58.8269 269.764 58.0477 268.16L168.14 199.758C168.504 200.135 168.868 200.511 169.232 200.888C169.469 201.044 169.706 201.201 170.053 201.294L132.853 336.002ZM-221.651 391.803L-77.7288 202.666C-76.3703 203.495 -74.9358 203.694 -73.5818 203.499L-26.8491 299.428C-27.2891 299.682 -27.5556 299.983 -27.8685 300.457C-28.7608 301.705 -28.8956 303.25 -28.417 304.587L-220.398 393.72C-220.732 392.886 -221.16 392.4 -221.651 391.803ZM136.828 131.3L168.937 191.231C168.56 191.596 168.294 191.896 167.917 192.26C166.602 194.046 166.391 196.221 167.188 198.108L56.9851 266.574C56.7481 266.417 56.6211 266.197 56.4476 266.151L56.384 266.041L132.605 131.098C133.947 131.643 135.428 131.668 136.828 131.3ZM-240.685 265.361C-240.748 265.251 -240.748 265.251 -240.812 265.141L-152.885 179.175C-152.821 179.285 -152.758 179.395 -152.584 179.442C-149.787 181.493 -145.899 180.862 -143.847 178.064C-143.691 177.827 -143.644 177.653 -143.488 177.416L-80.2274 197.068C-80.3033 197.699 -80.2692 198.266 -80.1252 198.769L-240.685 265.361ZM-3.554 137.84C-3.07998 138.153 -2.66946 138.356 -2.25895 138.559L-24.0654 298.408C-24.3488 298.425 -24.6323 298.442 -24.9158 298.459L-71.585 202.639C-70.9251 202.258 -70.3287 201.767 -69.8593 201.056C-68.3876 199.033 -68.4309 196.418 -69.7476 194.391L-3.93507 137.18C-4.02802 137.527 -3.79101 137.684 -3.554 137.84ZM50.2403 266.068C49.8003 266.322 49.5338 266.622 49.2209 267.096C48.3286 268.345 48.0667 269.669 48.3254 271.134L-20.5102 300.755C-20.8278 300.205 -21.2553 299.719 -21.7928 299.296C-21.9663 299.249 -22.0934 299.029 -22.2669 298.983L-0.414009 138.961C0.0429788 138.99 0.326486 138.973 0.719963 138.893L50.2403 266.068ZM-20.8047 305.326C-20.2253 304.551 -19.9464 303.51 -19.9975 302.66L49.0581 272.911C49.3756 273.461 49.8032 273.947 50.3407 274.37C50.6412 274.637 50.9882 274.73 51.2253 274.886L14.1324 548.724C13.9589 548.678 13.8489 548.741 13.5654 548.758L-22.3739 306.672C-21.714 306.291 -21.2276 305.863 -20.8047 305.326ZM16.0874 549.062L53.1338 275.398C54.2213 275.503 55.3381 275.152 56.1545 274.534L127.463 339.114C126.622 341.213 127.169 343.684 129.192 345.156L129.365 345.203L17.2554 549.561C16.7814 549.248 16.4344 549.155 16.0874 549.062ZM177.874 192.232L231.756 141.029C231.82 141.139 232.057 141.295 232.12 141.405C233.906 142.721 236.348 142.631 238.027 141.222L336.126 211.309C335.876 211.893 335.754 212.697 335.678 213.328L179.102 195.63C179.08 194.322 178.665 193.095 177.874 192.232ZM-73.5227 192.171C-75.6511 191.786 -77.885 192.489 -79.3102 194.339C-79.5767 194.639 -79.6696 194.986 -79.9361 195.287L-143.023 175.681C-142.622 173.836 -143.025 171.869 -144.307 170.409L13.0093 10.06L13.0728 10.17L13.2463 10.2165L-73.5227 192.171ZM872.185 -131.773L571.33 -63.8246C571.203 -64.0446 571.14 -64.1547 571.013 -64.3747L659.293 -145.411C659.53 -145.254 659.593 -145.144 659.83 -144.988C663.402 -142.357 668.425 -143.056 671.055 -146.628C671.901 -147.703 672.336 -148.981 672.488 -150.242L872.003 -133.867C872.037 -133.3 872.024 -132.56 872.185 -131.773ZM658.057 -147.044L569.887 -66.0712C568.037 -67.4968 565.503 -67.0603 564.014 -65.3207L528.766 -91.3186C529.861 -92.9777 530.089 -94.8693 529.64 -96.6633L657.548 -147.924C657.565 -147.64 657.756 -147.31 658.057 -147.044ZM130.946 130.002L54.5685 265.182C53.701 264.95 52.7405 265.064 51.9536 265.225L2.62383 138.38C3.56725 137.982 4.27366 137.428 4.89952 136.48C5.52539 135.532 5.97774 134.537 6.08311 133.45L128.914 126.482C129.283 127.883 129.918 128.983 130.946 130.002ZM-4.97899 129.276C-6.4507 131.299 -6.4709 133.804 -5.43769 135.848L-71.3601 193.122C-71.5336 193.076 -71.6607 192.856 -71.8342 192.809L15.0619 11.075L15.2354 11.1215L-0.689429 126.799C-2.32685 127.011 -3.86669 127.901 -4.97899 129.276ZM11.7902 8.71041L-145.683 169.297C-146.157 168.984 -146.677 168.844 -147.151 168.531L-100.974 -15.6551C-98.3883 -15.2411 -95.6045 -16.2616 -93.9128 -18.4117C-93.5999 -18.8857 -93.287 -19.3598 -93.0375 -19.9438L10.7772 4.16175C10.4689 5.6598 10.8546 7.34386 11.7902 8.71041ZM-104.067 -16.9492C-103.593 -16.6362 -103.293 -16.3697 -102.882 -16.1667L-149.106 168.193C-150.981 168.249 -152.758 168.981 -153.916 170.53L-239.41 111.353C-237.816 108.526 -238.084 105.014 -240.002 102.454L-104.668 -17.4822C-104.431 -17.3257 -104.304 -17.1057 -104.067 -16.9492ZM-251.151 113.878C-247.816 116.353 -243.297 115.797 -240.569 112.902L-154.838 172.236C-154.931 172.583 -155.024 172.93 -155.117 173.277L-353.532 156.267C-353.519 155.526 -353.68 154.739 -353.951 154.016L-253.48 111.115C-252.844 112.216 -252.053 113.079 -251.151 113.878ZM-355.053 161.252C-354.317 160.241 -353.865 159.246 -353.65 158.095L-155.235 175.105C-155.12 176.065 -154.786 176.899 -154.278 177.779L-242.314 263.808C-244.384 262.51 -246.999 262.553 -248.915 263.806L-355.43 161.616C-355.21 161.489 -355.1 161.426 -355.053 161.252ZM-240.652 272.529C-239.384 270.917 -239.219 268.915 -239.842 267.074L-79.6125 200.673C-79.4855 200.893 -79.2949 201.223 -79.0579 201.38L-223.247 390.818C-224.542 390.099 -226.04 389.79 -227.631 389.829L-243.825 274.654C-242.535 274.349 -241.498 273.604 -240.652 272.529ZM-219.399 395.196L-27.1979 305.937C-27.1344 306.047 -26.8974 306.203 -26.8338 306.313C-26.5333 306.58 -26.0128 306.719 -25.6023 306.922L-65.0545 462.878C-67.9235 462.481 -70.8172 463.565 -72.6019 466.062C-72.8683 466.363 -73.0713 466.773 -73.2742 467.184L-219.312 400.427C-218.847 398.692 -218.903 396.817 -219.399 395.196ZM-59.7987 475.537C-57.1682 471.965 -57.8683 466.943 -61.4405 464.312C-61.978 463.889 -62.6255 463.529 -63.3195 463.343L-24.0532 308.081L11.708 549.097C10.7011 549.385 9.71118 549.957 8.89479 550.575L-60.4881 476.375C-60.2216 476.075 -59.8916 475.884 -59.7987 475.537ZM400.967 169.18L449.024 87.3119C449.972 87.9379 451.076 88.3269 452.164 88.4324L482.629 189.207C481.859 189.652 481.153 190.207 480.62 190.808C480.041 191.582 479.808 192.45 479.576 193.317L403.275 174.447C403.503 172.556 402.753 170.495 400.967 169.18ZM488.524 189.765C487.275 188.872 485.887 188.5 484.533 188.695L454.212 88.4234C455.786 88.1014 457.216 87.2759 458.154 85.8538C458.311 85.6168 458.357 85.4433 458.514 85.2063L720.191 171.149C720.208 171.432 720.115 171.779 720.132 172.063L490.908 194.402C490.742 192.591 490.009 190.814 488.524 189.765ZM723.76 166.155L570.075 -59.14C570.405 -59.3305 570.672 -59.631 570.828 -59.868C571.298 -60.579 571.594 -61.3365 571.669 -61.967L872.635 -129.979C873.418 -127.351 875.036 -125.058 877.359 -123.32C877.833 -123.007 878.307 -122.694 878.718 -122.491L729.193 165.658C727.394 165.083 725.41 165.202 723.76 166.155ZM-88.3563 462.397L-124.712 449.213L-187.999 416.816L-88.3563 462.397Z"/>
</mask>
<path d="M893.032 -144.689C887.136 -149.059 878.903 -147.825 874.534 -141.929C873.219 -140.143 872.488 -138.108 872.103 -135.979L672.589 -152.354C672.343 -154.559 671.246 -156.712 669.396 -158.138C665.824 -160.769 660.802 -160.069 658.171 -156.497C656.7 -154.474 656.332 -152.062 656.862 -149.874L528.844 -98.5504C528.463 -99.2104 527.862 -99.7434 527.261 -100.276C524.399 -102.438 520.338 -101.853 518.24 -98.8819C516.878 -96.9224 516.621 -94.5738 517.544 -92.4667L434.436 -31.4303C434.372 -31.5403 434.199 -31.5867 434.135 -31.6967C431.812 -33.4353 428.6 -32.9013 426.972 -30.6412C425.97 -29.3292 425.725 -27.7212 426.157 -26.2106L307.96 37.0439C307.896 36.9339 307.833 36.8239 307.723 36.8874C305.636 35.3054 302.535 35.7759 300.953 37.8625C299.684 39.475 299.757 41.6331 300.773 43.3931L236.336 132.958C234.427 132.447 232.303 133.086 231.035 134.699C230.722 135.173 230.519 135.583 230.316 135.994L141.243 125.231C141.188 123.356 140.282 121.533 138.733 120.373C135.935 118.322 132.047 118.953 129.932 121.641C129.306 122.589 128.917 123.694 128.748 124.671L5.91742 131.639C5.54877 130.238 4.78661 128.918 3.53805 128.026C2.76351 127.446 2.00604 127.15 1.20205 127.027L17.1903 11.4595C19.0648 11.404 20.9516 10.608 22.1568 8.88544C24.3179 6.02435 23.6225 2.02571 20.7613 -0.135873C17.9002 -2.29745 13.9019 -1.60244 11.7408 1.25866C11.4743 1.55917 11.2714 1.96968 11.1784 2.31669L-92.5898 -21.9623C-92.2861 -24.4844 -93.2899 -26.985 -95.44 -28.6771C-98.7117 -31.0417 -103.167 -30.3761 -105.531 -27.1045C-107.316 -24.6075 -107.348 -21.3618 -105.841 -19.0053L-241.221 101.105C-241.285 100.995 -241.458 100.948 -241.522 100.838C-245.094 98.2071 -250.116 98.9066 -252.747 102.479C-254.218 104.502 -254.632 107.087 -254.039 109.385L-354.621 152.349C-355.129 151.469 -355.857 150.716 -356.695 150.026C-360.267 147.395 -365.289 148.095 -367.92 151.667C-370.55 155.239 -369.85 160.261 -366.278 162.893C-363.417 165.054 -359.494 164.99 -356.715 162.945L-250.311 265.198C-250.421 265.262 -250.421 265.262 -250.467 265.435C-252.409 268.169 -251.84 271.948 -249.216 273.953C-248.141 274.799 -246.926 275.125 -245.619 275.103L-229.488 390.168C-231.108 390.663 -232.475 391.599 -233.523 393.084C-236.154 396.656 -235.454 401.679 -231.882 404.31C-228.309 406.941 -223.287 406.242 -220.657 402.67C-220.547 402.606 -220.61 402.496 -220.5 402.433L-125.46 450.965L-74.2084 469.63C-74.605 472.499 -73.5207 475.393 -70.9601 477.288C-68.1624 479.34 -64.6336 479.356 -61.8374 477.594L7.60897 551.904L7.49899 551.967C4.8685 555.539 5.56861 560.562 9.14079 563.193C12.713 565.824 17.7352 565.125 20.3657 561.553C21.7274 559.593 22.1581 557.291 21.8019 555.15L123.366 513.379C123.666 513.646 123.967 513.912 124.268 514.179C126.828 516.074 130.323 515.523 132.218 512.962C134.112 510.401 133.561 506.906 131 505.011C130.463 504.588 129.879 504.339 129.185 504.153L132.928 345.786C134.109 345.544 135.382 344.956 136.164 343.771C136.634 343.06 137.04 342.239 137.162 341.435L230.22 317.189C230.491 317.912 231.045 318.619 231.82 319.199C233.906 320.781 236.834 320.264 238.416 318.177C239.621 316.454 239.658 314.233 238.422 312.6L339.095 220.008C342.223 221.869 346.331 221.111 348.539 218.076C350.01 216.053 350.314 213.531 349.501 211.361L393.459 177.767C393.696 177.924 393.887 178.254 394.124 178.41C396.685 180.306 400.289 179.691 402.074 177.194C402.341 176.893 402.434 176.546 402.59 176.309L479.522 195.255C479.827 196.546 480.525 197.756 481.664 198.712C484.161 200.497 487.719 200.056 489.504 197.559C489.707 197.148 490.02 196.674 490.113 196.327L720.014 173.891C720.336 175.465 721.272 176.831 722.648 177.944C725.746 180.262 730.201 179.597 732.519 176.498C734.836 173.4 734.17 168.945 731.072 166.627C731.008 166.517 730.835 166.47 730.771 166.36L880.296 -121.789C885.772 -119.67 892.161 -121.305 895.73 -126.299C900.226 -131.975 898.928 -140.319 893.032 -144.689ZM348.658 209.647C348.167 209.05 347.74 208.564 347.139 208.031C346.364 207.451 345.543 207.045 344.676 206.813L355.359 50.306L394.522 168.94C393.972 169.258 393.486 169.685 393.063 170.223C391.748 172.009 391.647 174.12 392.443 176.007L348.658 209.647ZM237.047 311.487C235.862 310.705 234.491 310.616 233.264 311.031L176.464 200.966C177.124 200.585 177.61 200.158 178.079 199.447C178.612 198.846 178.798 198.152 178.984 197.458L335.844 215.139C336.149 216.429 336.738 217.703 337.766 218.722L237.047 311.487ZM230.861 312.712C230.282 313.486 230.003 314.527 229.944 315.441L137.17 339.67C136.818 338.553 136.247 337.563 135.235 336.827C134.998 336.67 134.825 336.624 134.761 336.514L172.025 201.915C173.003 202.084 173.853 202.033 174.75 201.809L231.614 311.984C231.284 312.174 231.017 312.475 230.861 312.712ZM123.114 506.338C121.845 507.95 121.744 510.062 122.477 511.839L21.2427 553.419C20.7176 552.256 19.8625 551.283 18.8509 550.547L131.117 345.951L127.357 504.035C125.656 504.137 124.162 504.852 123.114 506.338ZM230.198 137.822C230.232 138.389 230.44 139.002 230.584 139.506L176.481 190.836C174.695 189.52 172.473 189.483 170.633 190.105L138.652 130.394C139.202 130.076 139.798 129.585 140.157 128.938C140.69 128.337 140.876 127.643 141.062 126.949L230.198 137.822ZM302.212 44.6157C304.345 46.0243 307.163 45.5707 308.745 43.4842C309.168 42.9466 309.464 42.1891 309.54 41.5585L350.267 46.0588C350.238 46.5158 350.382 47.0193 350.526 47.5229L238.823 132.695L302.212 44.6157ZM425.24 -23.481L356.913 42.0752C354.971 40.9967 352.436 41.4331 351.121 43.2192C350.855 43.5197 350.762 43.8667 350.605 44.1037L309.531 39.5105C309.45 39.117 309.369 38.7235 309.179 38.3934L425.24 -23.481ZM518.387 -90.7532C518.751 -90.3766 519.115 -90.0001 519.415 -89.7336C521.913 -87.9485 525.205 -88.0891 527.37 -89.9261L562.982 -63.5516C562.843 -63.0311 562.767 -62.4006 562.911 -61.8971L435.389 -29.7802L518.387 -90.7532ZM721.375 168.119C721.172 168.529 720.795 168.893 720.592 169.304L459.152 83.5178C459.739 80.9787 458.892 78.2411 456.632 76.6125C456.632 76.6125 456.632 76.6125 456.568 76.5025L565.273 -58.5674C566.268 -58.1149 567.182 -58.056 568.189 -58.344L722.174 167.217C721.907 167.518 721.641 167.818 721.375 168.119ZM563.644 -60.12C563.707 -60.01 563.834 -59.79 563.898 -59.68L454.926 75.6905C453.648 75.255 452.277 75.1665 451.05 75.5815L432.916 -22.6325C433.749 -22.967 434.566 -23.5849 435.145 -24.3595C435.991 -25.4345 436.253 -26.7591 436.121 -28.0031L563.644 -60.12ZM427.762 -23.1769C428.71 -22.5509 429.815 -22.1619 430.949 -22.2299L449.227 76.4875C448.567 76.8685 448.034 77.4695 447.501 78.0705C447.235 78.3711 446.922 78.8451 446.829 79.1921L359.153 46.2088C359.149 45.1848 359.034 44.2242 358.416 43.4077L427.762 -23.1769ZM396.189 168.271L357.026 49.6369C357.466 49.3829 357.953 48.9554 358.265 48.4814C358.312 48.3079 358.422 48.2444 358.578 48.0074L446.318 81.1007C446.136 82.8187 446.586 84.6128 447.695 86.0258L399.325 168.368C398.22 167.979 397.196 167.983 396.189 168.271ZM352.063 49.4224C352.537 49.7354 352.947 49.9385 353.468 50.078L342.738 206.758C340.58 206.831 338.473 207.754 337.048 209.603L239.249 139.783C240.125 138.251 239.895 136.33 239.07 134.9L351.699 49.0459C351.762 49.1559 351.999 49.3124 352.063 49.4224ZM132.853 336.002C131.308 335.867 129.688 336.363 128.558 337.455L57.6138 273.251C58.7726 271.702 58.8269 269.764 58.0477 268.16L168.14 199.758C168.504 200.135 168.868 200.511 169.232 200.888C169.469 201.044 169.706 201.201 170.053 201.294L132.853 336.002ZM-221.651 391.803L-77.7288 202.666C-76.3703 203.495 -74.9358 203.694 -73.5818 203.499L-26.8491 299.428C-27.2891 299.682 -27.5556 299.983 -27.8685 300.457C-28.7608 301.705 -28.8956 303.25 -28.417 304.587L-220.398 393.72C-220.732 392.886 -221.16 392.4 -221.651 391.803ZM136.828 131.3L168.937 191.231C168.56 191.596 168.294 191.896 167.917 192.26C166.602 194.046 166.391 196.221 167.188 198.108L56.9851 266.574C56.7481 266.417 56.6211 266.197 56.4476 266.151L56.384 266.041L132.605 131.098C133.947 131.643 135.428 131.668 136.828 131.3ZM-240.685 265.361C-240.748 265.251 -240.748 265.251 -240.812 265.141L-152.885 179.175C-152.821 179.285 -152.758 179.395 -152.584 179.442C-149.787 181.493 -145.899 180.862 -143.847 178.064C-143.691 177.827 -143.644 177.653 -143.488 177.416L-80.2274 197.068C-80.3033 197.699 -80.2692 198.266 -80.1252 198.769L-240.685 265.361ZM-3.554 137.84C-3.07998 138.153 -2.66946 138.356 -2.25895 138.559L-24.0654 298.408C-24.3488 298.425 -24.6323 298.442 -24.9158 298.459L-71.585 202.639C-70.9251 202.258 -70.3287 201.767 -69.8593 201.056C-68.3876 199.033 -68.4309 196.418 -69.7476 194.391L-3.93507 137.18C-4.02802 137.527 -3.79101 137.684 -3.554 137.84ZM50.2403 266.068C49.8003 266.322 49.5338 266.622 49.2209 267.096C48.3286 268.345 48.0667 269.669 48.3254 271.134L-20.5102 300.755C-20.8278 300.205 -21.2553 299.719 -21.7928 299.296C-21.9663 299.249 -22.0934 299.029 -22.2669 298.983L-0.414009 138.961C0.0429788 138.99 0.326486 138.973 0.719963 138.893L50.2403 266.068ZM-20.8047 305.326C-20.2253 304.551 -19.9464 303.51 -19.9975 302.66L49.0581 272.911C49.3756 273.461 49.8032 273.947 50.3407 274.37C50.6412 274.637 50.9882 274.73 51.2253 274.886L14.1324 548.724C13.9589 548.678 13.8489 548.741 13.5654 548.758L-22.3739 306.672C-21.714 306.291 -21.2276 305.863 -20.8047 305.326ZM16.0874 549.062L53.1338 275.398C54.2213 275.503 55.3381 275.152 56.1545 274.534L127.463 339.114C126.622 341.213 127.169 343.684 129.192 345.156L129.365 345.203L17.2554 549.561C16.7814 549.248 16.4344 549.155 16.0874 549.062ZM177.874 192.232L231.756 141.029C231.82 141.139 232.057 141.295 232.12 141.405C233.906 142.721 236.348 142.631 238.027 141.222L336.126 211.309C335.876 211.893 335.754 212.697 335.678 213.328L179.102 195.63C179.08 194.322 178.665 193.095 177.874 192.232ZM-73.5227 192.171C-75.6511 191.786 -77.885 192.489 -79.3102 194.339C-79.5767 194.639 -79.6696 194.986 -79.9361 195.287L-143.023 175.681C-142.622 173.836 -143.025 171.869 -144.307 170.409L13.0093 10.06L13.0728 10.17L13.2463 10.2165L-73.5227 192.171ZM872.185 -131.773L571.33 -63.8246C571.203 -64.0446 571.14 -64.1547 571.013 -64.3747L659.293 -145.411C659.53 -145.254 659.593 -145.144 659.83 -144.988C663.402 -142.357 668.425 -143.056 671.055 -146.628C671.901 -147.703 672.336 -148.981 672.488 -150.242L872.003 -133.867C872.037 -133.3 872.024 -132.56 872.185 -131.773ZM658.057 -147.044L569.887 -66.0712C568.037 -67.4968 565.503 -67.0603 564.014 -65.3207L528.766 -91.3186C529.861 -92.9777 530.089 -94.8693 529.64 -96.6633L657.548 -147.924C657.565 -147.64 657.756 -147.31 658.057 -147.044ZM130.946 130.002L54.5685 265.182C53.701 264.95 52.7405 265.064 51.9536 265.225L2.62383 138.38C3.56725 137.982 4.27366 137.428 4.89952 136.48C5.52539 135.532 5.97774 134.537 6.08311 133.45L128.914 126.482C129.283 127.883 129.918 128.983 130.946 130.002ZM-4.97899 129.276C-6.4507 131.299 -6.4709 133.804 -5.43769 135.848L-71.3601 193.122C-71.5336 193.076 -71.6607 192.856 -71.8342 192.809L15.0619 11.075L15.2354 11.1215L-0.689429 126.799C-2.32685 127.011 -3.86669 127.901 -4.97899 129.276ZM11.7902 8.71041L-145.683 169.297C-146.157 168.984 -146.677 168.844 -147.151 168.531L-100.974 -15.6551C-98.3883 -15.2411 -95.6045 -16.2616 -93.9128 -18.4117C-93.5999 -18.8857 -93.287 -19.3598 -93.0375 -19.9438L10.7772 4.16175C10.4689 5.6598 10.8546 7.34386 11.7902 8.71041ZM-104.067 -16.9492C-103.593 -16.6362 -103.293 -16.3697 -102.882 -16.1667L-149.106 168.193C-150.981 168.249 -152.758 168.981 -153.916 170.53L-239.41 111.353C-237.816 108.526 -238.084 105.014 -240.002 102.454L-104.668 -17.4822C-104.431 -17.3257 -104.304 -17.1057 -104.067 -16.9492ZM-251.151 113.878C-247.816 116.353 -243.297 115.797 -240.569 112.902L-154.838 172.236C-154.931 172.583 -155.024 172.93 -155.117 173.277L-353.532 156.267C-353.519 155.526 -353.68 154.739 -353.951 154.016L-253.48 111.115C-252.844 112.216 -252.053 113.079 -251.151 113.878ZM-355.053 161.252C-354.317 160.241 -353.865 159.246 -353.65 158.095L-155.235 175.105C-155.12 176.065 -154.786 176.899 -154.278 177.779L-242.314 263.808C-244.384 262.51 -246.999 262.553 -248.915 263.806L-355.43 161.616C-355.21 161.489 -355.1 161.426 -355.053 161.252ZM-240.652 272.529C-239.384 270.917 -239.219 268.915 -239.842 267.074L-79.6125 200.673C-79.4855 200.893 -79.2949 201.223 -79.0579 201.38L-223.247 390.818C-224.542 390.099 -226.04 389.79 -227.631 389.829L-243.825 274.654C-242.535 274.349 -241.498 273.604 -240.652 272.529ZM-219.399 395.196L-27.1979 305.937C-27.1344 306.047 -26.8974 306.203 -26.8338 306.313C-26.5333 306.58 -26.0128 306.719 -25.6023 306.922L-65.0545 462.878C-67.9235 462.481 -70.8172 463.565 -72.6019 466.062C-72.8683 466.363 -73.0713 466.773 -73.2742 467.184L-219.312 400.427C-218.847 398.692 -218.903 396.817 -219.399 395.196ZM-59.7987 475.537C-57.1682 471.965 -57.8683 466.943 -61.4405 464.312C-61.978 463.889 -62.6255 463.529 -63.3195 463.343L-24.0532 308.081L11.708 549.097C10.7011 549.385 9.71118 549.957 8.89479 550.575L-60.4881 476.375C-60.2216 476.075 -59.8916 475.884 -59.7987 475.537ZM400.967 169.18L449.024 87.3119C449.972 87.9379 451.076 88.3269 452.164 88.4324L482.629 189.207C481.859 189.652 481.153 190.207 480.62 190.808C480.041 191.582 479.808 192.45 479.576 193.317L403.275 174.447C403.503 172.556 402.753 170.495 400.967 169.18ZM488.524 189.765C487.275 188.872 485.887 188.5 484.533 188.695L454.212 88.4234C455.786 88.1014 457.216 87.2759 458.154 85.8538C458.311 85.6168 458.357 85.4433 458.514 85.2063L720.191 171.149C720.208 171.432 720.115 171.779 720.132 172.063L490.908 194.402C490.742 192.591 490.009 190.814 488.524 189.765ZM723.76 166.155L570.075 -59.14C570.405 -59.3305 570.672 -59.631 570.828 -59.868C571.298 -60.579 571.594 -61.3365 571.669 -61.967L872.635 -129.979C873.418 -127.351 875.036 -125.058 877.359 -123.32C877.833 -123.007 878.307 -122.694 878.718 -122.491L729.193 165.658C727.394 165.083 725.41 165.202 723.76 166.155ZM-88.3563 462.397L-124.712 449.213L-187.999 416.816L-88.3563 462.397Z" fill="white"/>
<path d="M893.032 -144.689C887.136 -149.059 878.903 -147.825 874.534 -141.929C873.219 -140.143 872.488 -138.108 872.103 -135.979L672.589 -152.354C672.343 -154.559 671.246 -156.712 669.396 -158.138C665.824 -160.769 660.802 -160.069 658.171 -156.497C656.7 -154.474 656.332 -152.062 656.862 -149.874L528.844 -98.5504C528.463 -99.2104 527.862 -99.7434 527.261 -100.276C524.399 -102.438 520.338 -101.853 518.24 -98.8819C516.878 -96.9224 516.621 -94.5738 517.544 -92.4667L434.436 -31.4303C434.372 -31.5403 434.199 -31.5867 434.135 -31.6967C431.812 -33.4353 428.6 -32.9013 426.972 -30.6412C425.97 -29.3292 425.725 -27.7212 426.157 -26.2106L307.96 37.0439C307.896 36.9339 307.833 36.8239 307.723 36.8874C305.636 35.3054 302.535 35.7759 300.953 37.8625C299.684 39.475 299.757 41.6331 300.773 43.3931L236.336 132.958C234.427 132.447 232.303 133.086 231.035 134.699C230.722 135.173 230.519 135.583 230.316 135.994L141.243 125.231C141.188 123.356 140.282 121.533 138.733 120.373C135.935 118.322 132.047 118.953 129.932 121.641C129.306 122.589 128.917 123.694 128.748 124.671L5.91742 131.639C5.54877 130.238 4.78661 128.918 3.53805 128.026C2.76351 127.446 2.00604 127.15 1.20205 127.027L17.1903 11.4595C19.0648 11.404 20.9516 10.608 22.1568 8.88544C24.3179 6.02435 23.6225 2.02571 20.7613 -0.135873C17.9002 -2.29745 13.9019 -1.60244 11.7408 1.25866C11.4743 1.55917 11.2714 1.96968 11.1784 2.31669L-92.5898 -21.9623C-92.2861 -24.4844 -93.2899 -26.985 -95.44 -28.6771C-98.7117 -31.0417 -103.167 -30.3761 -105.531 -27.1045C-107.316 -24.6075 -107.348 -21.3618 -105.841 -19.0053L-241.221 101.105C-241.285 100.995 -241.458 100.948 -241.522 100.838C-245.094 98.2071 -250.116 98.9066 -252.747 102.479C-254.218 104.502 -254.632 107.087 -254.039 109.385L-354.621 152.349C-355.129 151.469 -355.857 150.716 -356.695 150.026C-360.267 147.395 -365.289 148.095 -367.92 151.667C-370.55 155.239 -369.85 160.261 -366.278 162.893C-363.417 165.054 -359.494 164.99 -356.715 162.945L-250.311 265.198C-250.421 265.262 -250.421 265.262 -250.467 265.435C-252.409 268.169 -251.84 271.948 -249.216 273.953C-248.141 274.799 -246.926 275.125 -245.619 275.103L-229.488 390.168C-231.108 390.663 -232.475 391.599 -233.523 393.084C-236.154 396.656 -235.454 401.679 -231.882 404.31C-228.309 406.941 -223.287 406.242 -220.657 402.67C-220.547 402.606 -220.61 402.496 -220.5 402.433L-125.46 450.965L-74.2084 469.63C-74.605 472.499 -73.5207 475.393 -70.9601 477.288C-68.1624 479.34 -64.6336 479.356 -61.8374 477.594L7.60897 551.904L7.49899 551.967C4.8685 555.539 5.56861 560.562 9.14079 563.193C12.713 565.824 17.7352 565.125 20.3657 561.553C21.7274 559.593 22.1581 557.291 21.8019 555.15L123.366 513.379C123.666 513.646 123.967 513.912 124.268 514.179C126.828 516.074 130.323 515.523 132.218 512.962C134.112 510.401 133.561 506.906 131 505.011C130.463 504.588 129.879 504.339 129.185 504.153L132.928 345.786C134.109 345.544 135.382 344.956 136.164 343.771C136.634 343.06 137.04 342.239 137.162 341.435L230.22 317.189C230.491 317.912 231.045 318.619 231.82 319.199C233.906 320.781 236.834 320.264 238.416 318.177C239.621 316.454 239.658 314.233 238.422 312.6L339.095 220.008C342.223 221.869 346.331 221.111 348.539 218.076C350.01 216.053 350.314 213.531 349.501 211.361L393.459 177.767C393.696 177.924 393.887 178.254 394.124 178.41C396.685 180.306 400.289 179.691 402.074 177.194C402.341 176.893 402.434 176.546 402.59 176.309L479.522 195.255C479.827 196.546 480.525 197.756 481.664 198.712C484.161 200.497 487.719 200.056 489.504 197.559C489.707 197.148 490.02 196.674 490.113 196.327L720.014 173.891C720.336 175.465 721.272 176.831 722.648 177.944C725.746 180.262 730.201 179.597 732.519 176.498C734.836 173.4 734.17 168.945 731.072 166.627C731.008 166.517 730.835 166.47 730.771 166.36L880.296 -121.789C885.772 -119.67 892.161 -121.305 895.73 -126.299C900.226 -131.975 898.928 -140.319 893.032 -144.689ZM348.658 209.647C348.167 209.05 347.74 208.564 347.139 208.031C346.364 207.451 345.543 207.045 344.676 206.813L355.359 50.306L394.522 168.94C393.972 169.258 393.486 169.685 393.063 170.223C391.748 172.009 391.647 174.12 392.443 176.007L348.658 209.647ZM237.047 311.487C235.862 310.705 234.491 310.616 233.264 311.031L176.464 200.966C177.124 200.585 177.61 200.158 178.079 199.447C178.612 198.846 178.798 198.152 178.984 197.458L335.844 215.139C336.149 216.429 336.738 217.703 337.766 218.722L237.047 311.487ZM230.861 312.712C230.282 313.486 230.003 314.527 229.944 315.441L137.17 339.67C136.818 338.553 136.247 337.563 135.235 336.827C134.998 336.67 134.825 336.624 134.761 336.514L172.025 201.915C173.003 202.084 173.853 202.033 174.75 201.809L231.614 311.984C231.284 312.174 231.017 312.475 230.861 312.712ZM123.114 506.338C121.845 507.95 121.744 510.062 122.477 511.839L21.2427 553.419C20.7176 552.256 19.8625 551.283 18.8509 550.547L131.117 345.951L127.357 504.035C125.656 504.137 124.162 504.852 123.114 506.338ZM230.198 137.822C230.232 138.389 230.44 139.002 230.584 139.506L176.481 190.836C174.695 189.52 172.473 189.483 170.633 190.105L138.652 130.394C139.202 130.076 139.798 129.585 140.157 128.938C140.69 128.337 140.876 127.643 141.062 126.949L230.198 137.822ZM302.212 44.6157C304.345 46.0243 307.163 45.5707 308.745 43.4842C309.168 42.9466 309.464 42.1891 309.54 41.5585L350.267 46.0588C350.238 46.5158 350.382 47.0193 350.526 47.5229L238.823 132.695L302.212 44.6157ZM425.24 -23.481L356.913 42.0752C354.971 40.9967 352.436 41.4331 351.121 43.2192C350.855 43.5197 350.762 43.8667 350.605 44.1037L309.531 39.5105C309.45 39.117 309.369 38.7235 309.179 38.3934L425.24 -23.481ZM518.387 -90.7532C518.751 -90.3766 519.115 -90.0001 519.415 -89.7336C521.913 -87.9485 525.205 -88.0891 527.37 -89.9261L562.982 -63.5516C562.843 -63.0311 562.767 -62.4006 562.911 -61.8971L435.389 -29.7802L518.387 -90.7532ZM721.375 168.119C721.172 168.529 720.795 168.893 720.592 169.304L459.152 83.5178C459.739 80.9787 458.892 78.2411 456.632 76.6125C456.632 76.6125 456.632 76.6125 456.568 76.5025L565.273 -58.5674C566.268 -58.1149 567.182 -58.056 568.189 -58.344L722.174 167.217C721.907 167.518 721.641 167.818 721.375 168.119ZM563.644 -60.12C563.707 -60.01 563.834 -59.79 563.898 -59.68L454.926 75.6905C453.648 75.255 452.277 75.1665 451.05 75.5815L432.916 -22.6325C433.749 -22.967 434.566 -23.5849 435.145 -24.3595C435.991 -25.4345 436.253 -26.7591 436.121 -28.0031L563.644 -60.12ZM427.762 -23.1769C428.71 -22.5509 429.815 -22.1619 430.949 -22.2299L449.227 76.4875C448.567 76.8685 448.034 77.4695 447.501 78.0705C447.235 78.3711 446.922 78.8451 446.829 79.1921L359.153 46.2088C359.149 45.1848 359.034 44.2242 358.416 43.4077L427.762 -23.1769ZM396.189 168.271L357.026 49.6369C357.466 49.3829 357.953 48.9554 358.265 48.4814C358.312 48.3079 358.422 48.2444 358.578 48.0074L446.318 81.1007C446.136 82.8187 446.586 84.6128 447.695 86.0258L399.325 168.368C398.22 167.979 397.196 167.983 396.189 168.271ZM352.063 49.4224C352.537 49.7354 352.947 49.9385 353.468 50.078L342.738 206.758C340.58 206.831 338.473 207.754 337.048 209.603L239.249 139.783C240.125 138.251 239.895 136.33 239.07 134.9L351.699 49.0459C351.762 49.1559 351.999 49.3124 352.063 49.4224ZM132.853 336.002C131.308 335.867 129.688 336.363 128.558 337.455L57.6138 273.251C58.7726 271.702 58.8269 269.764 58.0477 268.16L168.14 199.758C168.504 200.135 168.868 200.511 169.232 200.888C169.469 201.044 169.706 201.201 170.053 201.294L132.853 336.002ZM-221.651 391.803L-77.7288 202.666C-76.3703 203.495 -74.9358 203.694 -73.5818 203.499L-26.8491 299.428C-27.2891 299.682 -27.5556 299.983 -27.8685 300.457C-28.7608 301.705 -28.8956 303.25 -28.417 304.587L-220.398 393.72C-220.732 392.886 -221.16 392.4 -221.651 391.803ZM136.828 131.3L168.937 191.231C168.56 191.596 168.294 191.896 167.917 192.26C166.602 194.046 166.391 196.221 167.188 198.108L56.9851 266.574C56.7481 266.417 56.6211 266.197 56.4476 266.151L56.384 266.041L132.605 131.098C133.947 131.643 135.428 131.668 136.828 131.3ZM-240.685 265.361C-240.748 265.251 -240.748 265.251 -240.812 265.141L-152.885 179.175C-152.821 179.285 -152.758 179.395 -152.584 179.442C-149.787 181.493 -145.899 180.862 -143.847 178.064C-143.691 177.827 -143.644 177.653 -143.488 177.416L-80.2274 197.068C-80.3033 197.699 -80.2692 198.266 -80.1252 198.769L-240.685 265.361ZM-3.554 137.84C-3.07998 138.153 -2.66946 138.356 -2.25895 138.559L-24.0654 298.408C-24.3488 298.425 -24.6323 298.442 -24.9158 298.459L-71.585 202.639C-70.9251 202.258 -70.3287 201.767 -69.8593 201.056C-68.3876 199.033 -68.4309 196.418 -69.7476 194.391L-3.93507 137.18C-4.02802 137.527 -3.79101 137.684 -3.554 137.84ZM50.2403 266.068C49.8003 266.322 49.5338 266.622 49.2209 267.096C48.3286 268.345 48.0667 269.669 48.3254 271.134L-20.5102 300.755C-20.8278 300.205 -21.2553 299.719 -21.7928 299.296C-21.9663 299.249 -22.0934 299.029 -22.2669 298.983L-0.414009 138.961C0.0429788 138.99 0.326486 138.973 0.719963 138.893L50.2403 266.068ZM-20.8047 305.326C-20.2253 304.551 -19.9464 303.51 -19.9975 302.66L49.0581 272.911C49.3756 273.461 49.8032 273.947 50.3407 274.37C50.6412 274.637 50.9882 274.73 51.2253 274.886L14.1324 548.724C13.9589 548.678 13.8489 548.741 13.5654 548.758L-22.3739 306.672C-21.714 306.291 -21.2276 305.863 -20.8047 305.326ZM16.0874 549.062L53.1338 275.398C54.2213 275.503 55.3381 275.152 56.1545 274.534L127.463 339.114C126.622 341.213 127.169 343.684 129.192 345.156L129.365 345.203L17.2554 549.561C16.7814 549.248 16.4344 549.155 16.0874 549.062ZM177.874 192.232L231.756 141.029C231.82 141.139 232.057 141.295 232.12 141.405C233.906 142.721 236.348 142.631 238.027 141.222L336.126 211.309C335.876 211.893 335.754 212.697 335.678 213.328L179.102 195.63C179.08 194.322 178.665 193.095 177.874 192.232ZM-73.5227 192.171C-75.6511 191.786 -77.885 192.489 -79.3102 194.339C-79.5767 194.639 -79.6696 194.986 -79.9361 195.287L-143.023 175.681C-142.622 173.836 -143.025 171.869 -144.307 170.409L13.0093 10.06L13.0728 10.17L13.2463 10.2165L-73.5227 192.171ZM872.185 -131.773L571.33 -63.8246C571.203 -64.0446 571.14 -64.1547 571.013 -64.3747L659.293 -145.411C659.53 -145.254 659.593 -145.144 659.83 -144.988C663.402 -142.357 668.425 -143.056 671.055 -146.628C671.901 -147.703 672.336 -148.981 672.488 -150.242L872.003 -133.867C872.037 -133.3 872.024 -132.56 872.185 -131.773ZM658.057 -147.044L569.887 -66.0712C568.037 -67.4968 565.503 -67.0603 564.014 -65.3207L528.766 -91.3186C529.861 -92.9777 530.089 -94.8693 529.64 -96.6633L657.548 -147.924C657.565 -147.64 657.756 -147.31 658.057 -147.044ZM130.946 130.002L54.5685 265.182C53.701 264.95 52.7405 265.064 51.9536 265.225L2.62383 138.38C3.56725 137.982 4.27366 137.428 4.89952 136.48C5.52539 135.532 5.97774 134.537 6.08311 133.45L128.914 126.482C129.283 127.883 129.918 128.983 130.946 130.002ZM-4.97899 129.276C-6.4507 131.299 -6.4709 133.804 -5.43769 135.848L-71.3601 193.122C-71.5336 193.076 -71.6607 192.856 -71.8342 192.809L15.0619 11.075L15.2354 11.1215L-0.689429 126.799C-2.32685 127.011 -3.86669 127.901 -4.97899 129.276ZM11.7902 8.71041L-145.683 169.297C-146.157 168.984 -146.677 168.844 -147.151 168.531L-100.974 -15.6551C-98.3883 -15.2411 -95.6045 -16.2616 -93.9128 -18.4117C-93.5999 -18.8857 -93.287 -19.3598 -93.0375 -19.9438L10.7772 4.16175C10.4689 5.6598 10.8546 7.34386 11.7902 8.71041ZM-104.067 -16.9492C-103.593 -16.6362 -103.293 -16.3697 -102.882 -16.1667L-149.106 168.193C-150.981 168.249 -152.758 168.981 -153.916 170.53L-239.41 111.353C-237.816 108.526 -238.084 105.014 -240.002 102.454L-104.668 -17.4822C-104.431 -17.3257 -104.304 -17.1057 -104.067 -16.9492ZM-251.151 113.878C-247.816 116.353 -243.297 115.797 -240.569 112.902L-154.838 172.236C-154.931 172.583 -155.024 172.93 -155.117 173.277L-353.532 156.267C-353.519 155.526 -353.68 154.739 -353.951 154.016L-253.48 111.115C-252.844 112.216 -252.053 113.079 -251.151 113.878ZM-355.053 161.252C-354.317 160.241 -353.865 159.246 -353.65 158.095L-155.235 175.105C-155.12 176.065 -154.786 176.899 -154.278 177.779L-242.314 263.808C-244.384 262.51 -246.999 262.553 -248.915 263.806L-355.43 161.616C-355.21 161.489 -355.1 161.426 -355.053 161.252ZM-240.652 272.529C-239.384 270.917 -239.219 268.915 -239.842 267.074L-79.6125 200.673C-79.4855 200.893 -79.2949 201.223 -79.0579 201.38L-223.247 390.818C-224.542 390.099 -226.04 389.79 -227.631 389.829L-243.825 274.654C-242.535 274.349 -241.498 273.604 -240.652 272.529ZM-219.399 395.196L-27.1979 305.937C-27.1344 306.047 -26.8974 306.203 -26.8338 306.313C-26.5333 306.58 -26.0128 306.719 -25.6023 306.922L-65.0545 462.878C-67.9235 462.481 -70.8172 463.565 -72.6019 466.062C-72.8683 466.363 -73.0713 466.773 -73.2742 467.184L-219.312 400.427C-218.847 398.692 -218.903 396.817 -219.399 395.196ZM-59.7987 475.537C-57.1682 471.965 -57.8683 466.943 -61.4405 464.312C-61.978 463.889 -62.6255 463.529 -63.3195 463.343L-24.0532 308.081L11.708 549.097C10.7011 549.385 9.71118 549.957 8.89479 550.575L-60.4881 476.375C-60.2216 476.075 -59.8916 475.884 -59.7987 475.537ZM400.967 169.18L449.024 87.3119C449.972 87.9379 451.076 88.3269 452.164 88.4324L482.629 189.207C481.859 189.652 481.153 190.207 480.62 190.808C480.041 191.582 479.808 192.45 479.576 193.317L403.275 174.447C403.503 172.556 402.753 170.495 400.967 169.18ZM488.524 189.765C487.275 188.872 485.887 188.5 484.533 188.695L454.212 88.4234C455.786 88.1014 457.216 87.2759 458.154 85.8538C458.311 85.6168 458.357 85.4433 458.514 85.2063L720.191 171.149C720.208 171.432 720.115 171.779 720.132 172.063L490.908 194.402C490.742 192.591 490.009 190.814 488.524 189.765ZM723.76 166.155L570.075 -59.14C570.405 -59.3305 570.672 -59.631 570.828 -59.868C571.298 -60.579 571.594 -61.3365 571.669 -61.967L872.635 -129.979C873.418 -127.351 875.036 -125.058 877.359 -123.32C877.833 -123.007 878.307 -122.694 878.718 -122.491L729.193 165.658C727.394 165.083 725.41 165.202 723.76 166.155ZM-88.3563 462.397L-124.712 449.213L-187.999 416.816L-88.3563 462.397Z" stroke="white" stroke-width="0.574993" mask="url(#path-2-outside-1)"/>
</g>
</g>
</svg>
