<svg width="260" height="220" viewBox="0 0 260 220" fill="none" xmlns="http://www.w3.org/2000/svg">
<mask id="mask0" mask-type="alpha" maskUnits="userSpaceOnUse" x="0" y="0" width="260" height="220">
<rect width="260" height="220" fill="#C4C4C4"/>
</mask>
<g mask="url(#mask0)">
<g opacity="0.1">
<mask id="path-2-outside-1" maskUnits="userSpaceOnUse" x="-274.406" y="-178.238" width="587.221" height="542.845" fill="black">
<rect fill="white" x="-274.406" y="-178.238" width="587.221" height="542.845"/>
<path d="M257.919 -41.8909C255.106 -43.3794 251.657 -42.3131 250.169 -39.5005C249.721 -38.6489 249.541 -37.7285 249.515 -36.7909L162.913 -30.7888C162.663 -31.7178 162.052 -32.5695 161.166 -33.0599C159.463 -33.9548 157.356 -33.327 156.461 -31.624C155.962 -30.6606 155.962 -29.6025 156.332 -28.6993L104.8 1.65946C104.593 1.40138 104.301 1.2121 104.008 1.02282C102.641 0.282881 100.937 0.798799 100.232 2.20944C99.7762 3.1384 99.8192 4.16206 100.352 5.00512L68.707 36.5964C68.6726 36.5534 68.5952 36.5448 68.5608 36.5018C67.4511 35.9081 66.1093 36.3466 65.5588 37.4218C65.2147 38.0497 65.2147 38.7551 65.4986 39.3745L18.9549 74.2069C18.9205 74.1639 18.8861 74.1209 18.8431 74.1553C17.8453 73.6132 16.5464 74.0174 16.0045 75.0151C15.5658 75.7893 15.7379 76.7097 16.2884 77.3979L-5.49076 120.001C-6.34234 119.906 -7.2111 120.319 -7.64978 121.093C-7.753 121.317 -7.81323 121.506 -7.87344 121.695L-46.7619 122.895C-46.9082 122.095 -47.4157 121.372 -48.1554 120.976C-49.4887 120.279 -51.1145 120.804 -51.8456 122.094C-52.052 122.541 -52.1466 123.04 -52.1552 123.47L-104.359 134.475C-104.609 133.898 -105.022 133.382 -105.615 133.081C-105.985 132.883 -106.329 132.806 -106.682 132.806L-107.37 82.217C-106.57 82.0709 -105.814 81.6065 -105.409 80.7893C-104.669 79.4217 -105.229 77.7528 -106.596 77.0129C-107.964 76.2729 -109.633 76.8319 -110.372 78.1995C-110.467 78.3457 -110.527 78.535 -110.544 78.6898L-156.616 75.0541C-156.65 73.953 -157.243 72.9465 -158.276 72.3614C-159.833 71.5612 -161.699 72.1373 -162.499 73.6942C-163.101 74.8812 -162.903 76.2748 -162.103 77.1867L-212.303 137.515C-212.337 137.472 -212.414 137.463 -212.449 137.42C-214.152 136.526 -216.259 137.153 -217.154 138.856C-217.653 139.82 -217.661 140.955 -217.257 141.901L-257.573 166.885C-257.849 166.541 -258.21 166.266 -258.614 166.025C-260.317 165.13 -262.425 165.758 -263.319 167.461C-264.214 169.164 -263.586 171.272 -261.883 172.166C-260.515 172.906 -258.838 172.623 -257.78 171.565L-205.489 208.457C-205.532 208.491 -205.532 208.491 -205.541 208.569C-206.194 209.867 -205.704 211.45 -204.448 212.139C-203.932 212.431 -203.39 212.491 -202.831 212.397L-188.405 260.673C-189.068 260.991 -189.592 261.482 -189.945 262.187C-190.84 263.89 -190.212 265.997 -188.509 266.892C-186.805 267.787 -184.698 267.159 -183.803 265.456C-183.76 265.422 -183.795 265.379 -183.752 265.345L-139.84 279.948L-116.649 284.604C-116.632 285.86 -115.978 287.03 -114.757 287.675C-113.424 288.372 -111.91 288.149 -110.826 287.211L-76.2035 314.536L-76.2465 314.57C-77.1411 316.273 -76.5131 318.381 -74.8099 319.275C-73.1068 320.17 -70.9994 319.543 -70.1048 317.839C-69.6489 316.91 -69.6145 315.895 -69.907 315.001L-29.092 290.464C-28.9457 290.559 -28.7995 290.654 -28.6533 290.748C-27.4318 291.394 -25.9695 290.929 -25.3244 289.708C-24.6793 288.486 -25.1438 287.024 -26.3653 286.379C-26.6233 286.232 -26.89 286.164 -27.1996 286.129L-35.9312 217.991C-35.4409 217.811 -34.9334 217.475 -34.6754 216.916C-34.5206 216.581 -34.4001 216.202 -34.4001 215.85L3.9119 199.382C4.07534 199.674 4.3592 199.941 4.72907 200.139C5.72688 200.681 6.94832 200.268 7.49022 199.27C7.89449 198.453 7.76544 197.498 7.1289 196.879L44.245 150.613C45.7073 151.207 47.419 150.614 48.1673 149.168C48.6662 148.205 48.6318 147.104 48.1415 146.227L64.7943 128.956C64.9061 129.007 65.0093 129.136 65.1212 129.188C66.3426 129.833 67.8479 129.335 68.45 128.148C68.5447 128.001 68.5619 127.847 68.6135 127.735L102.831 130.836C103.046 131.369 103.425 131.842 103.975 132.178C105.162 132.78 106.659 132.359 107.261 131.172C107.321 130.983 107.425 130.759 107.442 130.604L204.538 105.98C204.779 106.634 205.269 107.158 205.932 107.546C207.411 108.337 209.278 107.761 210.069 106.282C210.86 104.802 210.284 102.935 208.805 102.144C208.77 102.101 208.693 102.092 208.658 102.049L253.954 -31.242C256.44 -30.6912 259.072 -31.8092 260.276 -34.1832C261.833 -36.9098 260.732 -40.4024 257.919 -41.8909ZM47.6684 145.547C47.4189 145.323 47.2039 145.143 46.9114 144.953C46.5416 144.755 46.1631 144.635 45.776 144.592L40.141 76.7987L64.6738 125.102C64.4588 125.274 64.2781 125.489 64.1319 125.747C63.6846 126.599 63.7793 127.511 64.2438 128.268L47.6684 145.547ZM6.46658 196.492C5.90746 196.234 5.31395 196.285 4.81505 196.543L-26.7195 153.065C-26.4615 152.858 -26.2808 152.643 -26.126 152.308C-25.9367 152.015 -25.9023 151.706 -25.8679 151.396L42.5332 148.738C42.7482 149.271 43.0837 149.779 43.5912 150.149L6.46658 196.492ZM3.89467 197.42C3.69683 197.79 3.64522 198.255 3.67963 198.65L-34.512 215.093C-34.7356 214.637 -35.0453 214.25 -35.527 214C-35.6388 213.949 -35.7162 213.94 -35.7506 213.897L-28.5603 153.761C-28.1302 153.77 -27.7689 153.692 -27.3991 153.538L4.16992 197.059C4.04089 197.162 3.94628 197.309 3.89467 197.42ZM-29.6597 287.462C-30.0984 288.236 -30.0038 289.148 -29.5737 289.862L-70.2597 314.295C-70.5607 313.831 -70.9909 313.47 -71.4726 313.22L-36.6968 218.181L-27.991 286.198C-28.7135 286.353 -29.307 286.757 -29.6597 287.462ZM-7.8046 122.487C-7.75299 122.728 -7.62396 122.977 -7.52934 123.184L-27.3733 148.72C-28.2249 148.273 -29.1797 148.402 -29.928 148.789L-47.5361 125.277C-47.321 125.105 -47.0974 124.856 -46.9856 124.555C-46.7963 124.263 -46.7619 123.953 -46.7275 123.643L-7.8046 122.487ZM16.9851 77.8281C17.9915 78.2928 19.17 77.9144 19.7119 76.9166C19.8581 76.6586 19.9355 76.3145 19.9269 76.0392L37.6809 75.3103C37.6981 75.5081 37.7927 75.7146 37.8874 75.921L-4.44134 119.726L16.9851 77.8281ZM65.2836 40.6045L40.27 73.1687C39.3668 72.8331 38.3089 73.1856 37.8616 74.0372C37.767 74.1834 37.7497 74.3383 37.6981 74.4501L19.7893 75.1618C19.7291 74.9984 19.6689 74.8349 19.5656 74.7059L65.2836 40.6045ZM100.826 5.68472C101.006 5.82238 101.187 5.96005 101.333 6.05469C102.52 6.65698 103.922 6.38187 104.731 5.45295L121.719 14.4355C121.694 14.6678 121.702 14.9431 121.797 15.1495L69.2231 37.2416L100.826 5.68472ZM204.745 103.416C204.684 103.606 204.547 103.786 204.487 103.976L86.8057 84.2624C86.8917 83.1356 86.3497 82.0172 85.2745 81.4666C85.2745 81.4666 85.2745 81.4666 85.2401 81.4236L123.027 16.4228C123.483 16.5519 123.878 16.5175 124.291 16.3283L205.028 102.978C204.934 103.124 204.839 103.27 204.745 103.416ZM122.227 15.8635C122.261 15.9066 122.33 15.9926 122.365 16.0356L84.4832 81.1826C83.9068 81.0793 83.3133 81.1309 82.8144 81.3889L68.6297 40.4673C68.9651 40.2695 69.2748 39.9513 69.4726 39.5814C69.765 39.0653 69.7909 38.4804 69.6532 37.9556L122.227 15.8635ZM66.3846 40.5703C66.8319 40.7768 67.3308 40.8714 67.8125 40.7683L82.0919 81.8963C81.8338 82.1027 81.6446 82.3951 81.4554 82.6876C81.3608 82.8338 81.2575 83.0575 81.2403 83.2123L41.5001 74.7946C41.4313 74.3559 41.3195 73.9516 41.0012 73.6419L66.3846 40.5703ZM65.3448 124.706L40.812 76.4031C40.984 76.2655 41.1647 76.0505 41.2679 75.8268C41.2765 75.7494 41.3195 75.715 41.3711 75.6032L81.1457 84.0639C81.1801 84.8123 81.4898 85.5521 82.0575 86.0855L66.6952 124.543C66.1963 124.449 65.7576 124.517 65.3448 124.706ZM38.6702 76.6351C38.8938 76.7384 39.083 76.7986 39.3153 76.8244L44.9416 144.695C44.0212 144.867 43.1783 145.4 42.688 146.286L-3.79618 122.737C-3.52093 122.023 -3.74458 121.214 -4.19188 120.655L38.4895 76.4975C38.5239 76.5405 38.6358 76.5921 38.6702 76.6351ZM-36.6022 213.802C-37.2731 213.845 -37.9355 214.163 -38.3483 214.705L-72.9535 191.811C-72.5578 191.071 -72.661 190.237 -73.0997 189.6L-30.3666 153.09C-30.186 153.228 -30.0054 153.365 -29.8247 153.503C-29.7129 153.555 -29.6011 153.606 -29.4463 153.623L-36.6022 213.802ZM-184.939 260.863L-135.583 170.384C-134.947 170.651 -134.319 170.642 -133.751 170.47L-107.455 208.546C-107.627 208.684 -107.722 208.83 -107.825 209.054C-108.126 209.647 -108.083 210.318 -107.79 210.86L-184.277 261.603C-184.474 261.267 -184.689 261.086 -184.939 260.863ZM-48.2586 125.785L-30.5817 149.382C-30.7194 149.563 -30.814 149.709 -30.9516 149.89C-31.3989 150.741 -31.3473 151.688 -30.8828 152.445L-73.6589 188.989C-73.7707 188.938 -73.8395 188.852 -73.9169 188.843L-73.9513 188.8L-50.0822 125.974C-49.4715 126.12 -48.8349 126.034 -48.2586 125.785ZM-201.352 207.898C-201.386 207.855 -201.386 207.855 -201.421 207.812L-169.336 165.219C-169.302 165.262 -169.268 165.305 -169.19 165.313C-167.857 166.01 -166.231 165.486 -165.535 164.153C-165.483 164.041 -165.474 163.963 -165.423 163.852L-137.02 168.148C-137.011 168.423 -136.959 168.664 -136.865 168.87L-201.352 207.898ZM-108.015 137.752C-107.791 137.855 -107.602 137.915 -107.413 137.975L-106.328 207.927C-106.449 207.953 -106.569 207.979 -106.689 208.004L-132.951 169.972C-132.693 169.765 -132.469 169.516 -132.314 169.18C-131.816 168.217 -132.005 167.099 -132.702 166.316L-108.221 137.493C-108.239 137.648 -108.127 137.7 -108.015 137.752ZM-76.5834 189.213C-76.7555 189.35 -76.8501 189.497 -76.9533 189.72C-77.2544 190.314 -77.2802 190.899 -77.0737 191.509L-104.651 208.701C-104.823 208.486 -105.038 208.306 -105.296 208.159C-105.373 208.151 -105.442 208.065 -105.52 208.056L-106.596 138.027C-106.398 138.01 -106.277 137.984 -106.114 137.924L-76.5834 189.213ZM-104.479 210.68C-104.281 210.31 -104.229 209.846 -104.307 209.484L-76.6436 192.223C-76.4716 192.438 -76.2566 192.619 -75.9985 192.765C-75.8523 192.86 -75.6974 192.877 -75.5856 192.929L-73.6144 312.747C-73.6918 312.738 -73.7348 312.772 -73.8552 312.798L-105.064 211.359C-104.806 211.153 -104.625 210.938 -104.479 210.68ZM-72.7542 312.764L-74.734 193.024C-74.2609 192.998 -73.805 192.774 -73.4954 192.456L-38.7096 215.488C-38.9332 216.443 -38.5376 217.466 -37.5742 217.965L-37.4967 217.974L-72.2209 312.902C-72.4445 312.798 -72.5994 312.781 -72.7542 312.764ZM-26.6852 149.228L-6.92722 123.76C-6.89281 123.803 -6.78097 123.855 -6.74657 123.898C-5.89499 124.345 -4.85417 124.147 -4.22625 123.433L42.4041 147.077C42.3353 147.344 42.3353 147.697 42.3439 147.972L-25.9368 150.604C-26.0314 150.045 -26.2895 149.546 -26.6852 149.228ZM-134.465 165.61C-135.403 165.584 -136.314 166.031 -136.805 166.917C-136.899 167.064 -136.916 167.218 -137.011 167.365L-165.337 163.077C-165.285 162.26 -165.586 161.443 -166.231 160.901L-109.254 81.8899L-109.22 81.9329L-109.142 81.9415L-134.465 165.61ZM249.825 -34.993L125.281 13.7736C125.212 13.6876 125.177 13.6446 125.108 13.5586L157.666 -26.9443C157.777 -26.8927 157.812 -26.8497 157.924 -26.798C159.627 -25.9032 161.734 -26.5309 162.629 -28.234C162.921 -28.7501 163.024 -29.3264 163.007 -29.8769L249.61 -35.8791C249.661 -35.6382 249.704 -35.3199 249.825 -34.993ZM157.029 -27.5638L124.515 12.9047C123.629 12.4143 122.571 12.7669 122.046 13.6098L105.238 4.76487C105.6 3.98213 105.574 3.15633 105.264 2.41651L156.754 -27.9079C156.78 -27.7874 156.883 -27.6584 157.029 -27.5638ZM-50.865 125.613L-74.7857 188.551C-75.1728 188.507 -75.5771 188.619 -75.9039 188.74L-105.331 137.58C-104.953 137.348 -104.686 137.064 -104.48 136.617C-104.273 136.169 -104.144 135.713 -104.17 135.24L-51.966 124.236C-51.7165 124.812 -51.3725 125.243 -50.865 125.613ZM-109.185 134.173C-109.684 135.136 -109.529 136.212 -108.952 137.02L-133.476 165.877C-133.553 165.868 -133.622 165.782 -133.699 165.774L-108.308 82.1911L-108.231 82.1997L-107.507 132.831C-108.196 133.029 -108.798 133.511 -109.185 134.173ZM-109.865 81.3909L-166.894 160.514C-167.117 160.411 -167.35 160.385 -167.573 160.281L-159.798 78.3052C-158.663 78.314 -157.536 77.6948 -156.951 76.6626C-156.848 76.4389 -156.745 76.2153 -156.676 75.9486L-110.596 79.507C-110.63 80.1693 -110.355 80.8661 -109.865 81.3909ZM-161.209 77.9524C-160.985 78.0556 -160.839 78.1503 -160.65 78.2105L-168.433 160.264C-169.233 160.41 -169.947 160.84 -170.343 161.58L-210.857 141.79C-210.359 140.474 -210.703 138.986 -211.692 138.014L-161.501 77.7631C-161.389 77.8147 -161.321 77.9007 -161.209 77.9524ZM-215.726 143.639C-214.135 144.482 -212.234 143.949 -211.253 142.53L-170.627 162.371C-170.644 162.526 -170.661 162.681 -170.678 162.836L-256.851 168.494C-256.894 168.176 -257.014 167.849 -257.178 167.556L-216.904 142.607C-216.56 143.037 -216.165 143.355 -215.726 143.639ZM-257.178 170.73C-256.928 170.249 -256.799 169.793 -256.782 169.285L-170.61 163.627C-170.498 164.032 -170.3 164.367 -170.025 164.711L-202.152 207.339C-203.124 206.917 -204.242 207.106 -204.982 207.769L-257.315 170.911C-257.229 170.842 -257.186 170.808 -257.178 170.73ZM-200.87 210.969C-200.431 210.195 -200.492 209.326 -200.879 208.578L-136.521 169.653C-136.452 169.739 -136.349 169.868 -136.237 169.92L-185.687 260.544C-186.289 260.321 -186.952 260.286 -187.631 260.406L-202.091 212.087C-201.558 211.872 -201.162 211.485 -200.87 210.969ZM-183.752 262.17L-107.18 211.359C-107.145 211.402 -107.033 211.454 -106.999 211.497C-106.853 211.591 -106.621 211.617 -106.431 211.677L-113.166 281.112C-114.421 281.129 -115.591 281.783 -116.193 282.97C-116.288 283.116 -116.348 283.305 -116.408 283.494L-183.373 264.407C-183.287 263.633 -183.434 262.833 -183.752 262.17ZM-110.086 286.196C-109.192 284.493 -109.82 282.386 -111.523 281.491C-111.781 281.345 -112.082 281.233 -112.391 281.198L-105.692 212.073L-74.6294 313.065C-75.0423 313.254 -75.4293 313.564 -75.739 313.882L-110.327 286.601C-110.232 286.454 -110.103 286.351 -110.086 286.196ZM67.4522 124.784L82.7113 86.5501C83.1585 86.7566 83.6574 86.8512 84.1305 86.8255L103.769 128.04C103.468 128.281 103.201 128.565 103.012 128.857C102.814 129.227 102.771 129.614 102.728 130.001L68.7855 126.892C68.7597 126.066 68.3038 125.232 67.4522 124.784ZM106.332 127.894C105.739 127.593 105.119 127.524 104.552 127.696L85.0079 86.688C85.6617 86.4472 86.2208 85.9999 86.5304 85.329C86.582 85.2172 86.5906 85.1398 86.6422 85.028L204.435 104.793C204.461 104.913 204.444 105.068 204.469 105.188L107.657 129.727C107.468 128.961 107.038 128.247 106.332 127.894ZM205.639 102.419L125.048 15.8639C125.177 15.7607 125.272 15.6145 125.324 15.5027C125.478 15.1672 125.556 14.8231 125.547 14.5479L250.134 -34.2532C250.642 -33.1779 251.485 -32.3004 252.595 -31.7067C252.818 -31.6035 253.042 -31.5002 253.231 -31.44L207.936 101.851C207.127 101.722 206.284 101.903 205.639 102.419ZM-123.187 282.427L-139.633 279.148L-168.879 269.389L-123.187 282.427Z"/>
</mask>
<path d="M257.919 -41.8909C255.106 -43.3794 251.657 -42.3131 250.169 -39.5005C249.721 -38.6489 249.541 -37.7285 249.515 -36.7909L162.913 -30.7888C162.663 -31.7178 162.052 -32.5695 161.166 -33.0599C159.463 -33.9548 157.356 -33.327 156.461 -31.624C155.962 -30.6606 155.962 -29.6025 156.332 -28.6993L104.8 1.65946C104.593 1.40138 104.301 1.2121 104.008 1.02282C102.641 0.282881 100.937 0.798799 100.232 2.20944C99.7762 3.1384 99.8192 4.16206 100.352 5.00512L68.707 36.5964C68.6726 36.5534 68.5952 36.5448 68.5608 36.5018C67.4511 35.9081 66.1093 36.3466 65.5588 37.4218C65.2147 38.0497 65.2147 38.7551 65.4986 39.3745L18.9549 74.2069C18.9205 74.1639 18.8861 74.1209 18.8431 74.1553C17.8453 73.6132 16.5464 74.0174 16.0045 75.0151C15.5658 75.7893 15.7379 76.7097 16.2884 77.3979L-5.49076 120.001C-6.34234 119.906 -7.2111 120.319 -7.64978 121.093C-7.753 121.317 -7.81323 121.506 -7.87344 121.695L-46.7619 122.895C-46.9082 122.095 -47.4157 121.372 -48.1554 120.976C-49.4887 120.279 -51.1145 120.804 -51.8456 122.094C-52.052 122.541 -52.1466 123.04 -52.1552 123.47L-104.359 134.475C-104.609 133.898 -105.022 133.382 -105.615 133.081C-105.985 132.883 -106.329 132.806 -106.682 132.806L-107.37 82.217C-106.57 82.0709 -105.814 81.6065 -105.409 80.7893C-104.669 79.4217 -105.229 77.7528 -106.596 77.0129C-107.964 76.2729 -109.633 76.8319 -110.372 78.1995C-110.467 78.3457 -110.527 78.535 -110.544 78.6898L-156.616 75.0541C-156.65 73.953 -157.243 72.9465 -158.276 72.3614C-159.833 71.5612 -161.699 72.1373 -162.499 73.6942C-163.101 74.8812 -162.903 76.2748 -162.103 77.1867L-212.303 137.515C-212.337 137.472 -212.414 137.463 -212.449 137.42C-214.152 136.526 -216.259 137.153 -217.154 138.856C-217.653 139.82 -217.661 140.955 -217.257 141.901L-257.573 166.885C-257.849 166.541 -258.21 166.266 -258.614 166.025C-260.317 165.13 -262.425 165.758 -263.319 167.461C-264.214 169.164 -263.586 171.272 -261.883 172.166C-260.515 172.906 -258.838 172.623 -257.78 171.565L-205.489 208.457C-205.532 208.491 -205.532 208.491 -205.541 208.569C-206.194 209.867 -205.704 211.45 -204.448 212.139C-203.932 212.431 -203.39 212.491 -202.831 212.397L-188.405 260.673C-189.068 260.991 -189.592 261.482 -189.945 262.187C-190.84 263.89 -190.212 265.997 -188.509 266.892C-186.805 267.787 -184.698 267.159 -183.803 265.456C-183.76 265.422 -183.795 265.379 -183.752 265.345L-139.84 279.948L-116.649 284.604C-116.632 285.86 -115.978 287.03 -114.757 287.675C-113.424 288.372 -111.91 288.149 -110.826 287.211L-76.2035 314.536L-76.2465 314.57C-77.1411 316.273 -76.5131 318.381 -74.8099 319.275C-73.1068 320.17 -70.9994 319.543 -70.1048 317.839C-69.6489 316.91 -69.6145 315.895 -69.907 315.001L-29.092 290.464C-28.9457 290.559 -28.7995 290.654 -28.6533 290.748C-27.4318 291.394 -25.9695 290.929 -25.3244 289.708C-24.6793 288.486 -25.1438 287.024 -26.3653 286.379C-26.6233 286.232 -26.89 286.164 -27.1996 286.129L-35.9312 217.991C-35.4409 217.811 -34.9334 217.475 -34.6754 216.916C-34.5206 216.581 -34.4001 216.202 -34.4001 215.85L3.9119 199.382C4.07534 199.674 4.3592 199.941 4.72907 200.139C5.72688 200.681 6.94832 200.268 7.49022 199.27C7.89449 198.453 7.76544 197.498 7.1289 196.879L44.245 150.613C45.7073 151.207 47.419 150.614 48.1673 149.168C48.6662 148.205 48.6318 147.104 48.1415 146.227L64.7943 128.956C64.9061 129.007 65.0093 129.136 65.1212 129.188C66.3426 129.833 67.8479 129.335 68.45 128.148C68.5447 128.001 68.5619 127.847 68.6135 127.735L102.831 130.836C103.046 131.369 103.425 131.842 103.975 132.178C105.162 132.78 106.659 132.359 107.261 131.172C107.321 130.983 107.425 130.759 107.442 130.604L204.538 105.98C204.779 106.634 205.269 107.158 205.932 107.546C207.411 108.337 209.278 107.761 210.069 106.282C210.86 104.802 210.284 102.935 208.805 102.144C208.77 102.101 208.693 102.092 208.658 102.049L253.954 -31.242C256.44 -30.6912 259.072 -31.8092 260.276 -34.1832C261.833 -36.9098 260.732 -40.4024 257.919 -41.8909ZM47.6684 145.547C47.4189 145.323 47.2039 145.143 46.9114 144.953C46.5416 144.755 46.1631 144.635 45.776 144.592L40.141 76.7987L64.6738 125.102C64.4588 125.274 64.2781 125.489 64.1319 125.747C63.6846 126.599 63.7793 127.511 64.2438 128.268L47.6684 145.547ZM6.46658 196.492C5.90746 196.234 5.31395 196.285 4.81505 196.543L-26.7195 153.065C-26.4615 152.858 -26.2808 152.643 -26.126 152.308C-25.9367 152.015 -25.9023 151.706 -25.8679 151.396L42.5332 148.738C42.7482 149.271 43.0837 149.779 43.5912 150.149L6.46658 196.492ZM3.89467 197.42C3.69683 197.79 3.64522 198.255 3.67963 198.65L-34.512 215.093C-34.7356 214.637 -35.0453 214.25 -35.527 214C-35.6388 213.949 -35.7162 213.94 -35.7506 213.897L-28.5603 153.761C-28.1302 153.77 -27.7689 153.692 -27.3991 153.538L4.16992 197.059C4.04089 197.162 3.94628 197.309 3.89467 197.42ZM-29.6597 287.462C-30.0984 288.236 -30.0038 289.148 -29.5737 289.862L-70.2597 314.295C-70.5607 313.831 -70.9909 313.47 -71.4726 313.22L-36.6968 218.181L-27.991 286.198C-28.7135 286.353 -29.307 286.757 -29.6597 287.462ZM-7.8046 122.487C-7.75299 122.728 -7.62396 122.977 -7.52934 123.184L-27.3733 148.72C-28.2249 148.273 -29.1797 148.402 -29.928 148.789L-47.5361 125.277C-47.321 125.105 -47.0974 124.856 -46.9856 124.555C-46.7963 124.263 -46.7619 123.953 -46.7275 123.643L-7.8046 122.487ZM16.9851 77.8281C17.9915 78.2928 19.17 77.9144 19.7119 76.9166C19.8581 76.6586 19.9355 76.3145 19.9269 76.0392L37.6809 75.3103C37.6981 75.5081 37.7927 75.7146 37.8874 75.921L-4.44134 119.726L16.9851 77.8281ZM65.2836 40.6045L40.27 73.1687C39.3668 72.8331 38.3089 73.1856 37.8616 74.0372C37.767 74.1834 37.7497 74.3383 37.6981 74.4501L19.7893 75.1618C19.7291 74.9984 19.6689 74.8349 19.5656 74.7059L65.2836 40.6045ZM100.826 5.68472C101.006 5.82238 101.187 5.96005 101.333 6.05469C102.52 6.65698 103.922 6.38187 104.731 5.45295L121.719 14.4355C121.694 14.6678 121.702 14.9431 121.797 15.1495L69.2231 37.2416L100.826 5.68472ZM204.745 103.416C204.684 103.606 204.547 103.786 204.487 103.976L86.8057 84.2624C86.8917 83.1356 86.3497 82.0172 85.2745 81.4666C85.2745 81.4666 85.2745 81.4666 85.2401 81.4236L123.027 16.4228C123.483 16.5519 123.878 16.5175 124.291 16.3283L205.028 102.978C204.934 103.124 204.839 103.27 204.745 103.416ZM122.227 15.8635C122.261 15.9066 122.33 15.9926 122.365 16.0356L84.4832 81.1826C83.9068 81.0793 83.3133 81.1309 82.8144 81.3889L68.6297 40.4673C68.9651 40.2695 69.2748 39.9513 69.4726 39.5814C69.765 39.0653 69.7909 38.4804 69.6532 37.9556L122.227 15.8635ZM66.3846 40.5703C66.8319 40.7768 67.3308 40.8714 67.8125 40.7683L82.0919 81.8963C81.8338 82.1027 81.6446 82.3951 81.4554 82.6876C81.3608 82.8338 81.2575 83.0575 81.2403 83.2123L41.5001 74.7946C41.4313 74.3559 41.3195 73.9516 41.0012 73.6419L66.3846 40.5703ZM65.3448 124.706L40.812 76.4031C40.984 76.2655 41.1647 76.0505 41.2679 75.8268C41.2765 75.7494 41.3195 75.715 41.3711 75.6032L81.1457 84.0639C81.1801 84.8123 81.4898 85.5521 82.0575 86.0855L66.6952 124.543C66.1963 124.449 65.7576 124.517 65.3448 124.706ZM38.6702 76.6351C38.8938 76.7384 39.083 76.7986 39.3153 76.8244L44.9416 144.695C44.0212 144.867 43.1783 145.4 42.688 146.286L-3.79618 122.737C-3.52093 122.023 -3.74458 121.214 -4.19188 120.655L38.4895 76.4975C38.5239 76.5405 38.6358 76.5921 38.6702 76.6351ZM-36.6022 213.802C-37.2731 213.845 -37.9355 214.163 -38.3483 214.705L-72.9535 191.811C-72.5578 191.071 -72.661 190.237 -73.0997 189.6L-30.3666 153.09C-30.186 153.228 -30.0054 153.365 -29.8247 153.503C-29.7129 153.555 -29.6011 153.606 -29.4463 153.623L-36.6022 213.802ZM-184.939 260.863L-135.583 170.384C-134.947 170.651 -134.319 170.642 -133.751 170.47L-107.455 208.546C-107.627 208.684 -107.722 208.83 -107.825 209.054C-108.126 209.647 -108.083 210.318 -107.79 210.86L-184.277 261.603C-184.474 261.267 -184.689 261.086 -184.939 260.863ZM-48.2586 125.785L-30.5817 149.382C-30.7194 149.563 -30.814 149.709 -30.9516 149.89C-31.3989 150.741 -31.3473 151.688 -30.8828 152.445L-73.6589 188.989C-73.7707 188.938 -73.8395 188.852 -73.9169 188.843L-73.9513 188.8L-50.0822 125.974C-49.4715 126.12 -48.8349 126.034 -48.2586 125.785ZM-201.352 207.898C-201.386 207.855 -201.386 207.855 -201.421 207.812L-169.336 165.219C-169.302 165.262 -169.268 165.305 -169.19 165.313C-167.857 166.01 -166.231 165.486 -165.535 164.153C-165.483 164.041 -165.474 163.963 -165.423 163.852L-137.02 168.148C-137.011 168.423 -136.959 168.664 -136.865 168.87L-201.352 207.898ZM-108.015 137.752C-107.791 137.855 -107.602 137.915 -107.413 137.975L-106.328 207.927C-106.449 207.953 -106.569 207.979 -106.689 208.004L-132.951 169.972C-132.693 169.765 -132.469 169.516 -132.314 169.18C-131.816 168.217 -132.005 167.099 -132.702 166.316L-108.221 137.493C-108.239 137.648 -108.127 137.7 -108.015 137.752ZM-76.5834 189.213C-76.7555 189.35 -76.8501 189.497 -76.9533 189.72C-77.2544 190.314 -77.2802 190.899 -77.0737 191.509L-104.651 208.701C-104.823 208.486 -105.038 208.306 -105.296 208.159C-105.373 208.151 -105.442 208.065 -105.52 208.056L-106.596 138.027C-106.398 138.01 -106.277 137.984 -106.114 137.924L-76.5834 189.213ZM-104.479 210.68C-104.281 210.31 -104.229 209.846 -104.307 209.484L-76.6436 192.223C-76.4716 192.438 -76.2566 192.619 -75.9985 192.765C-75.8523 192.86 -75.6974 192.877 -75.5856 192.929L-73.6144 312.747C-73.6918 312.738 -73.7348 312.772 -73.8552 312.798L-105.064 211.359C-104.806 211.153 -104.625 210.938 -104.479 210.68ZM-72.7542 312.764L-74.734 193.024C-74.2609 192.998 -73.805 192.774 -73.4954 192.456L-38.7096 215.488C-38.9332 216.443 -38.5376 217.466 -37.5742 217.965L-37.4967 217.974L-72.2209 312.902C-72.4445 312.798 -72.5994 312.781 -72.7542 312.764ZM-26.6852 149.228L-6.92722 123.76C-6.89281 123.803 -6.78097 123.855 -6.74657 123.898C-5.89499 124.345 -4.85417 124.147 -4.22625 123.433L42.4041 147.077C42.3353 147.344 42.3353 147.697 42.3439 147.972L-25.9368 150.604C-26.0314 150.045 -26.2895 149.546 -26.6852 149.228ZM-134.465 165.61C-135.403 165.584 -136.314 166.031 -136.805 166.917C-136.899 167.064 -136.916 167.218 -137.011 167.365L-165.337 163.077C-165.285 162.26 -165.586 161.443 -166.231 160.901L-109.254 81.8899L-109.22 81.9329L-109.142 81.9415L-134.465 165.61ZM249.825 -34.993L125.281 13.7736C125.212 13.6876 125.177 13.6446 125.108 13.5586L157.666 -26.9443C157.777 -26.8927 157.812 -26.8497 157.924 -26.798C159.627 -25.9032 161.734 -26.5309 162.629 -28.234C162.921 -28.7501 163.024 -29.3264 163.007 -29.8769L249.61 -35.8791C249.661 -35.6382 249.704 -35.3199 249.825 -34.993ZM157.029 -27.5638L124.515 12.9047C123.629 12.4143 122.571 12.7669 122.046 13.6098L105.238 4.76487C105.6 3.98213 105.574 3.15633 105.264 2.41651L156.754 -27.9079C156.78 -27.7874 156.883 -27.6584 157.029 -27.5638ZM-50.865 125.613L-74.7857 188.551C-75.1728 188.507 -75.5771 188.619 -75.9039 188.74L-105.331 137.58C-104.953 137.348 -104.686 137.064 -104.48 136.617C-104.273 136.169 -104.144 135.713 -104.17 135.24L-51.966 124.236C-51.7165 124.812 -51.3725 125.243 -50.865 125.613ZM-109.185 134.173C-109.684 135.136 -109.529 136.212 -108.952 137.02L-133.476 165.877C-133.553 165.868 -133.622 165.782 -133.699 165.774L-108.308 82.1911L-108.231 82.1997L-107.507 132.831C-108.196 133.029 -108.798 133.511 -109.185 134.173ZM-109.865 81.3909L-166.894 160.514C-167.117 160.411 -167.35 160.385 -167.573 160.281L-159.798 78.3052C-158.663 78.314 -157.536 77.6948 -156.951 76.6626C-156.848 76.4389 -156.745 76.2153 -156.676 75.9486L-110.596 79.507C-110.63 80.1693 -110.355 80.8661 -109.865 81.3909ZM-161.209 77.9524C-160.985 78.0556 -160.839 78.1503 -160.65 78.2105L-168.433 160.264C-169.233 160.41 -169.947 160.84 -170.343 161.58L-210.857 141.79C-210.359 140.474 -210.703 138.986 -211.692 138.014L-161.501 77.7631C-161.389 77.8147 -161.321 77.9007 -161.209 77.9524ZM-215.726 143.639C-214.135 144.482 -212.234 143.949 -211.253 142.53L-170.627 162.371C-170.644 162.526 -170.661 162.681 -170.678 162.836L-256.851 168.494C-256.894 168.176 -257.014 167.849 -257.178 167.556L-216.904 142.607C-216.56 143.037 -216.165 143.355 -215.726 143.639ZM-257.178 170.73C-256.928 170.249 -256.799 169.793 -256.782 169.285L-170.61 163.627C-170.498 164.032 -170.3 164.367 -170.025 164.711L-202.152 207.339C-203.124 206.917 -204.242 207.106 -204.982 207.769L-257.315 170.911C-257.229 170.842 -257.186 170.808 -257.178 170.73ZM-200.87 210.969C-200.431 210.195 -200.492 209.326 -200.879 208.578L-136.521 169.653C-136.452 169.739 -136.349 169.868 -136.237 169.92L-185.687 260.544C-186.289 260.321 -186.952 260.286 -187.631 260.406L-202.091 212.087C-201.558 211.872 -201.162 211.485 -200.87 210.969ZM-183.752 262.17L-107.18 211.359C-107.145 211.402 -107.033 211.454 -106.999 211.497C-106.853 211.591 -106.621 211.617 -106.431 211.677L-113.166 281.112C-114.421 281.129 -115.591 281.783 -116.193 282.97C-116.288 283.116 -116.348 283.305 -116.408 283.494L-183.373 264.407C-183.287 263.633 -183.434 262.833 -183.752 262.17ZM-110.086 286.196C-109.192 284.493 -109.82 282.386 -111.523 281.491C-111.781 281.345 -112.082 281.233 -112.391 281.198L-105.692 212.073L-74.6294 313.065C-75.0423 313.254 -75.4293 313.564 -75.739 313.882L-110.327 286.601C-110.232 286.454 -110.103 286.351 -110.086 286.196ZM67.4522 124.784L82.7113 86.5501C83.1585 86.7566 83.6574 86.8512 84.1305 86.8255L103.769 128.04C103.468 128.281 103.201 128.565 103.012 128.857C102.814 129.227 102.771 129.614 102.728 130.001L68.7855 126.892C68.7597 126.066 68.3038 125.232 67.4522 124.784ZM106.332 127.894C105.739 127.593 105.119 127.524 104.552 127.696L85.0079 86.688C85.6617 86.4472 86.2208 85.9999 86.5304 85.329C86.582 85.2172 86.5906 85.1398 86.6422 85.028L204.435 104.793C204.461 104.913 204.444 105.068 204.469 105.188L107.657 129.727C107.468 128.961 107.038 128.247 106.332 127.894ZM205.639 102.419L125.048 15.8639C125.177 15.7607 125.272 15.6145 125.324 15.5027C125.478 15.1672 125.556 14.8231 125.547 14.5479L250.134 -34.2532C250.642 -33.1779 251.485 -32.3004 252.595 -31.7067C252.818 -31.6035 253.042 -31.5002 253.231 -31.44L207.936 101.851C207.127 101.722 206.284 101.903 205.639 102.419ZM-123.187 282.427L-139.633 279.148L-168.879 269.389L-123.187 282.427Z" fill="white"/>
<path d="M257.919 -41.8909C255.106 -43.3794 251.657 -42.3131 250.169 -39.5005C249.721 -38.6489 249.541 -37.7285 249.515 -36.7909L162.913 -30.7888C162.663 -31.7178 162.052 -32.5695 161.166 -33.0599C159.463 -33.9548 157.356 -33.327 156.461 -31.624C155.962 -30.6606 155.962 -29.6025 156.332 -28.6993L104.8 1.65946C104.593 1.40138 104.301 1.2121 104.008 1.02282C102.641 0.282881 100.937 0.798799 100.232 2.20944C99.7762 3.1384 99.8192 4.16206 100.352 5.00512L68.707 36.5964C68.6726 36.5534 68.5952 36.5448 68.5608 36.5018C67.4511 35.9081 66.1093 36.3466 65.5588 37.4218C65.2147 38.0497 65.2147 38.7551 65.4986 39.3745L18.9549 74.2069C18.9205 74.1639 18.8861 74.1209 18.8431 74.1553C17.8453 73.6132 16.5464 74.0174 16.0045 75.0151C15.5658 75.7893 15.7379 76.7097 16.2884 77.3979L-5.49076 120.001C-6.34234 119.906 -7.2111 120.319 -7.64978 121.093C-7.753 121.317 -7.81323 121.506 -7.87344 121.695L-46.7619 122.895C-46.9082 122.095 -47.4157 121.372 -48.1554 120.976C-49.4887 120.279 -51.1145 120.804 -51.8456 122.094C-52.052 122.541 -52.1466 123.04 -52.1552 123.47L-104.359 134.475C-104.609 133.898 -105.022 133.382 -105.615 133.081C-105.985 132.883 -106.329 132.806 -106.682 132.806L-107.37 82.217C-106.57 82.0709 -105.814 81.6065 -105.409 80.7893C-104.669 79.4217 -105.229 77.7528 -106.596 77.0129C-107.964 76.2729 -109.633 76.8319 -110.372 78.1995C-110.467 78.3457 -110.527 78.535 -110.544 78.6898L-156.616 75.0541C-156.65 73.953 -157.243 72.9465 -158.276 72.3614C-159.833 71.5612 -161.699 72.1373 -162.499 73.6942C-163.101 74.8812 -162.903 76.2748 -162.103 77.1867L-212.303 137.515C-212.337 137.472 -212.414 137.463 -212.449 137.42C-214.152 136.526 -216.259 137.153 -217.154 138.856C-217.653 139.82 -217.661 140.955 -217.257 141.901L-257.573 166.885C-257.849 166.541 -258.21 166.266 -258.614 166.025C-260.317 165.13 -262.425 165.758 -263.319 167.461C-264.214 169.164 -263.586 171.272 -261.883 172.166C-260.515 172.906 -258.838 172.623 -257.78 171.565L-205.489 208.457C-205.532 208.491 -205.532 208.491 -205.541 208.569C-206.194 209.867 -205.704 211.45 -204.448 212.139C-203.932 212.431 -203.39 212.491 -202.831 212.397L-188.405 260.673C-189.068 260.991 -189.592 261.482 -189.945 262.187C-190.84 263.89 -190.212 265.997 -188.509 266.892C-186.805 267.787 -184.698 267.159 -183.803 265.456C-183.76 265.422 -183.795 265.379 -183.752 265.345L-139.84 279.948L-116.649 284.604C-116.632 285.86 -115.978 287.03 -114.757 287.675C-113.424 288.372 -111.91 288.149 -110.826 287.211L-76.2035 314.536L-76.2465 314.57C-77.1411 316.273 -76.5131 318.381 -74.8099 319.275C-73.1068 320.17 -70.9994 319.543 -70.1048 317.839C-69.6489 316.91 -69.6145 315.895 -69.907 315.001L-29.092 290.464C-28.9457 290.559 -28.7995 290.654 -28.6533 290.748C-27.4318 291.394 -25.9695 290.929 -25.3244 289.708C-24.6793 288.486 -25.1438 287.024 -26.3653 286.379C-26.6233 286.232 -26.89 286.164 -27.1996 286.129L-35.9312 217.991C-35.4409 217.811 -34.9334 217.475 -34.6754 216.916C-34.5206 216.581 -34.4001 216.202 -34.4001 215.85L3.9119 199.382C4.07534 199.674 4.3592 199.941 4.72907 200.139C5.72688 200.681 6.94832 200.268 7.49022 199.27C7.89449 198.453 7.76544 197.498 7.1289 196.879L44.245 150.613C45.7073 151.207 47.419 150.614 48.1673 149.168C48.6662 148.205 48.6318 147.104 48.1415 146.227L64.7943 128.956C64.9061 129.007 65.0093 129.136 65.1212 129.188C66.3426 129.833 67.8479 129.335 68.45 128.148C68.5447 128.001 68.5619 127.847 68.6135 127.735L102.831 130.836C103.046 131.369 103.425 131.842 103.975 132.178C105.162 132.78 106.659 132.359 107.261 131.172C107.321 130.983 107.425 130.759 107.442 130.604L204.538 105.98C204.779 106.634 205.269 107.158 205.932 107.546C207.411 108.337 209.278 107.761 210.069 106.282C210.86 104.802 210.284 102.935 208.805 102.144C208.77 102.101 208.693 102.092 208.658 102.049L253.954 -31.242C256.44 -30.6912 259.072 -31.8092 260.276 -34.1832C261.833 -36.9098 260.732 -40.4024 257.919 -41.8909ZM47.6684 145.547C47.4189 145.323 47.2039 145.143 46.9114 144.953C46.5416 144.755 46.1631 144.635 45.776 144.592L40.141 76.7987L64.6738 125.102C64.4588 125.274 64.2781 125.489 64.1319 125.747C63.6846 126.599 63.7793 127.511 64.2438 128.268L47.6684 145.547ZM6.46658 196.492C5.90746 196.234 5.31395 196.285 4.81505 196.543L-26.7195 153.065C-26.4615 152.858 -26.2808 152.643 -26.126 152.308C-25.9367 152.015 -25.9023 151.706 -25.8679 151.396L42.5332 148.738C42.7482 149.271 43.0837 149.779 43.5912 150.149L6.46658 196.492ZM3.89467 197.42C3.69683 197.79 3.64522 198.255 3.67963 198.65L-34.512 215.093C-34.7356 214.637 -35.0453 214.25 -35.527 214C-35.6388 213.949 -35.7162 213.94 -35.7506 213.897L-28.5603 153.761C-28.1302 153.77 -27.7689 153.692 -27.3991 153.538L4.16992 197.059C4.04089 197.162 3.94628 197.309 3.89467 197.42ZM-29.6597 287.462C-30.0984 288.236 -30.0038 289.148 -29.5737 289.862L-70.2597 314.295C-70.5607 313.831 -70.9909 313.47 -71.4726 313.22L-36.6968 218.181L-27.991 286.198C-28.7135 286.353 -29.307 286.757 -29.6597 287.462ZM-7.8046 122.487C-7.75299 122.728 -7.62396 122.977 -7.52934 123.184L-27.3733 148.72C-28.2249 148.273 -29.1797 148.402 -29.928 148.789L-47.5361 125.277C-47.321 125.105 -47.0974 124.856 -46.9856 124.555C-46.7963 124.263 -46.7619 123.953 -46.7275 123.643L-7.8046 122.487ZM16.9851 77.8281C17.9915 78.2928 19.17 77.9144 19.7119 76.9166C19.8581 76.6586 19.9355 76.3145 19.9269 76.0392L37.6809 75.3103C37.6981 75.5081 37.7927 75.7146 37.8874 75.921L-4.44134 119.726L16.9851 77.8281ZM65.2836 40.6045L40.27 73.1687C39.3668 72.8331 38.3089 73.1856 37.8616 74.0372C37.767 74.1834 37.7497 74.3383 37.6981 74.4501L19.7893 75.1618C19.7291 74.9984 19.6689 74.8349 19.5656 74.7059L65.2836 40.6045ZM100.826 5.68472C101.006 5.82238 101.187 5.96005 101.333 6.05469C102.52 6.65698 103.922 6.38187 104.731 5.45295L121.719 14.4355C121.694 14.6678 121.702 14.9431 121.797 15.1495L69.2231 37.2416L100.826 5.68472ZM204.745 103.416C204.684 103.606 204.547 103.786 204.487 103.976L86.8057 84.2624C86.8917 83.1356 86.3497 82.0172 85.2745 81.4666C85.2745 81.4666 85.2745 81.4666 85.2401 81.4236L123.027 16.4228C123.483 16.5519 123.878 16.5175 124.291 16.3283L205.028 102.978C204.934 103.124 204.839 103.27 204.745 103.416ZM122.227 15.8635C122.261 15.9066 122.33 15.9926 122.365 16.0356L84.4832 81.1826C83.9068 81.0793 83.3133 81.1309 82.8144 81.3889L68.6297 40.4673C68.9651 40.2695 69.2748 39.9513 69.4726 39.5814C69.765 39.0653 69.7909 38.4804 69.6532 37.9556L122.227 15.8635ZM66.3846 40.5703C66.8319 40.7768 67.3308 40.8714 67.8125 40.7683L82.0919 81.8963C81.8338 82.1027 81.6446 82.3951 81.4554 82.6876C81.3608 82.8338 81.2575 83.0575 81.2403 83.2123L41.5001 74.7946C41.4313 74.3559 41.3195 73.9516 41.0012 73.6419L66.3846 40.5703ZM65.3448 124.706L40.812 76.4031C40.984 76.2655 41.1647 76.0505 41.2679 75.8268C41.2765 75.7494 41.3195 75.715 41.3711 75.6032L81.1457 84.0639C81.1801 84.8123 81.4898 85.5521 82.0575 86.0855L66.6952 124.543C66.1963 124.449 65.7576 124.517 65.3448 124.706ZM38.6702 76.6351C38.8938 76.7384 39.083 76.7986 39.3153 76.8244L44.9416 144.695C44.0212 144.867 43.1783 145.4 42.688 146.286L-3.79618 122.737C-3.52093 122.023 -3.74458 121.214 -4.19188 120.655L38.4895 76.4975C38.5239 76.5405 38.6358 76.5921 38.6702 76.6351ZM-36.6022 213.802C-37.2731 213.845 -37.9355 214.163 -38.3483 214.705L-72.9535 191.811C-72.5578 191.071 -72.661 190.237 -73.0997 189.6L-30.3666 153.09C-30.186 153.228 -30.0054 153.365 -29.8247 153.503C-29.7129 153.555 -29.6011 153.606 -29.4463 153.623L-36.6022 213.802ZM-184.939 260.863L-135.583 170.384C-134.947 170.651 -134.319 170.642 -133.751 170.47L-107.455 208.546C-107.627 208.684 -107.722 208.83 -107.825 209.054C-108.126 209.647 -108.083 210.318 -107.79 210.86L-184.277 261.603C-184.474 261.267 -184.689 261.086 -184.939 260.863ZM-48.2586 125.785L-30.5817 149.382C-30.7194 149.563 -30.814 149.709 -30.9516 149.89C-31.3989 150.741 -31.3473 151.688 -30.8828 152.445L-73.6589 188.989C-73.7707 188.938 -73.8395 188.852 -73.9169 188.843L-73.9513 188.8L-50.0822 125.974C-49.4715 126.12 -48.8349 126.034 -48.2586 125.785ZM-201.352 207.898C-201.386 207.855 -201.386 207.855 -201.421 207.812L-169.336 165.219C-169.302 165.262 -169.268 165.305 -169.19 165.313C-167.857 166.01 -166.231 165.486 -165.535 164.153C-165.483 164.041 -165.474 163.963 -165.423 163.852L-137.02 168.148C-137.011 168.423 -136.959 168.664 -136.865 168.87L-201.352 207.898ZM-108.015 137.752C-107.791 137.855 -107.602 137.915 -107.413 137.975L-106.328 207.927C-106.449 207.953 -106.569 207.979 -106.689 208.004L-132.951 169.972C-132.693 169.765 -132.469 169.516 -132.314 169.18C-131.816 168.217 -132.005 167.099 -132.702 166.316L-108.221 137.493C-108.239 137.648 -108.127 137.7 -108.015 137.752ZM-76.5834 189.213C-76.7555 189.35 -76.8501 189.497 -76.9533 189.72C-77.2544 190.314 -77.2802 190.899 -77.0737 191.509L-104.651 208.701C-104.823 208.486 -105.038 208.306 -105.296 208.159C-105.373 208.151 -105.442 208.065 -105.52 208.056L-106.596 138.027C-106.398 138.01 -106.277 137.984 -106.114 137.924L-76.5834 189.213ZM-104.479 210.68C-104.281 210.31 -104.229 209.846 -104.307 209.484L-76.6436 192.223C-76.4716 192.438 -76.2566 192.619 -75.9985 192.765C-75.8523 192.86 -75.6974 192.877 -75.5856 192.929L-73.6144 312.747C-73.6918 312.738 -73.7348 312.772 -73.8552 312.798L-105.064 211.359C-104.806 211.153 -104.625 210.938 -104.479 210.68ZM-72.7542 312.764L-74.734 193.024C-74.2609 192.998 -73.805 192.774 -73.4954 192.456L-38.7096 215.488C-38.9332 216.443 -38.5376 217.466 -37.5742 217.965L-37.4967 217.974L-72.2209 312.902C-72.4445 312.798 -72.5994 312.781 -72.7542 312.764ZM-26.6852 149.228L-6.92722 123.76C-6.89281 123.803 -6.78097 123.855 -6.74657 123.898C-5.89499 124.345 -4.85417 124.147 -4.22625 123.433L42.4041 147.077C42.3353 147.344 42.3353 147.697 42.3439 147.972L-25.9368 150.604C-26.0314 150.045 -26.2895 149.546 -26.6852 149.228ZM-134.465 165.61C-135.403 165.584 -136.314 166.031 -136.805 166.917C-136.899 167.064 -136.916 167.218 -137.011 167.365L-165.337 163.077C-165.285 162.26 -165.586 161.443 -166.231 160.901L-109.254 81.8899L-109.22 81.9329L-109.142 81.9415L-134.465 165.61ZM249.825 -34.993L125.281 13.7736C125.212 13.6876 125.177 13.6446 125.108 13.5586L157.666 -26.9443C157.777 -26.8927 157.812 -26.8497 157.924 -26.798C159.627 -25.9032 161.734 -26.5309 162.629 -28.234C162.921 -28.7501 163.024 -29.3264 163.007 -29.8769L249.61 -35.8791C249.661 -35.6382 249.704 -35.3199 249.825 -34.993ZM157.029 -27.5638L124.515 12.9047C123.629 12.4143 122.571 12.7669 122.046 13.6098L105.238 4.76487C105.6 3.98213 105.574 3.15633 105.264 2.41651L156.754 -27.9079C156.78 -27.7874 156.883 -27.6584 157.029 -27.5638ZM-50.865 125.613L-74.7857 188.551C-75.1728 188.507 -75.5771 188.619 -75.9039 188.74L-105.331 137.58C-104.953 137.348 -104.686 137.064 -104.48 136.617C-104.273 136.169 -104.144 135.713 -104.17 135.24L-51.966 124.236C-51.7165 124.812 -51.3725 125.243 -50.865 125.613ZM-109.185 134.173C-109.684 135.136 -109.529 136.212 -108.952 137.02L-133.476 165.877C-133.553 165.868 -133.622 165.782 -133.699 165.774L-108.308 82.1911L-108.231 82.1997L-107.507 132.831C-108.196 133.029 -108.798 133.511 -109.185 134.173ZM-109.865 81.3909L-166.894 160.514C-167.117 160.411 -167.35 160.385 -167.573 160.281L-159.798 78.3052C-158.663 78.314 -157.536 77.6948 -156.951 76.6626C-156.848 76.4389 -156.745 76.2153 -156.676 75.9486L-110.596 79.507C-110.63 80.1693 -110.355 80.8661 -109.865 81.3909ZM-161.209 77.9524C-160.985 78.0556 -160.839 78.1503 -160.65 78.2105L-168.433 160.264C-169.233 160.41 -169.947 160.84 -170.343 161.58L-210.857 141.79C-210.359 140.474 -210.703 138.986 -211.692 138.014L-161.501 77.7631C-161.389 77.8147 -161.321 77.9007 -161.209 77.9524ZM-215.726 143.639C-214.135 144.482 -212.234 143.949 -211.253 142.53L-170.627 162.371C-170.644 162.526 -170.661 162.681 -170.678 162.836L-256.851 168.494C-256.894 168.176 -257.014 167.849 -257.178 167.556L-216.904 142.607C-216.56 143.037 -216.165 143.355 -215.726 143.639ZM-257.178 170.73C-256.928 170.249 -256.799 169.793 -256.782 169.285L-170.61 163.627C-170.498 164.032 -170.3 164.367 -170.025 164.711L-202.152 207.339C-203.124 206.917 -204.242 207.106 -204.982 207.769L-257.315 170.911C-257.229 170.842 -257.186 170.808 -257.178 170.73ZM-200.87 210.969C-200.431 210.195 -200.492 209.326 -200.879 208.578L-136.521 169.653C-136.452 169.739 -136.349 169.868 -136.237 169.92L-185.687 260.544C-186.289 260.321 -186.952 260.286 -187.631 260.406L-202.091 212.087C-201.558 211.872 -201.162 211.485 -200.87 210.969ZM-183.752 262.17L-107.18 211.359C-107.145 211.402 -107.033 211.454 -106.999 211.497C-106.853 211.591 -106.621 211.617 -106.431 211.677L-113.166 281.112C-114.421 281.129 -115.591 281.783 -116.193 282.97C-116.288 283.116 -116.348 283.305 -116.408 283.494L-183.373 264.407C-183.287 263.633 -183.434 262.833 -183.752 262.17ZM-110.086 286.196C-109.192 284.493 -109.82 282.386 -111.523 281.491C-111.781 281.345 -112.082 281.233 -112.391 281.198L-105.692 212.073L-74.6294 313.065C-75.0423 313.254 -75.4293 313.564 -75.739 313.882L-110.327 286.601C-110.232 286.454 -110.103 286.351 -110.086 286.196ZM67.4522 124.784L82.7113 86.5501C83.1585 86.7566 83.6574 86.8512 84.1305 86.8255L103.769 128.04C103.468 128.281 103.201 128.565 103.012 128.857C102.814 129.227 102.771 129.614 102.728 130.001L68.7855 126.892C68.7597 126.066 68.3038 125.232 67.4522 124.784ZM106.332 127.894C105.739 127.593 105.119 127.524 104.552 127.696L85.0079 86.688C85.6617 86.4472 86.2208 85.9999 86.5304 85.329C86.582 85.2172 86.5906 85.1398 86.6422 85.028L204.435 104.793C204.461 104.913 204.444 105.068 204.469 105.188L107.657 129.727C107.468 128.961 107.038 128.247 106.332 127.894ZM205.639 102.419L125.048 15.8639C125.177 15.7607 125.272 15.6145 125.324 15.5027C125.478 15.1672 125.556 14.8231 125.547 14.5479L250.134 -34.2532C250.642 -33.1779 251.485 -32.3004 252.595 -31.7067C252.818 -31.6035 253.042 -31.5002 253.231 -31.44L207.936 101.851C207.127 101.722 206.284 101.903 205.639 102.419ZM-123.187 282.427L-139.633 279.148L-168.879 269.389L-123.187 282.427Z" stroke="white" stroke-width="0.574993" mask="url(#path-2-outside-1)"/>
</g>
</g>
</svg>
